<?xml version="1.0" encoding="UTF-8"?> <svg xmlns="http://www.w3.org/2000/svg" viewBox="0 0 1400 988.64"><defs><style>.cls-1{fill:none;}.cls-2{fill:#79ba43;}</style></defs><title>Asset 219</title><g id="Layer_2" data-name="Layer 2"><g id="Layer_1-2" data-name="Layer 1"><rect class="cls-1" width="1400" height="988.64"></rect><path class="cls-2" d="M910.74,146.6c200.8,43.12,457.8,130.43,345.1,452.46-91,260.08-413.6,290.32-669.3,241.35s-316.4-223.3-278.9-422.8C346.14,213.43,563.84,72,910.74,146.6Z"></path><path class="cls-2" d="M525.83,655.59c-16-98.21-118.49-126.72-225.27-109.34S111,601,127,699.28s46.86,203.34,257.57,142.85C488.22,812.3,541.84,753.8,525.83,655.59Z"></path><path class="cls-2" d="M1230.69,227.71c1.9-33.7-22.7-50.2-51.2-51.8s-52.1,5-54,38.7-.4,70.6,57.4,65.2C1211.39,277.11,1228.79,261.41,1230.69,227.71Z"></path></g></g></svg> 