<?xml version="1.0" encoding="utf-8"?>
<!-- Generator: Adobe Illustrator 24.3.0, SVG Export Plug-In . SVG Version: 6.00 Build 0)  -->
<svg version="1.1" id="Layer_1" xmlns="http://www.w3.org/2000/svg" xmlns:xlink="http://www.w3.org/1999/xlink" x="0px" y="0px"
	 viewBox="0 0 1400 988.6" style="enable-background:new 0 0 1400 988.6;" xml:space="preserve">
<style type="text/css">
	.st0{fill:none;}
	.st1{fill:#DBBF25;}
	.st2{enable-background:new    ;}
	.st3{fill:#FFFFFF;}
	.st4{fill:#000E2B;}
</style>
<g id="Layer_2_1_">
	<g id="Layer_1-2">
		<rect class="st0" width="1400" height="988.6"/>
		<path class="st1" d="M1253.1,589.8c-78,122.3-147.2,95.1-264.5,154.3c-175.3,88.5-155.5,170.2-470,59.7
			C171,681.7,61.2,459.5,159.4,292.2S559.7,94.7,849.2,181.3C1125.6,263.9,1359,423.7,1253.1,589.8z"/>
		<path class="st1" d="M969,694.8c58.5-69.1,113.6-44.2,192.6-33.2c82.8,11.5,154.8,45.6,96.3,114.8s-183.4,80.7-246.2,39.7
			S910.5,763.9,969,694.8z"/>
		<path class="st1" d="M849.2,816c-1.4-25,10.9-61.5,46.5-63.6s42.1,12.5,43.6,37.5s4.2,66.1-31.4,68.1S850.6,841,849.2,816z"/>
		<g>
			<g class="st2">
				<path class="st3" d="M439,470.9v-63h46.7v10.7h-34v14h31.6v10.6h-31.6v17.1h35.2v10.6H439z"/>
				<path class="st3" d="M495.1,457.8l12.1-1.8c0.5,2.3,1.6,4.1,3.1,5.3c1.6,1.2,3.8,1.8,6.6,1.8c3.1,0,5.5-0.6,7-1.7
					c1.1-0.8,1.6-1.9,1.6-3.2c0-0.9-0.3-1.7-0.9-2.3c-0.6-0.6-1.9-1.1-4-1.6c-9.7-2.1-15.9-4.1-18.5-5.9c-3.6-2.5-5.4-5.9-5.4-10.3
					c0-4,1.6-7.3,4.7-10c3.1-2.7,8-4,14.5-4c6.2,0,10.9,1,13.9,3.1c3,2,5.1,5,6.3,9l-11.4,2.1c-0.5-1.8-1.4-3.1-2.8-4.1
					c-1.4-0.9-3.3-1.4-5.8-1.4c-3.2,0-5.5,0.4-6.8,1.3c-0.9,0.6-1.4,1.4-1.4,2.4c0,0.9,0.4,1.6,1.2,2.2c1.1,0.8,4.8,1.9,11.3,3.4
					c6.4,1.5,10.9,3.3,13.5,5.4c2.5,2.1,3.8,5.1,3.8,9c0,4.2-1.7,7.8-5.2,10.8c-3.5,3-8.7,4.5-15.5,4.5c-6.2,0-11.1-1.3-14.8-3.8
					C498.6,465.6,496.2,462.2,495.1,457.8z"/>
				<path class="st3" d="M545.8,457.8l12.1-1.8c0.5,2.3,1.6,4.1,3.1,5.3c1.6,1.2,3.8,1.8,6.6,1.8c3.1,0,5.5-0.6,7-1.7
					c1.1-0.8,1.6-1.9,1.6-3.2c0-0.9-0.3-1.7-0.9-2.3c-0.6-0.6-1.9-1.1-4-1.6c-9.7-2.1-15.9-4.1-18.5-5.9c-3.6-2.5-5.4-5.9-5.4-10.3
					c0-4,1.6-7.3,4.7-10c3.1-2.7,8-4,14.5-4c6.2,0,10.9,1,13.9,3.1c3,2,5.1,5,6.3,9l-11.4,2.1c-0.5-1.8-1.4-3.1-2.8-4.1
					c-1.4-0.9-3.3-1.4-5.8-1.4c-3.2,0-5.5,0.4-6.8,1.3c-0.9,0.6-1.4,1.4-1.4,2.4c0,0.9,0.4,1.6,1.2,2.2c1.1,0.8,4.8,1.9,11.3,3.4
					c6.4,1.5,10.9,3.3,13.5,5.4c2.5,2.1,3.8,5.1,3.8,9c0,4.2-1.7,7.8-5.2,10.8c-3.5,3-8.7,4.5-15.5,4.5c-6.2,0-11.1-1.3-14.8-3.8
					C549.3,465.6,546.9,462.2,545.8,457.8z"/>
				<path class="st3" d="M609.7,439.1l-11-2c1.2-4.4,3.4-7.7,6.4-9.8c3-2.1,7.5-3.2,13.4-3.2c5.4,0,9.4,0.6,12,1.9
					c2.6,1.3,4.5,2.9,5.6,4.9c1.1,2,1.6,5.6,1.6,10.8l-0.1,14.1c0,4,0.2,7,0.6,8.9c0.4,1.9,1.1,3.9,2.2,6.1h-11.9
					c-0.3-0.8-0.7-2-1.2-3.6c-0.2-0.7-0.3-1.2-0.4-1.4c-2.1,2-4.3,3.5-6.6,4.5c-2.3,1-4.9,1.5-7.5,1.5c-4.7,0-8.4-1.3-11.1-3.8
					c-2.7-2.5-4.1-5.8-4.1-9.7c0-2.6,0.6-4.9,1.8-6.9c1.2-2,3-3.6,5.2-4.6c2.2-1.1,5.4-2,9.6-2.8c5.6-1.1,9.6-2,11.7-3v-1.2
					c0-2.3-0.6-4-1.7-5c-1.1-1-3.3-1.5-6.5-1.5c-2.1,0-3.8,0.4-5,1.3C611.5,435.5,610.5,437,609.7,439.1z M625.9,448.9
					c-1.5,0.5-4,1.1-7.3,1.8c-3.4,0.7-5.5,1.4-6.6,2.1c-1.6,1.1-2.4,2.5-2.4,4.3c0,1.7,0.6,3.2,1.9,4.4c1.3,1.2,2.9,1.8,4.8,1.8
					c2.2,0,4.3-0.7,6.2-2.1c1.5-1.1,2.4-2.4,2.9-4c0.3-1,0.5-3,0.5-5.9V448.9z"/>
				<path class="st3" d="M651.4,419v-11.2h12.1V419H651.4z M651.4,470.9v-45.6h12.1v45.6H651.4z"/>
				<path class="st3" d="M673.4,457.8l12.1-1.8c0.5,2.3,1.6,4.1,3.1,5.3c1.6,1.2,3.8,1.8,6.6,1.8c3.1,0,5.5-0.6,7-1.7
					c1.1-0.8,1.6-1.9,1.6-3.2c0-0.9-0.3-1.7-0.9-2.3c-0.6-0.6-1.9-1.1-4-1.6c-9.7-2.1-15.9-4.1-18.5-5.9c-3.6-2.5-5.4-5.9-5.4-10.3
					c0-4,1.6-7.3,4.7-10c3.1-2.7,8-4,14.5-4c6.2,0,10.9,1,13.9,3.1c3,2,5.1,5,6.3,9l-11.4,2.1c-0.5-1.8-1.4-3.1-2.8-4.1
					c-1.4-0.9-3.3-1.4-5.8-1.4c-3.2,0-5.5,0.4-6.8,1.3c-0.9,0.6-1.4,1.4-1.4,2.4c0,0.9,0.4,1.6,1.2,2.2c1.1,0.8,4.8,1.9,11.3,3.4
					c6.4,1.5,10.9,3.3,13.5,5.4c2.5,2.1,3.8,5.1,3.8,9c0,4.2-1.7,7.8-5.2,10.8s-8.7,4.5-15.5,4.5c-6.2,0-11.1-1.3-14.8-3.8
					C676.9,465.6,674.5,462.2,673.4,457.8z"/>
				<path class="st3" d="M763.6,439.1l-11-2c1.2-4.4,3.4-7.7,6.4-9.8c3-2.1,7.5-3.2,13.4-3.2c5.4,0,9.4,0.6,12,1.9
					c2.6,1.3,4.5,2.9,5.6,4.9c1.1,2,1.6,5.6,1.6,10.8l-0.1,14.1c0,4,0.2,7,0.6,8.9c0.4,1.9,1.1,3.9,2.2,6.1h-11.9
					c-0.3-0.8-0.7-2-1.2-3.6c-0.2-0.7-0.3-1.2-0.4-1.4c-2.1,2-4.3,3.5-6.6,4.5c-2.3,1-4.9,1.5-7.5,1.5c-4.7,0-8.4-1.3-11.1-3.8
					c-2.7-2.5-4.1-5.8-4.1-9.7c0-2.6,0.6-4.9,1.8-6.9c1.2-2,3-3.6,5.2-4.6c2.2-1.1,5.4-2,9.6-2.8c5.6-1.1,9.6-2,11.7-3v-1.2
					c0-2.3-0.6-4-1.7-5c-1.1-1-3.3-1.5-6.5-1.5c-2.1,0-3.8,0.4-5,1.3C765.3,435.5,764.3,437,763.6,439.1z M778.9,419.6h-7.6
					l-11.9-12.8h13.5L778.9,419.6z M779.7,448.9c-1.5,0.5-4,1.1-7.3,1.8c-3.4,0.7-5.5,1.4-6.6,2.1c-1.6,1.1-2.4,2.5-2.4,4.3
					c0,1.7,0.6,3.2,1.9,4.4c1.3,1.2,2.9,1.8,4.8,1.8c2.2,0,4.3-0.7,6.2-2.1c1.5-1.1,2.4-2.4,2.9-4c0.3-1,0.5-3,0.5-5.9V448.9z"/>
			</g>
			<g class="st2">
				<path class="st3" d="M438.5,519.2h11.3v6.7c1.5-2.3,3.4-4.2,5.9-5.6c2.5-1.4,5.3-2.1,8.3-2.1c5.3,0,9.8,2.1,13.5,6.2
					c3.7,4.2,5.5,9.9,5.5,17.4c0,7.6-1.9,13.5-5.6,17.8c-3.7,4.2-8.2,6.3-13.5,6.3c-2.5,0-4.8-0.5-6.9-1.5c-2-1-4.2-2.7-6.5-5.2v23
					h-12.1V519.2z M450.5,541.3c0,5.1,1,8.9,3.1,11.4c2,2.4,4.5,3.7,7.4,3.7c2.8,0,5.1-1.1,7-3.4c1.9-2.2,2.8-5.9,2.8-11.1
					c0-4.8-1-8.3-2.9-10.7c-1.9-2.3-4.3-3.5-7.1-3.5c-3,0-5.4,1.1-7.3,3.4C451.4,533.4,450.5,536.8,450.5,541.3z"/>
				<path class="st3" d="M520.8,550.3l12,2c-1.5,4.4-4,7.8-7.3,10.1c-3.3,2.3-7.5,3.5-12.5,3.5c-7.9,0-13.8-2.6-17.6-7.8
					c-3-4.2-4.5-9.4-4.5-15.7c0-7.6,2-13.5,5.9-17.8c4-4.3,9-6.4,15-6.4c6.8,0,12.1,2.2,16.1,6.7c3.9,4.5,5.8,11.4,5.6,20.6h-30.3
					c0.1,3.6,1.1,6.4,2.9,8.4c1.9,2,4.2,3,7,3c1.9,0,3.5-0.5,4.8-1.5S520.1,552.6,520.8,550.3z M521.5,538.1c-0.1-3.5-1-6.2-2.7-8
					c-1.7-1.8-3.8-2.7-6.3-2.7c-2.6,0-4.8,1-6.5,2.9c-1.7,1.9-2.6,4.5-2.5,7.8H521.5z"/>
				<path class="st3" d="M566,519.2v9.6h-8.3v18.4c0,3.7,0.1,5.9,0.2,6.5c0.2,0.6,0.5,1.1,1.1,1.5c0.6,0.4,1.2,0.6,2,0.6
					c1.1,0,2.7-0.4,4.9-1.2l1,9.4c-2.8,1.2-6,1.8-9.5,1.8c-2.2,0-4.1-0.4-5.9-1.1c-1.7-0.7-3-1.7-3.8-2.8s-1.4-2.7-1.7-4.7
					c-0.3-1.4-0.4-4.2-0.4-8.5v-19.9h-5.5v-9.6h5.5v-9.1l12.1-7v16.1H566z"/>
				<path class="st3" d="M576.1,513v-11.2h12.1V513H576.1z M576.1,564.9v-45.6h12.1v45.6H576.1z"/>
				<path class="st3" d="M623.3,519.2v9.6H615v18.4c0,3.7,0.1,5.9,0.2,6.5c0.2,0.6,0.5,1.1,1.1,1.5c0.6,0.4,1.2,0.6,2,0.6
					c1.1,0,2.7-0.4,4.9-1.2l1,9.4c-2.8,1.2-6,1.8-9.5,1.8c-2.2,0-4.1-0.4-5.9-1.1c-1.7-0.7-3-1.7-3.8-2.8s-1.4-2.7-1.7-4.7
					c-0.3-1.4-0.4-4.2-0.4-8.5v-19.9h-5.5v-9.6h5.5v-9.1l12.1-7v16.1H623.3z"/>
				<path class="st3" d="M659.8,550.3l12,2c-1.5,4.4-4,7.8-7.3,10.1c-3.3,2.3-7.5,3.5-12.5,3.5c-7.9,0-13.8-2.6-17.6-7.8
					c-3-4.2-4.5-9.4-4.5-15.7c0-7.6,2-13.5,5.9-17.8c4-4.3,9-6.4,15-6.4c6.8,0,12.1,2.2,16.1,6.7c3.9,4.5,5.8,11.4,5.6,20.6h-30.3
					c0.1,3.6,1.1,6.4,2.9,8.4c1.9,2,4.2,3,7,3c1.9,0,3.5-0.5,4.8-1.5S659.2,552.6,659.8,550.3z M660.5,538.1c-0.1-3.5-1-6.2-2.7-8
					c-1.7-1.8-3.8-2.7-6.3-2.7c-2.6,0-4.8,1-6.5,2.9c-1.7,1.9-2.6,4.5-2.5,7.8H660.5z"/>
				<path class="st3" d="M736.8,550.3l12,2c-1.5,4.4-4,7.8-7.3,10.1c-3.3,2.3-7.5,3.5-12.5,3.5c-7.9,0-13.8-2.6-17.6-7.8
					c-3-4.2-4.5-9.4-4.5-15.7c0-7.6,2-13.5,5.9-17.8c4-4.3,9-6.4,15-6.4c6.8,0,12.1,2.2,16.1,6.7c3.9,4.5,5.8,11.4,5.6,20.6h-30.3
					c0.1,3.6,1.1,6.4,2.9,8.4c1.9,2,4.2,3,7,3c1.9,0,3.5-0.5,4.8-1.5S736.1,552.6,736.8,550.3z M737.4,538.1c-0.1-3.5-1-6.2-2.7-8
					c-1.7-1.8-3.8-2.7-6.3-2.7c-2.6,0-4.8,1-6.5,2.9c-1.7,1.9-2.6,4.5-2.5,7.8H737.4z M722,513.6l5.9-12.8h13.5l-11.8,12.8H722z"/>
				<path class="st3" d="M800.8,532.7l-11.9,2.1c-0.4-2.4-1.3-4.2-2.7-5.4s-3.3-1.8-5.5-1.8c-3,0-5.4,1-7.2,3.1
					c-1.8,2.1-2.7,5.6-2.7,10.4c0,5.4,0.9,9.2,2.7,11.5s4.3,3.4,7.3,3.4c2.3,0,4.2-0.7,5.6-2c1.5-1.3,2.5-3.5,3.1-6.7l11.9,2
					c-1.2,5.4-3.6,9.6-7.1,12.3c-3.5,2.8-8.2,4.2-14.1,4.2c-6.7,0-12-2.1-16-6.3s-6-10-6-17.5c0-7.5,2-13.4,6-17.6
					c4-4.2,9.4-6.3,16.2-6.3c5.6,0,10,1.2,13.3,3.6C797,524.2,799.4,527.8,800.8,532.7z"/>
				<path class="st3" d="M823.8,501.9V525c3.9-4.6,8.6-6.8,14-6.8c2.8,0,5.3,0.5,7.5,1.5s3.9,2.3,5,4c1.1,1.6,1.9,3.4,2.3,5.3
					c0.4,1.9,0.6,5,0.6,9.1v26.8h-12.1v-24.1c0-4.8-0.2-7.8-0.7-9.1s-1.3-2.3-2.4-3.1c-1.2-0.8-2.6-1.1-4.4-1.1
					c-2,0-3.8,0.5-5.4,1.5c-1.6,1-2.7,2.4-3.5,4.4c-0.7,2-1.1,4.9-1.1,8.7v22.9h-12.1v-63H823.8z"/>
				<path class="st3" d="M893.7,550.3l12,2c-1.5,4.4-4,7.8-7.3,10.1c-3.3,2.3-7.5,3.5-12.5,3.5c-7.9,0-13.8-2.6-17.6-7.8
					c-3-4.2-4.5-9.4-4.5-15.7c0-7.6,2-13.5,5.9-17.8c4-4.3,9-6.4,15-6.4c6.8,0,12.1,2.2,16.1,6.7c3.9,4.5,5.8,11.4,5.6,20.6h-30.3
					c0.1,3.6,1.1,6.4,2.9,8.4c1.9,2,4.2,3,7,3c1.9,0,3.5-0.5,4.8-1.5S893,552.6,893.7,550.3z M894.4,538.1c-0.1-3.5-1-6.2-2.7-8
					c-1.7-1.8-3.8-2.7-6.3-2.7c-2.6,0-4.8,1-6.5,2.9c-1.7,1.9-2.6,4.5-2.5,7.8H894.4z"/>
				<path class="st3" d="M917.9,564.9v-63H930v63H917.9z"/>
				<path class="st3" d="M944.2,564.9v-63h12.1v63H944.2z"/>
				<path class="st3" d="M996.8,550.3l12,2c-1.5,4.4-4,7.8-7.3,10.1c-3.3,2.3-7.5,3.5-12.5,3.5c-7.9,0-13.8-2.6-17.6-7.8
					c-3-4.2-4.5-9.4-4.5-15.7c0-7.6,2-13.5,5.9-17.8c4-4.3,9-6.4,15-6.4c6.8,0,12.1,2.2,16.1,6.7c3.9,4.5,5.8,11.4,5.6,20.6h-30.3
					c0.1,3.6,1.1,6.4,2.9,8.4c1.9,2,4.2,3,7,3c1.9,0,3.5-0.5,4.8-1.5S996.1,552.6,996.8,550.3z M997.5,538.1c-0.1-3.5-1-6.2-2.7-8
					c-1.7-1.8-3.8-2.7-6.3-2.7c-2.6,0-4.8,1-6.5,2.9c-1.7,1.9-2.6,4.5-2.5,7.8H997.5z"/>
			</g>
		</g>
		<path class="st4" d="M311.8,383.4H207.4l-12.5,71.2c20.8-11.1,40-16.7,57.6-16.7c13.5-0.1,27,2.6,39.4,7.9
			c24.6,10.5,44,30.3,54,55c5.3,13,8,27,7.9,41.1c0,21.2-4.8,40.6-14.3,58c-9.5,17.4-23.8,31.8-41.2,41.5
			c-17.9,10.3-38.6,15.4-62.1,15.4c-26.2,0-47.5-4.8-63.8-14.5c-16.3-9.7-27.9-20.8-34.7-33.3c-6.8-12.5-10.2-23.5-10.2-32.8
			c0-5.7,2.4-11.1,7.1-16.3c4.6-5,11.1-7.8,17.9-7.7c12.3,0,21.5,7.1,27.5,21.3c5.9,13,13.8,23.2,23.7,30.4
			c9.6,7.2,21.4,11,33.4,10.9c11.3,0,21.2-2.9,29.7-8.8c8.7-6.1,15.5-14.5,19.7-24.2c4.6-10.3,6.9-21.9,6.9-34.9
			c0-14.1-2.5-26.1-7.5-36c-5-10-11.6-17.4-20-22.3c-8.5-4.9-18.1-7.5-27.9-7.4c-12.6,0-21.6,1.5-27,4.6s-13.2,8.5-23.4,16.2
			s-18.6,11.5-25.2,11.5c-7.1,0-14-2.8-19.1-7.8c-5.6-5.2-8.3-11.1-8.3-17.7c0-0.7,0.8-5.7,2.4-14.9l18.5-105.2
			c2-12.6,5.9-21.8,11.4-27.5s14.6-8.6,27.2-8.6h116c22.9,0,34.3,8.7,34.3,26.1c0.2,7.1-2.8,13.9-8.3,18.5
			C330.8,381.1,322.5,383.4,311.8,383.4z"/>
	</g>
</g>
</svg>
