<?xml version="1.0" encoding="UTF-8"?> <svg xmlns="http://www.w3.org/2000/svg" viewBox="0 0 1400 988.64"><defs><style>.cls-1{fill:#79ba43;}.cls-2{fill:none;}</style></defs><title>Asset 102</title><g id="Layer_2" data-name="Layer 2"><g id="Layer_1-2" data-name="Layer 1"><path class="cls-1" d="M977.21,221.13c-243.3-114.79-512.49-114.54-725.09-13.72C56.46,300.33,94.37,476.64,335.26,637.27c356.21,237.35,816,291.1,916.61,138.51C1354.77,620,1145.64,300.57,977.21,221.13Z"></path><path class="cls-1" d="M498.44,762.66c50.27-67.8,14.68-137.81-49.95-175.51S227.35,610.7,177.08,678.5,211.72,796.25,276.35,834,448.17,830.46,498.44,762.66Z"></path><path class="cls-1" d="M194.81,531.3c-57.14-3.27-66.43,27.46-67.91,54.49s31.58,30.73,88.61,34S286.37,606,288,578.93,251.94,534.57,194.81,531.3Z"></path><rect class="cls-2" width="1400" height="988.64"></rect></g></g></svg> 