<?xml version="1.0" encoding="utf-8"?>
<!-- Generator: Adobe Illustrator 24.3.0, SVG Export Plug-In . SVG Version: 6.00 Build 0)  -->
<svg version="1.1" id="Layer_1" xmlns="http://www.w3.org/2000/svg" xmlns:xlink="http://www.w3.org/1999/xlink" x="0px" y="0px"
	 viewBox="0 0 1400 988.6" style="enable-background:new 0 0 1400 988.6;" xml:space="preserve">
<style type="text/css">
	.st0{fill:#DBBF25;}
	.st1{enable-background:new    ;}
	.st2{fill:#FFFFFF;}
	.st3{fill:#000E2B;}
	.st4{fill:none;}
</style>
<g id="Layer_2_1_">
	<g id="Layer_1-2">
		<path class="st0" d="M433.5,189.8c229.1-77.5,544.7-88.2,726,44c218.6,159.5,122.1,468.6-162.2,568.7
			c-254.1,89.5-573.4,74.8-776-106.6C55.4,547.6,90.2,306,433.5,189.8z"/>
		<g>
			<g class="st1">
				<path class="st2" d="M505.1,463.9v-63h12.7v63H505.1z"/>
				<path class="st2" d="M573.4,463.9h-11.2v-6.7c-1.9,2.6-4.1,4.5-6.6,5.8s-5.1,1.9-7.7,1.9c-5.2,0-9.7-2.1-13.5-6.3
					c-3.7-4.2-5.6-10.1-5.6-17.7c0-7.7,1.8-13.6,5.5-17.6c3.6-4,8.2-6,13.8-6c5.1,0,9.5,2.1,13.2,6.4V401h12.1V463.9z M541.2,440.1
					c0,4.9,0.7,8.4,2,10.6c1.9,3.2,4.7,4.7,8.2,4.7c2.8,0,5.1-1.2,7.1-3.5c1.9-2.4,2.9-5.9,2.9-10.6c0-5.2-0.9-9-2.8-11.3
					c-1.9-2.3-4.3-3.5-7.3-3.5c-2.9,0-5.3,1.1-7.2,3.4S541.2,435.5,541.2,440.1z"/>
				<path class="st2" d="M613.5,449.3l12,2c-1.5,4.4-4,7.8-7.3,10.1c-3.3,2.3-7.5,3.5-12.5,3.5c-7.9,0-13.8-2.6-17.6-7.8
					c-3-4.2-4.5-9.4-4.5-15.7c0-7.6,2-13.5,5.9-17.8c4-4.3,9-6.4,15-6.4c6.8,0,12.1,2.2,16.1,6.7c3.9,4.5,5.8,11.4,5.6,20.6H596
					c0.1,3.6,1.1,6.4,2.9,8.4c1.9,2,4.2,3,7,3c1.9,0,3.5-0.5,4.8-1.5S612.9,451.6,613.5,449.3z M614.2,437.1c-0.1-3.5-1-6.2-2.7-8
					s-3.8-2.7-6.3-2.7c-2.6,0-4.8,1-6.5,2.9s-2.6,4.5-2.5,7.8L614.2,437.1L614.2,437.1z"/>
				<path class="st2" d="M679.3,463.9h-12.1v-23.3c0-4.9-0.3-8.1-0.8-9.6c-0.5-1.4-1.4-2.6-2.5-3.4c-1.2-0.8-2.6-1.2-4.2-1.2
					c-2.1,0-4,0.6-5.6,1.7c-1.7,1.1-2.8,2.7-3.4,4.6c-0.6,1.9-0.9,5.4-0.9,10.5v20.7h-12.1v-45.6h11.2v6.7c4-5.2,9-7.7,15-7.7
					c2.7,0,5.1,0.5,7.3,1.4c2.2,1,3.9,2.2,5,3.7s1.9,3.2,2.4,5.1c0.4,1.9,0.7,4.6,0.7,8.1L679.3,463.9L679.3,463.9z"/>
				<path class="st2" d="M714.3,418.2v9.6H706v18.4c0,3.7,0.1,5.9,0.2,6.5c0.2,0.6,0.5,1.1,1.1,1.5s1.2,0.6,2,0.6
					c1.1,0,2.7-0.4,4.9-1.2l1,9.4c-2.8,1.2-6,1.8-9.5,1.8c-2.2,0-4.1-0.4-5.9-1.1s-3-1.7-3.8-2.8s-1.4-2.7-1.7-4.7
					c-0.3-1.4-0.4-4.2-0.4-8.5v-19.9h-5.5v-9.6h5.5v-9.1l12.1-7v16.1L714.3,418.2L714.3,418.2z"/>
				<path class="st2" d="M724.4,412v-11.2h12.1V412H724.4z M724.4,463.9v-45.6h12.1v45.6H724.4z"/>
				<path class="st2" d="M745.3,418.2h6.7v-3.4c0-3.8,0.4-6.7,1.2-8.6s2.3-3.4,4.5-4.6s5-1.8,8.3-1.8c3.4,0,6.8,0.5,10.1,1.5
					l-1.6,8.4c-1.9-0.5-3.8-0.7-5.5-0.7s-3,0.4-3.8,1.2s-1.1,2.4-1.1,4.7v3.2h9v9.5h-9v36.1H752v-36.1h-6.7V418.2z"/>
				<path class="st2" d="M781.7,412v-11.2h12.1V412H781.7z M781.7,463.9v-45.6h12.1v45.6H781.7z"/>
				<path class="st2" d="M847.7,431.7l-11.9,2.1c-0.4-2.4-1.3-4.2-2.7-5.4s-3.3-1.8-5.5-1.8c-3,0-5.4,1-7.2,3.1s-2.7,5.6-2.7,10.4
					c0,5.4,0.9,9.2,2.7,11.5c1.8,2.2,4.3,3.4,7.3,3.4c2.3,0,4.2-0.7,5.6-2c1.5-1.3,2.5-3.5,3.1-6.7l11.9,2
					c-1.2,5.4-3.6,9.6-7.1,12.3c-3.5,2.8-8.2,4.2-14.1,4.2c-6.7,0-12-2.1-16-6.3c-4-4.2-6-10-6-17.5s2-13.4,6-17.6s9.4-6.3,16.2-6.3
					c5.6,0,10,1.2,13.3,3.6C843.9,423.2,846.2,426.8,847.7,431.7z"/>
				<path class="st2" d="M867.6,432.1l-11-2c1.2-4.4,3.4-7.7,6.4-9.8c3-2.1,7.5-3.2,13.4-3.2c5.4,0,9.4,0.6,12,1.9s4.5,2.9,5.6,4.9
					s1.6,5.6,1.6,10.8l-0.1,14.1c0,4,0.2,7,0.6,8.9c0.4,1.9,1.1,3.9,2.2,6.1h-11.9c-0.3-0.8-0.7-2-1.2-3.6c-0.2-0.7-0.3-1.2-0.4-1.4
					c-2.1,2-4.3,3.5-6.6,4.5s-4.9,1.5-7.5,1.5c-4.7,0-8.4-1.3-11.1-3.8c-2.7-2.5-4.1-5.8-4.1-9.7c0-2.6,0.6-4.9,1.8-6.9
					s3-3.6,5.2-4.6c2.2-1.1,5.4-2,9.6-2.8c5.6-1.1,9.6-2,11.7-3v-1.2c0-2.3-0.6-4-1.7-5c-1.1-1-3.3-1.5-6.5-1.5
					c-2.1,0-3.8,0.4-5,1.3C869.3,428.5,868.3,430,867.6,432.1z M883.8,441.9c-1.5,0.5-4,1.1-7.3,1.8c-3.4,0.7-5.5,1.4-6.6,2.1
					c-1.6,1.1-2.4,2.5-2.4,4.3c0,1.7,0.6,3.2,1.9,4.4c1.3,1.2,2.9,1.8,4.8,1.8c2.2,0,4.3-0.7,6.2-2.1c1.5-1.1,2.4-2.4,2.9-4
					c0.3-1,0.5-3,0.5-5.9L883.8,441.9L883.8,441.9z"/>
				<path class="st2" d="M930.2,418.2v9.6H922v18.4c0,3.7,0.1,5.9,0.2,6.5c0.2,0.6,0.5,1.1,1.1,1.5s1.2,0.6,2,0.6
					c1.1,0,2.7-0.4,4.9-1.2l1,9.4c-2.8,1.2-6,1.8-9.5,1.8c-2.2,0-4.1-0.4-5.9-1.1s-3-1.7-3.8-2.8s-1.4-2.7-1.7-4.7
					c-0.3-1.4-0.4-4.2-0.4-8.5v-19.9h-5.5v-9.6h5.5v-9.1l12.1-7v16.1L930.2,418.2L930.2,418.2z"/>
				<path class="st2" d="M940.3,412v-11.2h12.1V412H940.3z M940.3,463.9v-45.6h12.1v45.6H940.3z"/>
				<path class="st2" d="M963.8,440.4c0-4,1-7.9,3-11.6c2-3.8,4.8-6.6,8.4-8.6c3.6-2,7.7-3,12.1-3c6.9,0,12.6,2.2,17,6.7
					s6.6,10.1,6.6,17s-2.2,12.6-6.7,17.2c-4.5,4.5-10.1,6.8-16.8,6.8c-4.2,0-8.2-0.9-12-2.8s-6.7-4.7-8.7-8.3
					S963.8,445.6,963.8,440.4z M976.1,441c0,4.5,1.1,8,3.2,10.4s4.8,3.6,7.9,3.6c3.2,0,5.8-1.2,7.9-3.6c2.1-2.4,3.2-5.9,3.2-10.5
					c0-4.5-1.1-7.9-3.2-10.3c-2.1-2.4-4.8-3.6-7.9-3.6c-3.2,0-5.8,1.2-7.9,3.6S976.1,436.5,976.1,441z"/>
				<path class="st2" d="M1063.6,463.9h-12.1v-23.3c0-4.9-0.3-8.1-0.8-9.6c-0.5-1.4-1.4-2.6-2.5-3.4c-1.2-0.8-2.6-1.2-4.2-1.2
					c-2.1,0-4,0.6-5.6,1.7c-1.7,1.1-2.8,2.7-3.4,4.6s-0.9,5.4-0.9,10.5v20.7H1022v-45.6h11.2v6.7c4-5.2,9-7.7,15-7.7
					c2.7,0,5.1,0.5,7.3,1.4c2.2,1,3.9,2.2,5,3.7s1.9,3.2,2.4,5.1c0.4,1.9,0.7,4.6,0.7,8.1V463.9z"/>
			</g>
			<g class="st1">
				<path class="st2" d="M547.2,557.9H536v-6.7c-1.9,2.6-4.1,4.5-6.6,5.8s-5.1,1.9-7.7,1.9c-5.2,0-9.7-2.1-13.5-6.3
					c-3.7-4.2-5.6-10.1-5.6-17.7c0-7.7,1.8-13.6,5.5-17.6c3.6-4,8.2-6,13.8-6c5.1,0,9.5,2.1,13.2,6.4v-22.7h12.1V557.9z M515,534.1
					c0,4.9,0.7,8.4,2,10.6c1.9,3.2,4.7,4.7,8.2,4.7c2.8,0,5.1-1.2,7.1-3.5c1.9-2.4,2.9-5.9,2.9-10.6c0-5.2-0.9-9-2.8-11.3
					c-1.9-2.3-4.3-3.5-7.3-3.5c-2.9,0-5.3,1.1-7.2,3.4S515,529.5,515,534.1z"/>
				<path class="st2" d="M590.1,557.9V551c-1.7,2.4-3.8,4.4-6.6,5.8s-5.6,2.1-8.6,2.1c-3.1,0-5.8-0.7-8.3-2
					c-2.4-1.3-4.2-3.2-5.3-5.7c-1.1-2.4-1.6-5.8-1.6-10.1v-28.9h12.1v21c0,6.4,0.2,10.3,0.7,11.8c0.4,1.4,1.3,2.6,2.4,3.4
					c1.2,0.8,2.7,1.3,4.5,1.3c2.1,0,3.9-0.6,5.5-1.7c1.6-1.1,2.8-2.5,3.4-4.2s0.9-5.8,0.9-12.3v-19.3h12.1v45.6H590.1z"/>
				<path class="st2" d="M639.9,512.2h11.3v6.7c1.5-2.3,3.4-4.2,5.9-5.6c2.5-1.4,5.3-2.1,8.3-2.1c5.3,0,9.8,2.1,13.5,6.2
					c3.7,4.2,5.5,9.9,5.5,17.4c0,7.6-1.9,13.5-5.6,17.8c-3.7,4.2-8.2,6.3-13.5,6.3c-2.5,0-4.8-0.5-6.9-1.5c-2-1-4.2-2.7-6.5-5.2v23
					h-12.1V512.2z M651.8,534.3c0,5.1,1,8.9,3.1,11.4c2,2.4,4.5,3.7,7.4,3.7c2.8,0,5.1-1.1,7-3.4c1.9-2.2,2.8-5.9,2.8-11.1
					c0-4.8-1-8.3-2.9-10.7c-1.9-2.3-4.3-3.5-7.1-3.5c-3,0-5.4,1.1-7.3,3.4C652.8,526.4,651.8,529.8,651.8,534.3z"/>
			</g>
			<g class="st1">
				<path class="st2" d="M708.9,557.9h-12.1v-45.6H708v6.5c1.9-3.1,3.6-5.1,5.2-6.1c1.5-1,3.3-1.5,5.2-1.5c2.8,0,5.4,0.8,7.9,2.3
					l-3.7,10.5c-2-1.3-3.9-2-5.7-2c-1.7,0-3.1,0.5-4.3,1.4c-1.2,0.9-2.1,2.6-2.8,5c-0.7,2.4-1,7.5-1,15.3V557.9z"/>
			</g>
			<g class="st1">
				<path class="st2" d="M729.1,534.4c0-4,1-7.9,3-11.6c2-3.8,4.8-6.6,8.4-8.6c3.6-2,7.7-3,12.1-3c6.9,0,12.6,2.2,17,6.7
					c4.4,4.5,6.6,10.1,6.6,17c0,6.9-2.2,12.6-6.7,17.2c-4.5,4.5-10.1,6.8-16.8,6.8c-4.2,0-8.2-0.9-12-2.8c-3.8-1.9-6.7-4.7-8.7-8.3
					S729.1,539.6,729.1,534.4z M741.5,535c0,4.5,1.1,8,3.2,10.4s4.8,3.6,7.9,3.6c3.2,0,5.8-1.2,7.9-3.6c2.1-2.4,3.2-5.9,3.2-10.5
					c0-4.5-1.1-7.9-3.2-10.3c-2.1-2.4-4.8-3.6-7.9-3.6c-3.2,0-5.8,1.2-7.9,3.6S741.5,530.5,741.5,535z"/>
				<path class="st2" d="M786.1,557.9v-63h12.1v22.7c3.7-4.2,8.1-6.4,13.2-6.4c5.6,0,10.2,2,13.8,6c3.6,4,5.5,9.8,5.5,17.3
					c0,7.8-1.9,13.8-5.6,18c-3.7,4.2-8.2,6.3-13.5,6.3c-2.6,0-5.2-0.7-7.7-2s-4.7-3.2-6.6-5.8v6.7H786.1z M798.1,534.1
					c0,4.7,0.7,8.2,2.2,10.5c2.1,3.2,4.9,4.8,8.3,4.8c2.7,0,4.9-1.1,6.8-3.4c1.9-2.3,2.8-5.9,2.8-10.8c0-5.2-0.9-9-2.8-11.3
					c-1.9-2.3-4.3-3.5-7.3-3.5c-2.9,0-5.3,1.1-7.2,3.4C799,526.1,798.1,529.5,798.1,534.1z"/>
				<path class="st2" d="M841.3,557.9v-63h12.1v63H841.3z"/>
				<path class="st2" d="M893.2,543.3l12,2c-1.5,4.4-4,7.8-7.3,10.1c-3.3,2.3-7.5,3.5-12.5,3.5c-7.9,0-13.8-2.6-17.6-7.8
					c-3-4.2-4.5-9.4-4.5-15.7c0-7.6,2-13.5,5.9-17.8c4-4.3,9-6.4,15-6.4c6.8,0,12.1,2.2,16.1,6.7c3.9,4.5,5.8,11.4,5.6,20.6h-30.3
					c0.1,3.6,1.1,6.4,2.9,8.4c1.9,2,4.2,3,7,3c1.9,0,3.5-0.5,4.8-1.5S892.5,545.6,893.2,543.3z M890.6,506.6H883l-11.9-12.8h13.5
					L890.6,506.6z M893.9,531.1c-0.1-3.5-1-6.2-2.7-8c-1.7-1.8-3.8-2.7-6.3-2.7c-2.6,0-4.8,1-6.5,2.9c-1.7,1.9-2.6,4.5-2.5,7.8
					H893.9z"/>
				<path class="st2" d="M915.8,512.2h11.1v6.2c4-4.8,8.7-7.3,14.2-7.3c2.9,0,5.5,0.6,7.6,1.8s3.9,3,5.3,5.5c2-2.4,4.2-4.3,6.5-5.5
					s4.8-1.8,7.4-1.8c3.4,0,6.2,0.7,8.5,2c2.3,1.4,4.1,3.4,5.2,6c0.8,1.9,1.2,5.1,1.2,9.5v29.2h-12.1v-26.1c0-4.5-0.4-7.4-1.2-8.8
					c-1.1-1.7-2.8-2.6-5.2-2.6c-1.7,0-3.3,0.5-4.8,1.5c-1.5,1-2.6,2.5-3.2,4.5c-0.7,2-1,5.1-1,9.4v21.9h-12.1v-25
					c0-4.4-0.2-7.3-0.6-8.6s-1.1-2.2-2-2.9c-0.9-0.6-2.1-0.9-3.7-0.9c-1.9,0-3.5,0.5-5,1.5c-1.5,1-2.6,2.4-3.2,4.3s-1,5-1,9.4v22.2
					h-12.1V512.2z"/>
				<path class="st2" d="M1022.3,543.3l12,2c-1.5,4.4-4,7.8-7.3,10.1c-3.3,2.3-7.5,3.5-12.5,3.5c-7.9,0-13.8-2.6-17.6-7.8
					c-3-4.2-4.5-9.4-4.5-15.7c0-7.6,2-13.5,5.9-17.8c4-4.3,9-6.4,15-6.4c6.8,0,12.1,2.2,16.1,6.7c3.9,4.5,5.8,11.4,5.6,20.6h-30.3
					c0.1,3.6,1.1,6.4,2.9,8.4c1.9,2,4.2,3,7,3c1.9,0,3.5-0.5,4.8-1.5S1021.6,545.6,1022.3,543.3z M1023,531.1c-0.1-3.5-1-6.2-2.7-8
					c-1.7-1.8-3.8-2.7-6.3-2.7c-2.6,0-4.8,1-6.5,2.9c-1.7,1.9-2.6,4.5-2.5,7.8H1023z"/>
			</g>
		</g>
		<path class="st3" d="M358.7,621.6V424.9C322.1,453,297.4,467,284.8,467c-6.1,0-11.4-2.5-16.1-7.3c-4.5-4.4-7-10.4-7-16.7
			c0-7.4,2.3-12.8,6.9-16.2s12.8-8,24.4-13.4c17.4-8.2,31.3-16.8,41.8-26c10.4-9.1,19.7-19.3,27.7-30.5
			c8.1-11.2,13.3-18.2,15.7-20.8s7.1-3.9,13.9-3.9c7.2-0.2,14.1,3.1,18.4,8.9c4.6,5.9,6.9,14.1,6.9,24.4V613
			c0,28.9-9.8,43.5-29.6,43.5c-8.8,0-15.8-3-21.1-8.8C361.3,641.9,358.7,633.1,358.7,621.6z"/>
		<rect class="st4" width="1400" height="988.6"/>
	</g>
</g>
</svg>
