<?xml version="1.0" encoding="utf-8"?>
<!-- Generator: Adobe Illustrator 24.3.0, SVG Export Plug-In . SVG Version: 6.00 Build 0)  -->
<svg version="1.1" id="Layer_1" xmlns="http://www.w3.org/2000/svg" xmlns:xlink="http://www.w3.org/1999/xlink" x="0px" y="0px"
	 viewBox="0 0 1400 988.6" style="enable-background:new 0 0 1400 988.6;" xml:space="preserve">
<style type="text/css">
	.st0{fill:none;}
	.st1{fill:#DC2B3F;}
	.st2{enable-background:new    ;}
	.st3{fill:#FFFFFF;}
	.st4{fill:#000E2B;}
</style>
<g id="Layer_2_1_">
	<g id="Layer_1-2">
		<rect class="st0" width="1400" height="988.6"/>
		<path class="st1" d="M126.8,441.4c16.5-157.6,229.9-298.2,623.7-306.9c330.4-7.3,523.3-8.9,528.7,213.7s-339.7,504-682.3,511.6
			C308.8,866.1,103.7,662.5,126.8,441.4z"/>
		<path class="st1" d="M1223.1,730.9c-30.4,44.4-128.9,107.3-196.8,80s-95.6-83.6-60.6-149.6s115.2-105.6,188.1-92.4
			C1256.5,587.4,1277.3,651.8,1223.1,730.9z"/>
		<g>
			<g class="st2">
				<path class="st3" d="M437.3,416.9v-63h20.4c7.7,0,12.8,0.3,15.1,0.9c3.6,0.9,6.6,3,9.1,6.2c2.4,3.2,3.7,7.3,3.7,12.3
					c0,3.9-0.7,7.1-2.1,9.8c-1.4,2.6-3.2,4.7-5.3,6.2c-2.2,1.5-4.4,2.5-6.6,3c-3,0.6-7.4,0.9-13.2,0.9h-8.3v23.8H437.3z
					 M450.1,364.5v17.9h7c5,0,8.4-0.3,10.1-1c1.7-0.7,3-1.7,4-3.1c1-1.4,1.4-3,1.4-4.9c0-2.3-0.7-4.2-2-5.7
					c-1.3-1.5-3.1-2.4-5.1-2.8c-1.5-0.3-4.6-0.4-9.2-0.4H450.1z"/>
			</g>
			<g class="st2">
				<path class="st3" d="M509.4,416.9h-12.1v-45.6h11.2v6.5c1.9-3.1,3.6-5.1,5.2-6.1c1.5-1,3.3-1.5,5.2-1.5c2.8,0,5.4,0.8,7.9,2.3
					l-3.7,10.5c-2-1.3-3.9-2-5.7-2c-1.7,0-3.1,0.5-4.3,1.4c-1.2,0.9-2.1,2.6-2.8,5c-0.7,2.4-1,7.5-1,15.3V416.9z"/>
			</g>
			<g class="st2">
				<path class="st3" d="M529.7,393.4c0-4,1-7.9,3-11.6c2-3.8,4.8-6.6,8.4-8.6c3.6-2,7.7-3,12.1-3c6.9,0,12.6,2.2,17,6.7
					c4.4,4.5,6.6,10.1,6.6,17c0,6.9-2.2,12.6-6.7,17.2c-4.5,4.5-10.1,6.8-16.8,6.8c-4.2,0-8.2-0.9-12-2.8c-3.8-1.9-6.7-4.7-8.7-8.3
					S529.7,398.6,529.7,393.4z M542,394c0,4.5,1.1,8,3.2,10.4s4.8,3.6,7.9,3.6c3.2,0,5.8-1.2,7.9-3.6c2.1-2.4,3.2-5.9,3.2-10.5
					c0-4.5-1.1-7.9-3.2-10.3c-2.1-2.4-4.8-3.6-7.9-3.6c-3.2,0-5.8,1.2-7.9,3.6S542,389.5,542,394z"/>
				<path class="st3" d="M587.6,371.2h11.3v6.7c1.5-2.3,3.4-4.2,5.9-5.6c2.5-1.4,5.3-2.1,8.3-2.1c5.3,0,9.8,2.1,13.5,6.2
					c3.7,4.2,5.5,9.9,5.5,17.4c0,7.6-1.9,13.5-5.6,17.8c-3.7,4.2-8.2,6.3-13.5,6.3c-2.5,0-4.8-0.5-6.9-1.5c-2-1-4.2-2.7-6.5-5.2v23
					h-12.1V371.2z M599.6,393.3c0,5.1,1,8.9,3.1,11.4c2,2.4,4.5,3.7,7.4,3.7c2.8,0,5.1-1.1,7-3.4c1.9-2.2,2.8-5.9,2.8-11.1
					c0-4.8-1-8.3-2.9-10.7c-1.9-2.3-4.3-3.5-7.1-3.5c-3,0-5.4,1.1-7.3,3.4C600.6,385.4,599.6,388.8,599.6,393.3z"/>
				<path class="st3" d="M640.7,393.4c0-4,1-7.9,3-11.6c2-3.8,4.8-6.6,8.4-8.6c3.6-2,7.7-3,12.1-3c6.9,0,12.6,2.2,17,6.7
					c4.4,4.5,6.6,10.1,6.6,17c0,6.9-2.2,12.6-6.7,17.2c-4.5,4.5-10.1,6.8-16.8,6.8c-4.2,0-8.2-0.9-12-2.8c-3.8-1.9-6.7-4.7-8.7-8.3
					S640.7,398.6,640.7,393.4z M653.1,394c0,4.5,1.1,8,3.2,10.4s4.8,3.6,7.9,3.6c3.2,0,5.8-1.2,7.9-3.6c2.1-2.4,3.2-5.9,3.2-10.5
					c0-4.5-1.1-7.9-3.2-10.3c-2.1-2.4-4.8-3.6-7.9-3.6c-3.2,0-5.8,1.2-7.9,3.6S653.1,389.5,653.1,394z"/>
				<path class="st3" d="M694.8,403.8l12.1-1.8c0.5,2.3,1.6,4.1,3.1,5.3c1.6,1.2,3.8,1.8,6.6,1.8c3.1,0,5.5-0.6,7-1.7
					c1.1-0.8,1.6-1.9,1.6-3.2c0-0.9-0.3-1.7-0.9-2.3c-0.6-0.6-1.9-1.1-4-1.6c-9.7-2.1-15.9-4.1-18.5-5.9c-3.6-2.5-5.4-5.9-5.4-10.3
					c0-4,1.6-7.3,4.7-10c3.1-2.7,8-4,14.5-4c6.2,0,10.9,1,13.9,3.1c3,2,5.1,5,6.3,9l-11.4,2.1c-0.5-1.8-1.4-3.1-2.8-4.1
					s-3.3-1.4-5.8-1.4c-3.2,0-5.5,0.4-6.8,1.3c-0.9,0.6-1.4,1.4-1.4,2.4c0,0.9,0.4,1.6,1.2,2.2c1.1,0.8,4.8,1.9,11.3,3.4
					s10.9,3.3,13.5,5.4c2.5,2.1,3.8,5.1,3.8,9c0,4.2-1.7,7.8-5.2,10.8s-8.7,4.5-15.5,4.5c-6.2,0-11.1-1.3-14.8-3.8
					C698.2,411.6,695.9,408.2,694.8,403.8z"/>
				<path class="st3" d="M749.7,365v-11.2h12.1V365H749.7z M749.7,416.9v-45.6h12.1v45.6H749.7z"/>
				<path class="st3" d="M796.8,371.2v9.6h-8.3v18.4c0,3.7,0.1,5.9,0.2,6.5c0.2,0.6,0.5,1.1,1.1,1.5c0.6,0.4,1.2,0.6,2,0.6
					c1.1,0,2.7-0.4,4.9-1.2l1,9.4c-2.8,1.2-6,1.8-9.5,1.8c-2.2,0-4.1-0.4-5.9-1.1c-1.7-0.7-3-1.7-3.8-2.8s-1.4-2.7-1.7-4.7
					c-0.3-1.4-0.4-4.2-0.4-8.5v-19.9h-5.5v-9.6h5.5v-9.1l12.1-7v16.1H796.8z"/>
				<path class="st3" d="M807,365v-11.2h12.1V365H807z M807,416.9v-45.6h12.1v45.6H807z"/>
				<path class="st3" d="M830.4,393.4c0-4,1-7.9,3-11.6c2-3.8,4.8-6.6,8.4-8.6s7.7-3,12.1-3c6.9,0,12.6,2.2,17,6.7
					c4.4,4.5,6.6,10.1,6.6,17c0,6.9-2.2,12.6-6.7,17.2c-4.5,4.5-10.1,6.8-16.8,6.8c-4.2,0-8.2-0.9-12-2.8s-6.7-4.7-8.7-8.3
					S830.4,398.6,830.4,393.4z M842.8,394c0,4.5,1.1,8,3.2,10.4s4.8,3.6,7.9,3.6s5.8-1.2,7.9-3.6s3.2-5.9,3.2-10.5
					c0-4.5-1.1-7.9-3.2-10.3s-4.8-3.6-7.9-3.6s-5.8,1.2-7.9,3.6S842.8,389.5,842.8,394z"/>
				<path class="st3" d="M930.2,416.9h-12.1v-23.3c0-4.9-0.3-8.1-0.8-9.6c-0.5-1.4-1.4-2.6-2.5-3.4c-1.2-0.8-2.6-1.2-4.2-1.2
					c-2.1,0-4,0.6-5.6,1.7c-1.7,1.1-2.8,2.7-3.4,4.6c-0.6,1.9-0.9,5.4-0.9,10.5v20.7h-12.1v-45.6h11.2v6.7c4-5.2,9-7.7,15-7.7
					c2.7,0,5.1,0.5,7.3,1.4c2.2,1,3.9,2.2,5,3.7c1.1,1.5,1.9,3.2,2.4,5.1c0.4,1.9,0.7,4.6,0.7,8.1V416.9z"/>
			</g>
			<g class="st2">
				<path class="st3" d="M479.1,510.9h-11.2v-6.7c-1.9,2.6-4.1,4.5-6.6,5.8s-5.1,1.9-7.7,1.9c-5.2,0-9.7-2.1-13.5-6.3
					c-3.7-4.2-5.6-10.1-5.6-17.7c0-7.7,1.8-13.6,5.5-17.6c3.6-4,8.2-6,13.8-6c5.1,0,9.5,2.1,13.2,6.4v-22.7h12.1V510.9z
					 M446.9,487.1c0,4.9,0.7,8.4,2,10.6c1.9,3.2,4.7,4.7,8.2,4.7c2.8,0,5.1-1.2,7.1-3.5c1.9-2.4,2.9-5.9,2.9-10.6
					c0-5.2-0.9-9-2.8-11.3c-1.9-2.3-4.3-3.5-7.3-3.5c-2.9,0-5.3,1.1-7.2,3.4S446.9,482.5,446.9,487.1z"/>
				<path class="st3" d="M492.7,470.3l-2.3-11.7v-10.7h13.1v10.7l-2,11.7H492.7z"/>
				<path class="st3" d="M512.7,487.4c0-4,1-7.9,3-11.6c2-3.8,4.8-6.6,8.4-8.6c3.6-2,7.7-3,12.1-3c6.9,0,12.6,2.2,17,6.7
					c4.4,4.5,6.6,10.1,6.6,17c0,6.9-2.2,12.6-6.7,17.2c-4.5,4.5-10.1,6.8-16.8,6.8c-4.2,0-8.2-0.9-12-2.8c-3.8-1.9-6.7-4.7-8.7-8.3
					S512.7,492.6,512.7,487.4z M525,488c0,4.5,1.1,8,3.2,10.4s4.8,3.6,7.9,3.6c3.2,0,5.8-1.2,7.9-3.6c2.1-2.4,3.2-5.9,3.2-10.5
					c0-4.5-1.1-7.9-3.2-10.3c-2.1-2.4-4.8-3.6-7.9-3.6c-3.2,0-5.8,1.2-7.9,3.6S525,483.5,525,488z"/>
				<path class="st3" d="M570.6,465.2h11.3v6.7c1.5-2.3,3.4-4.2,5.9-5.6c2.5-1.4,5.3-2.1,8.3-2.1c5.3,0,9.8,2.1,13.5,6.2
					c3.7,4.2,5.5,9.9,5.5,17.4c0,7.6-1.9,13.5-5.6,17.8c-3.7,4.2-8.2,6.3-13.5,6.3c-2.5,0-4.8-0.5-6.9-1.5c-2-1-4.2-2.7-6.5-5.2v23
					h-12.1V465.2z M582.6,487.3c0,5.1,1,8.9,3.1,11.4c2,2.4,4.5,3.7,7.4,3.7c2.8,0,5.1-1.1,7-3.4c1.9-2.2,2.8-5.9,2.8-11.1
					c0-4.8-1-8.3-2.9-10.7c-1.9-2.3-4.3-3.5-7.1-3.5c-3,0-5.4,1.1-7.3,3.4C583.5,479.4,582.6,482.8,582.6,487.3z"/>
				<path class="st3" d="M647.4,465.2v9.6h-8.3v18.4c0,3.7,0.1,5.9,0.2,6.5c0.2,0.6,0.5,1.1,1.1,1.5c0.6,0.4,1.2,0.6,2,0.6
					c1.1,0,2.7-0.4,4.9-1.2l1,9.4c-2.8,1.2-6,1.8-9.5,1.8c-2.2,0-4.1-0.4-5.9-1.1c-1.7-0.7-3-1.7-3.8-2.8s-1.4-2.7-1.7-4.7
					c-0.3-1.4-0.4-4.2-0.4-8.5v-19.9h-5.5v-9.6h5.5v-9.1l12.1-7v16.1H647.4z"/>
				<path class="st3" d="M657.5,459v-11.2h12.1V459H657.5z M657.5,510.9v-45.6h12.1v45.6H657.5z"/>
				<path class="st3" d="M681,487.4c0-4,1-7.9,3-11.6c2-3.8,4.8-6.6,8.4-8.6c3.6-2,7.7-3,12.1-3c6.9,0,12.6,2.2,17,6.7
					c4.4,4.5,6.6,10.1,6.6,17c0,6.9-2.2,12.6-6.7,17.2c-4.5,4.5-10.1,6.8-16.8,6.8c-4.2,0-8.2-0.9-12-2.8c-3.8-1.9-6.7-4.7-8.7-8.3
					S681,492.6,681,487.4z M693.3,488c0,4.5,1.1,8,3.2,10.4s4.8,3.6,7.9,3.6c3.2,0,5.8-1.2,7.9-3.6c2.1-2.4,3.2-5.9,3.2-10.5
					c0-4.5-1.1-7.9-3.2-10.3c-2.1-2.4-4.8-3.6-7.9-3.6c-3.2,0-5.8,1.2-7.9,3.6S693.3,483.5,693.3,488z"/>
				<path class="st3" d="M780.8,510.9h-12.1v-23.3c0-4.9-0.3-8.1-0.8-9.6c-0.5-1.4-1.4-2.6-2.5-3.4c-1.2-0.8-2.6-1.2-4.2-1.2
					c-2.1,0-4,0.6-5.6,1.7c-1.7,1.1-2.8,2.7-3.4,4.6c-0.6,1.9-0.9,5.4-0.9,10.5v20.7h-12.1v-45.6h11.2v6.7c4-5.2,9-7.7,15-7.7
					c2.7,0,5.1,0.5,7.3,1.4c2.2,1,3.9,2.2,5,3.7c1.1,1.5,1.9,3.2,2.4,5.1c0.4,1.9,0.7,4.6,0.7,8.1V510.9z"/>
				<path class="st3" d="M790.5,497.8l12.1-1.8c0.5,2.3,1.6,4.1,3.1,5.3c1.6,1.2,3.8,1.8,6.6,1.8c3.1,0,5.5-0.6,7-1.7
					c1.1-0.8,1.6-1.9,1.6-3.2c0-0.9-0.3-1.7-0.9-2.3c-0.6-0.6-1.9-1.1-4-1.6c-9.7-2.1-15.9-4.1-18.5-5.9c-3.6-2.5-5.4-5.9-5.4-10.3
					c0-4,1.6-7.3,4.7-10c3.1-2.7,8-4,14.5-4c6.2,0,10.9,1,13.9,3.1c3,2,5.1,5,6.3,9l-11.4,2.1c-0.5-1.8-1.4-3.1-2.8-4.1
					s-3.3-1.4-5.8-1.4c-3.2,0-5.5,0.4-6.8,1.3c-0.9,0.6-1.4,1.4-1.4,2.4c0,0.9,0.4,1.6,1.2,2.2c1.1,0.8,4.8,1.9,11.3,3.4
					s10.9,3.3,13.5,5.4c2.5,2.1,3.8,5.1,3.8,9c0,4.2-1.7,7.8-5.2,10.8s-8.7,4.5-15.5,4.5c-6.2,0-11.1-1.3-14.8-3.8
					C794,505.6,791.6,502.2,790.5,497.8z"/>
			</g>
			<g class="st2">
				<path class="st3" d="M479.1,604.9h-11.2v-6.7c-1.9,2.6-4.1,4.5-6.6,5.8s-5.1,1.9-7.7,1.9c-5.2,0-9.7-2.1-13.5-6.3
					c-3.7-4.2-5.6-10.1-5.6-17.7c0-7.7,1.8-13.6,5.5-17.6c3.6-4,8.2-6,13.8-6c5.1,0,9.5,2.1,13.2,6.4v-22.7h12.1V604.9z
					 M446.9,581.1c0,4.9,0.7,8.4,2,10.6c1.9,3.2,4.7,4.7,8.2,4.7c2.8,0,5.1-1.2,7.1-3.5c1.9-2.4,2.9-5.9,2.9-10.6
					c0-5.2-0.9-9-2.8-11.3c-1.9-2.3-4.3-3.5-7.3-3.5c-2.9,0-5.3,1.1-7.2,3.4S446.9,576.5,446.9,581.1z"/>
				<path class="st3" d="M519.2,590.3l12,2c-1.5,4.4-4,7.8-7.3,10.1c-3.3,2.3-7.5,3.5-12.5,3.5c-7.9,0-13.8-2.6-17.6-7.8
					c-3-4.2-4.5-9.4-4.5-15.7c0-7.6,2-13.5,5.9-17.8c4-4.3,9-6.4,15-6.4c6.8,0,12.1,2.2,16.1,6.7c3.9,4.5,5.8,11.4,5.6,20.6h-30.3
					c0.1,3.6,1.1,6.4,2.9,8.4c1.9,2,4.2,3,7,3c1.9,0,3.5-0.5,4.8-1.5S518.5,592.6,519.2,590.3z M519.9,578.1c-0.1-3.5-1-6.2-2.7-8
					c-1.7-1.8-3.8-2.7-6.3-2.7c-2.6,0-4.8,1-6.5,2.9c-1.7,1.9-2.6,4.5-2.5,7.8H519.9z"/>
			</g>
			<g class="st2">
				<path class="st3" d="M583.4,604.9h-12.1v-45.6h11.2v6.5c1.9-3.1,3.6-5.1,5.2-6.1c1.5-1,3.3-1.5,5.2-1.5c2.8,0,5.4,0.8,7.9,2.3
					l-3.7,10.5c-2-1.3-3.9-2-5.7-2c-1.7,0-3.1,0.5-4.3,1.4c-1.2,0.9-2.1,2.6-2.8,5c-0.7,2.4-1,7.5-1,15.3V604.9z"/>
			</g>
			<g class="st2">
				<path class="st3" d="M632.8,590.3l12,2c-1.5,4.4-4,7.8-7.3,10.1c-3.3,2.3-7.5,3.5-12.5,3.5c-7.9,0-13.8-2.6-17.6-7.8
					c-3-4.2-4.5-9.4-4.5-15.7c0-7.6,2-13.5,5.9-17.8c4-4.3,9-6.4,15-6.4c6.8,0,12.1,2.2,16.1,6.7c3.9,4.5,5.8,11.4,5.6,20.6h-30.3
					c0.1,3.6,1.1,6.4,2.9,8.4c1.9,2,4.2,3,7,3c1.9,0,3.5-0.5,4.8-1.5S632.1,592.6,632.8,590.3z M633.5,578.1c-0.1-3.5-1-6.2-2.7-8
					c-1.7-1.8-3.8-2.7-6.3-2.7c-2.6,0-4.8,1-6.5,2.9c-1.7,1.9-2.6,4.5-2.5,7.8H633.5z"/>
				<path class="st3" d="M696.9,572.7l-11.9,2.1c-0.4-2.4-1.3-4.2-2.7-5.4s-3.3-1.8-5.5-1.8c-3,0-5.4,1-7.2,3.1
					c-1.8,2.1-2.7,5.6-2.7,10.4c0,5.4,0.9,9.2,2.7,11.5c1.8,2.2,4.3,3.4,7.3,3.4c2.3,0,4.2-0.7,5.6-2c1.5-1.3,2.5-3.5,3.1-6.7
					l11.9,2c-1.2,5.4-3.6,9.6-7.1,12.3c-3.5,2.8-8.2,4.2-14.1,4.2c-6.7,0-12-2.1-16-6.3c-4-4.2-6-10-6-17.5c0-7.5,2-13.4,6-17.6
					c4-4.2,9.4-6.3,16.2-6.3c5.6,0,10,1.2,13.3,3.6C693.1,564.2,695.4,567.8,696.9,572.7z"/>
				<path class="st3" d="M719.8,541.9V565c3.9-4.6,8.6-6.8,14-6.8c2.8,0,5.3,0.5,7.5,1.5s3.9,2.3,5,4c1.1,1.6,1.9,3.4,2.3,5.3
					c0.4,1.9,0.6,5,0.6,9.1v26.8h-12.1v-24.1c0-4.8-0.2-7.8-0.7-9.1c-0.5-1.3-1.3-2.3-2.4-3.1c-1.2-0.8-2.6-1.1-4.4-1.1
					c-2,0-3.8,0.5-5.4,1.5c-1.6,1-2.7,2.4-3.5,4.4c-0.7,2-1.1,4.9-1.1,8.7v22.9h-12.1v-63H719.8z"/>
				<path class="st3" d="M772.3,573.1l-11-2c1.2-4.4,3.4-7.7,6.4-9.8c3-2.1,7.5-3.2,13.4-3.2c5.4,0,9.4,0.6,12,1.9
					c2.6,1.3,4.5,2.9,5.6,4.9c1.1,2,1.6,5.6,1.6,10.8l-0.1,14.1c0,4,0.2,7,0.6,8.9c0.4,1.9,1.1,3.9,2.2,6.1H791
					c-0.3-0.8-0.7-2-1.2-3.6c-0.2-0.7-0.3-1.2-0.4-1.4c-2.1,2-4.3,3.5-6.6,4.5c-2.3,1-4.9,1.5-7.5,1.5c-4.7,0-8.4-1.3-11.1-3.8
					c-2.7-2.5-4.1-5.8-4.1-9.7c0-2.6,0.6-4.9,1.8-6.9c1.2-2,3-3.6,5.2-4.6c2.2-1.1,5.4-2,9.6-2.8c5.6-1.1,9.6-2,11.7-3v-1.2
					c0-2.3-0.6-4-1.7-5c-1.1-1-3.3-1.5-6.5-1.5c-2.1,0-3.8,0.4-5,1.3C774,569.5,773.1,571,772.3,573.1z M788.5,582.9
					c-1.5,0.5-4,1.1-7.3,1.8c-3.4,0.7-5.5,1.4-6.6,2.1c-1.6,1.1-2.4,2.5-2.4,4.3c0,1.7,0.6,3.2,1.9,4.4c1.3,1.2,2.9,1.8,4.8,1.8
					c2.2,0,4.3-0.7,6.2-2.1c1.5-1.1,2.4-2.4,2.9-4c0.3-1,0.5-3,0.5-5.9V582.9z"/>
				<path class="st3" d="M855.5,604.9h-12.1v-23.3c0-4.9-0.3-8.1-0.8-9.6c-0.5-1.4-1.4-2.6-2.5-3.4c-1.2-0.8-2.6-1.2-4.2-1.2
					c-2.1,0-4,0.6-5.6,1.7c-1.7,1.1-2.8,2.7-3.4,4.6s-0.9,5.4-0.9,10.5v20.7h-12.1v-45.6h11.2v6.7c4-5.2,9-7.7,15-7.7
					c2.7,0,5.1,0.5,7.3,1.4c2.2,1,3.9,2.2,5,3.7c1.1,1.5,1.9,3.2,2.4,5.1s0.7,4.6,0.7,8.1V604.9z"/>
				<path class="st3" d="M868.4,607.9l13.8,1.7c0.2,1.6,0.8,2.7,1.6,3.3c1.1,0.9,3,1.3,5.4,1.3c3.2,0,5.5-0.5,7.1-1.4
					c1.1-0.6,1.9-1.6,2.4-3.1c0.4-1,0.6-2.9,0.6-5.5v-6.7c-3.6,4.9-8.2,7.4-13.7,7.4c-6.1,0-11-2.6-14.6-7.8
					c-2.8-4.1-4.2-9.2-4.2-15.3c0-7.6,1.8-13.5,5.5-17.5s8.3-6.1,13.7-6.1c5.6,0,10.3,2.5,14,7.4v-6.4h11.3v40.9
					c0,5.4-0.4,9.4-1.3,12.1s-2.1,4.8-3.7,6.3c-1.6,1.5-3.7,2.7-6.4,3.6s-6.1,1.3-10.2,1.3c-7.7,0-13.2-1.3-16.5-4
					c-3.2-2.7-4.9-6-4.9-10.1C868.3,608.9,868.4,608.4,868.4,607.9z M879.2,581.1c0,4.8,0.9,8.4,2.8,10.6c1.9,2.2,4.2,3.4,6.9,3.4
					c3,0,5.4-1.2,7.5-3.5c2-2.3,3.1-5.7,3.1-10.2c0-4.7-1-8.2-2.9-10.5c-1.9-2.3-4.4-3.4-7.4-3.4c-2.9,0-5.3,1.1-7.2,3.4
					C880.1,573.1,879.2,576.5,879.2,581.1z"/>
				<path class="st3" d="M951.4,590.3l12,2c-1.5,4.4-4,7.8-7.3,10.1c-3.3,2.3-7.5,3.5-12.5,3.5c-7.9,0-13.8-2.6-17.6-7.8
					c-3-4.2-4.5-9.4-4.5-15.7c0-7.6,2-13.5,5.9-17.8c4-4.3,9-6.4,15-6.4c6.8,0,12.1,2.2,16.1,6.7c3.9,4.5,5.8,11.4,5.6,20.6h-30.3
					c0.1,3.6,1.1,6.4,2.9,8.4c1.9,2,4.2,3,7,3c1.9,0,3.5-0.5,4.8-1.5S950.8,592.6,951.4,590.3z M952.1,578.1c-0.1-3.5-1-6.2-2.7-8
					c-1.7-1.8-3.8-2.7-6.3-2.7c-2.6,0-4.8,1-6.5,2.9c-1.7,1.9-2.6,4.5-2.5,7.8H952.1z"/>
			</g>
		</g>
		<path class="st4" d="M273.5,623.8v-40H165.8c-13.6,0-23.8-3-30.6-9.2S125,560.1,125,549.5c0-2.8,0.5-5.6,1.5-8.3
			c1.1-3.1,2.7-6,4.5-8.8c2-3,4.1-6.1,6.3-8.9s4.8-6.4,7.9-10.6L259,360.8c7.4-10.1,13.6-17.3,18.4-21.8c4.7-4.4,10.9-6.9,17.3-6.7
			c21.8,0,32.7,12.4,32.6,37.3v166.2h9.2c11,0,19.8,1.5,26.5,4.5s10,9.6,10,19.7c0,8.3-2.7,14.4-8.1,18.2s-13.6,5.7-24.4,5.7h-13.1
			v40c0,11-2.4,19.2-7.3,24.6c-4.9,5.4-11.3,8-19.5,8c-8,0-14.5-2.7-19.4-8.3S273.5,634.5,273.5,623.8z M181.2,535.8h92.3V411
			L181.2,535.8z"/>
	</g>
</g>
</svg>
