<?xml version="1.0" encoding="UTF-8"?> <svg xmlns="http://www.w3.org/2000/svg" viewBox="0 0 1400 988.64"><defs><style>.cls-1{fill:none;}.cls-2{fill:#dbbf25;}</style></defs><title>Asset 145</title><g id="Layer_2" data-name="Layer 2"><g id="Layer_1-2" data-name="Layer 1"><rect class="cls-1" width="1400" height="988.64"></rect><path class="cls-2" d="M151,589.82c78,122.3,147.18,95.1,264.52,154.3,175.29,88.5,155.46,170.2,470,59.7,347.61-122.1,457.49-344.3,359.27-511.6S844.43,94.72,555,181.32C278.59,263.92,45.14,423.72,151,589.82Z"></path><path class="cls-2" d="M435.17,694.83c-58.5-69.1-113.6-44.2-192.6-33.2-82.8,11.5-154.8,45.6-96.3,114.8s183.4,80.7,246.2,39.7S493.67,763.93,435.17,694.83Z"></path><path class="cls-2" d="M554.92,816c1.4-25-10.9-61.5-46.5-63.6s-42.1,12.5-43.6,37.5-4.2,66.1,31.4,68.1S553.52,841,554.92,816Z"></path></g></g></svg> 