<?xml version="1.0" encoding="utf-8"?>
<!-- Generator: Adobe Illustrator 24.3.0, SVG Export Plug-In . SVG Version: 6.00 Build 0)  -->
<svg version="1.1" id="Layer_1" xmlns="http://www.w3.org/2000/svg" xmlns:xlink="http://www.w3.org/1999/xlink" x="0px" y="0px"
	 viewBox="0 0 1400 988.6" style="enable-background:new 0 0 1400 988.6;" xml:space="preserve">
<style type="text/css">
	.st0{fill:#79BA43;}
	.st1{enable-background:new    ;}
	.st2{fill:#FFFFFF;}
	.st3{fill:#000E2B;}
	.st4{fill:none;}
</style>
<g id="Layer_2_1_">
	<g id="Layer_1-2">
		<path class="st0" d="M428.8,221.1c243.3-114.8,512.5-114.5,725.1-13.7c195.7,92.9,157.8,269.2-83.2,429.9
			c-356.2,237.3-816,291.1-916.6,138.5C51.3,620,260.4,300.6,428.8,221.1z"/>
		<path class="st0" d="M907.6,762.7c-50.3-67.8-14.7-137.8,50-175.5s221.1,23.5,271.4,91.3s-34.6,117.8-99.3,155.5
			S957.8,830.5,907.6,762.7z"/>
		<path class="st0" d="M1211.2,531.3c57.1-3.3,66.4,27.5,67.9,54.5s-31.6,30.7-88.6,34s-70.9-13.8-72.4-40.9
			S1154.1,534.6,1211.2,531.3z"/>
		<g>
			<g class="st1">
				<path class="st2" d="M440.3,424.9v-63h43.2v10.7H453v14.9h26.3v10.7H453v26.8H440.3z"/>
				<path class="st2" d="M492.8,401.4c0-4,1-7.9,3-11.6c2-3.8,4.8-6.6,8.4-8.6c3.6-2,7.7-3,12.1-3c6.9,0,12.6,2.2,17,6.7
					c4.4,4.5,6.6,10.1,6.6,17c0,6.9-2.2,12.6-6.7,17.2c-4.5,4.5-10.1,6.8-16.8,6.8c-4.2,0-8.2-0.9-12-2.8c-3.8-1.9-6.7-4.7-8.7-8.3
					S492.8,406.6,492.8,401.4z M505.2,402c0,4.5,1.1,8,3.2,10.4s4.8,3.6,7.9,3.6c3.2,0,5.8-1.2,7.9-3.6c2.1-2.4,3.2-5.9,3.2-10.5
					c0-4.5-1.1-7.9-3.2-10.3c-2.1-2.4-4.8-3.6-7.9-3.6c-3.2,0-5.8,1.2-7.9,3.6S505.2,397.5,505.2,402z"/>
				<path class="st2" d="M562.7,424.9h-12.1v-45.6h11.2v6.5c1.9-3.1,3.6-5.1,5.2-6.1c1.5-1,3.3-1.5,5.2-1.5c2.8,0,5.4,0.8,7.9,2.3
					l-3.7,10.5c-2-1.3-3.9-2-5.7-2c-1.7,0-3.1,0.5-4.3,1.4c-1.2,0.9-2.1,2.6-2.8,5c-0.7,2.4-1,7.5-1,15.3V424.9z"/>
				<path class="st2" d="M586.3,379.2h11.1v6.2c4-4.8,8.7-7.3,14.2-7.3c2.9,0,5.5,0.6,7.6,1.8s3.9,3,5.3,5.5c2-2.4,4.2-4.3,6.5-5.5
					s4.8-1.8,7.4-1.8c3.4,0,6.2,0.7,8.5,2c2.3,1.4,4.1,3.4,5.2,6c0.8,1.9,1.2,5.1,1.2,9.5v29.2h-12.1v-26.1c0-4.5-0.4-7.4-1.2-8.8
					c-1.1-1.7-2.8-2.6-5.2-2.6c-1.7,0-3.3,0.5-4.8,1.5c-1.5,1-2.6,2.5-3.2,4.5c-0.7,2-1,5.1-1,9.4v21.9h-12.1v-25
					c0-4.4-0.2-7.3-0.6-8.6s-1.1-2.2-2-2.9c-0.9-0.6-2.1-0.9-3.7-0.9c-1.9,0-3.5,0.5-5,1.5c-1.5,1-2.6,2.4-3.2,4.3s-1,5-1,9.4v22.2
					h-12.1V379.2z"/>
				<path class="st2" d="M676.2,393.1l-11-2c1.2-4.4,3.4-7.7,6.4-9.8c3-2.1,7.5-3.2,13.4-3.2c5.4,0,9.4,0.6,12,1.9
					c2.6,1.3,4.5,2.9,5.6,4.9c1.1,2,1.6,5.6,1.6,10.8l-0.1,14.1c0,4,0.2,7,0.6,8.9c0.4,1.9,1.1,3.9,2.2,6.1h-11.9
					c-0.3-0.8-0.7-2-1.2-3.6c-0.2-0.7-0.3-1.2-0.4-1.4c-2.1,2-4.3,3.5-6.6,4.5c-2.3,1-4.9,1.5-7.5,1.5c-4.7,0-8.4-1.3-11.1-3.8
					c-2.7-2.5-4.1-5.8-4.1-9.7c0-2.6,0.6-4.9,1.8-6.9c1.2-2,3-3.6,5.2-4.6c2.2-1.1,5.4-2,9.6-2.8c5.6-1.1,9.6-2,11.7-3v-1.2
					c0-2.3-0.6-4-1.7-5c-1.1-1-3.3-1.5-6.5-1.5c-2.1,0-3.8,0.4-5,1.3C677.9,389.5,676.9,391,676.2,393.1z M692.3,402.9
					c-1.5,0.5-4,1.1-7.3,1.8c-3.4,0.7-5.5,1.4-6.6,2.1c-1.6,1.1-2.4,2.5-2.4,4.3c0,1.7,0.6,3.2,1.9,4.4c1.3,1.2,2.9,1.8,4.8,1.8
					c2.2,0,4.3-0.7,6.2-2.1c1.5-1.1,2.4-2.4,2.9-4c0.3-1,0.5-3,0.5-5.9V402.9z"/>
				<path class="st2" d="M738.8,379.2v9.6h-8.3v18.4c0,3.7,0.1,5.9,0.2,6.5c0.2,0.6,0.5,1.1,1.1,1.5c0.6,0.4,1.2,0.6,2,0.6
					c1.1,0,2.7-0.4,4.9-1.2l1,9.4c-2.8,1.2-6,1.8-9.5,1.8c-2.2,0-4.1-0.4-5.9-1.1s-3-1.7-3.8-2.8s-1.4-2.7-1.7-4.7
					c-0.3-1.4-0.4-4.2-0.4-8.5v-19.9h-5.5v-9.6h5.5v-9.1l12.1-7v16.1H738.8z"/>
				<path class="st2" d="M748.9,373v-11.2H761V373H748.9z M748.9,424.9v-45.6H761v45.6H748.9z"/>
				<path class="st2" d="M772.3,401.4c0-4,1-7.9,3-11.6c2-3.8,4.8-6.6,8.4-8.6c3.6-2,7.7-3,12.1-3c6.9,0,12.6,2.2,17,6.7
					c4.4,4.5,6.6,10.1,6.6,17c0,6.9-2.2,12.6-6.7,17.2c-4.5,4.5-10.1,6.8-16.8,6.8c-4.2,0-8.2-0.9-12-2.8c-3.8-1.9-6.7-4.7-8.7-8.3
					S772.3,406.6,772.3,401.4z M784.7,402c0,4.5,1.1,8,3.2,10.4s4.8,3.6,7.9,3.6c3.2,0,5.8-1.2,7.9-3.6c2.1-2.4,3.2-5.9,3.2-10.5
					c0-4.5-1.1-7.9-3.2-10.3c-2.1-2.4-4.8-3.6-7.9-3.6c-3.2,0-5.8,1.2-7.9,3.6S784.7,397.5,784.7,402z"/>
				<path class="st2" d="M872.2,424.9h-12.1v-23.3c0-4.9-0.3-8.1-0.8-9.6c-0.5-1.4-1.4-2.6-2.5-3.4c-1.2-0.8-2.6-1.2-4.2-1.2
					c-2.1,0-4,0.6-5.6,1.7c-1.7,1.1-2.8,2.7-3.4,4.6s-0.9,5.4-0.9,10.5v20.7h-12.1v-45.6h11.2v6.7c4-5.2,9-7.7,15-7.7
					c2.7,0,5.1,0.5,7.3,1.4c2.2,1,3.9,2.2,5,3.7c1.1,1.5,1.9,3.2,2.4,5.1s0.7,4.6,0.7,8.1V424.9z"/>
				<path class="st2" d="M954.2,424.9H943v-6.7c-1.9,2.6-4.1,4.5-6.6,5.8s-5.1,1.9-7.7,1.9c-5.2,0-9.7-2.1-13.5-6.3
					c-3.7-4.2-5.6-10.1-5.6-17.7c0-7.7,1.8-13.6,5.5-17.6c3.6-4,8.2-6,13.8-6c5.1,0,9.5,2.1,13.2,6.4v-22.7h12.1V424.9z M922,401.1
					c0,4.9,0.7,8.4,2,10.6c1.9,3.2,4.7,4.7,8.2,4.7c2.8,0,5.1-1.2,7.1-3.5c1.9-2.4,2.9-5.9,2.9-10.6c0-5.2-0.9-9-2.8-11.3
					c-1.9-2.3-4.3-3.5-7.3-3.5c-2.9,0-5.3,1.1-7.2,3.4S922,396.5,922,401.1z"/>
				<path class="st2" d="M967.8,384.3l-2.3-11.7v-10.7h13.1v10.7l-2,11.7H967.8z"/>
				<path class="st2" d="M1020.6,424.9V418c-1.7,2.4-3.8,4.4-6.6,5.8s-5.6,2.1-8.6,2.1c-3.1,0-5.8-0.7-8.3-2s-4.2-3.2-5.3-5.7
					c-1.1-2.4-1.6-5.8-1.6-10.1v-28.9h12.1v21c0,6.4,0.2,10.3,0.7,11.8c0.4,1.4,1.3,2.6,2.4,3.4c1.2,0.8,2.7,1.3,4.5,1.3
					c2.1,0,3.9-0.6,5.5-1.7c1.6-1.1,2.8-2.5,3.4-4.2s0.9-5.8,0.9-12.3v-19.3h12.1v45.6H1020.6z"/>
				<path class="st2" d="M1087.6,424.9h-12.1v-23.3c0-4.9-0.3-8.1-0.8-9.6c-0.5-1.4-1.4-2.6-2.5-3.4c-1.2-0.8-2.6-1.2-4.2-1.2
					c-2.1,0-4,0.6-5.6,1.7c-1.7,1.1-2.8,2.7-3.4,4.6s-0.9,5.4-0.9,10.5v20.7H1046v-45.6h11.2v6.7c4-5.2,9-7.7,15-7.7
					c2.7,0,5.1,0.5,7.3,1.4c2.2,1,3.9,2.2,5,3.7c1.1,1.5,1.9,3.2,2.4,5.1s0.7,4.6,0.7,8.1V424.9z"/>
			</g>
			<g class="st1">
				<path class="st2" d="M479.9,486.7l-11.9,2.1c-0.4-2.4-1.3-4.2-2.7-5.4s-3.3-1.8-5.5-1.8c-3,0-5.4,1-7.2,3.1
					c-1.8,2.1-2.7,5.6-2.7,10.4c0,5.4,0.9,9.2,2.7,11.5c1.8,2.2,4.3,3.4,7.3,3.4c2.3,0,4.2-0.7,5.6-2c1.5-1.3,2.5-3.5,3.1-6.7
					l11.9,2c-1.2,5.4-3.6,9.6-7.1,12.3c-3.5,2.8-8.2,4.2-14.1,4.2c-6.7,0-12-2.1-16-6.3c-4-4.2-6-10-6-17.5c0-7.5,2-13.4,6-17.6
					c4-4.2,9.4-6.3,16.2-6.3c5.6,0,10,1.2,13.3,3.6C476.1,478.2,478.5,481.8,479.9,486.7z"/>
				<path class="st2" d="M488,495.4c0-4,1-7.9,3-11.6c2-3.8,4.8-6.6,8.4-8.6c3.6-2,7.7-3,12.1-3c6.9,0,12.6,2.2,17,6.7
					c4.4,4.5,6.6,10.1,6.6,17c0,6.9-2.2,12.6-6.7,17.2c-4.5,4.5-10.1,6.8-16.8,6.8c-4.2,0-8.2-0.9-12-2.8c-3.8-1.9-6.7-4.7-8.7-8.3
					S488,500.6,488,495.4z M500.4,496c0,4.5,1.1,8,3.2,10.4s4.8,3.6,7.9,3.6c3.2,0,5.8-1.2,7.9-3.6c2.1-2.4,3.2-5.9,3.2-10.5
					c0-4.5-1.1-7.9-3.2-10.3c-2.1-2.4-4.8-3.6-7.9-3.6c-3.2,0-5.8,1.2-7.9,3.6S500.4,491.5,500.4,496z"/>
				<path class="st2" d="M545.4,473.2h11.1v6.2c4-4.8,8.7-7.3,14.2-7.3c2.9,0,5.5,0.6,7.6,1.8s3.9,3,5.3,5.5c2-2.4,4.2-4.3,6.5-5.5
					s4.8-1.8,7.4-1.8c3.4,0,6.2,0.7,8.5,2c2.3,1.4,4.1,3.4,5.2,6c0.8,1.9,1.2,5.1,1.2,9.5v29.2h-12.1v-26.1c0-4.5-0.4-7.4-1.2-8.8
					c-1.1-1.7-2.8-2.6-5.2-2.6c-1.7,0-3.3,0.5-4.8,1.5c-1.5,1-2.6,2.5-3.2,4.5c-0.7,2-1,5.1-1,9.4v21.9H573v-25
					c0-4.4-0.2-7.3-0.6-8.6s-1.1-2.2-2-2.9c-0.9-0.6-2.1-0.9-3.7-0.9c-1.9,0-3.5,0.5-5,1.5c-1.5,1-2.6,2.4-3.2,4.3s-1,5-1,9.4v22.2
					h-12.1V473.2z"/>
				<path class="st2" d="M626.3,467v-11.2h12.1V467H626.3z M626.3,518.9v-45.6h12.1v45.6H626.3z"/>
				<path class="st2" d="M673.5,473.2v9.6h-8.3v18.4c0,3.7,0.1,5.9,0.2,6.5c0.2,0.6,0.5,1.1,1.1,1.5c0.6,0.4,1.2,0.6,2,0.6
					c1.1,0,2.7-0.4,4.9-1.2l1,9.4c-2.8,1.2-6,1.8-9.5,1.8c-2.2,0-4.1-0.4-5.9-1.1c-1.7-0.7-3-1.7-3.8-2.8s-1.4-2.7-1.7-4.7
					c-0.3-1.4-0.4-4.2-0.4-8.5v-19.9h-5.5v-9.6h5.5v-9.1l12.1-7v16.1H673.5z"/>
				<path class="st2" d="M710,504.3l12,2c-1.5,4.4-4,7.8-7.3,10.1c-3.3,2.3-7.5,3.5-12.5,3.5c-7.9,0-13.8-2.6-17.6-7.8
					c-3-4.2-4.5-9.4-4.5-15.7c0-7.6,2-13.5,5.9-17.8c4-4.3,9-6.4,15-6.4c6.8,0,12.1,2.2,16.1,6.7c3.9,4.5,5.8,11.4,5.6,20.6h-30.2
					c0.1,3.6,1.1,6.4,2.9,8.4c1.9,2,4.2,3,7,3c1.9,0,3.5-0.5,4.8-1.5S709.4,506.6,710,504.3z M710.7,492.1c-0.1-3.5-1-6.2-2.7-8
					c-1.7-1.8-3.8-2.7-6.3-2.7c-2.6,0-4.8,1-6.5,2.9c-1.7,1.9-2.6,4.5-2.5,7.8H710.7z M695.3,467.6l5.9-12.8h13.5L703,467.6H695.3z"
					/>
				<path class="st2" d="M802.4,518.9h-11.2v-6.7c-1.9,2.6-4.1,4.5-6.6,5.8s-5.1,1.9-7.7,1.9c-5.2,0-9.7-2.1-13.5-6.3
					c-3.7-4.2-5.6-10.1-5.6-17.7c0-7.7,1.8-13.6,5.5-17.6c3.6-4,8.2-6,13.8-6c5.1,0,9.5,2.1,13.2,6.4v-22.7h12.1V518.9z
					 M770.2,495.1c0,4.9,0.7,8.4,2,10.6c1.9,3.2,4.7,4.7,8.2,4.7c2.8,0,5.1-1.2,7.1-3.5c1.9-2.4,2.9-5.9,2.9-10.6
					c0-5.2-0.9-9-2.8-11.3c-1.9-2.3-4.3-3.5-7.3-3.5c-2.9,0-5.3,1.1-7.2,3.4S770.2,490.5,770.2,495.1z"/>
				<path class="st2" d="M842.5,504.3l12,2c-1.5,4.4-4,7.8-7.3,10.1c-3.3,2.3-7.5,3.5-12.5,3.5c-7.9,0-13.8-2.6-17.6-7.8
					c-3-4.2-4.5-9.4-4.5-15.7c0-7.6,2-13.5,5.9-17.8c4-4.3,9-6.4,15-6.4c6.8,0,12.1,2.2,16.1,6.7c3.9,4.5,5.8,11.4,5.6,20.6h-30.3
					c0.1,3.6,1.1,6.4,2.9,8.4c1.9,2,4.2,3,7,3c1.9,0,3.5-0.5,4.8-1.5S841.8,506.6,842.5,504.3z M843.2,492.1c-0.1-3.5-1-6.2-2.7-8
					c-1.7-1.8-3.8-2.7-6.3-2.7c-2.6,0-4.8,1-6.5,2.9c-1.7,1.9-2.6,4.5-2.5,7.8H843.2z"/>
			</g>
			<g class="st1">
				<path class="st2" d="M435.9,599.8L448,598c0.5,2.3,1.6,4.1,3.1,5.3c1.6,1.2,3.8,1.8,6.6,1.8c3.1,0,5.5-0.6,7-1.7
					c1.1-0.8,1.6-1.9,1.6-3.2c0-0.9-0.3-1.7-0.9-2.3c-0.6-0.6-1.9-1.1-4-1.6c-9.7-2.1-15.9-4.1-18.5-5.9c-3.6-2.5-5.4-5.9-5.4-10.3
					c0-4,1.6-7.3,4.7-10c3.1-2.7,8-4,14.5-4c6.2,0,10.9,1,13.9,3.1c3,2,5.1,5,6.3,9l-11.4,2.1c-0.5-1.8-1.4-3.1-2.8-4.1
					c-1.4-0.9-3.3-1.4-5.8-1.4c-3.2,0-5.5,0.4-6.8,1.3c-0.9,0.6-1.4,1.4-1.4,2.4c0,0.9,0.4,1.6,1.2,2.2c1.1,0.8,4.8,1.9,11.3,3.4
					c6.4,1.5,10.9,3.3,13.5,5.4c2.5,2.1,3.8,5.1,3.8,9c0,4.2-1.7,7.8-5.2,10.8c-3.5,3-8.7,4.5-15.5,4.5c-6.2,0-11.1-1.3-14.8-3.8
					C439.4,607.6,437,604.2,435.9,599.8z"/>
				<path class="st2" d="M520.9,612.9V606c-1.7,2.4-3.8,4.4-6.6,5.8s-5.6,2.1-8.6,2.1c-3.1,0-5.8-0.7-8.3-2
					c-2.4-1.3-4.2-3.2-5.3-5.7c-1.1-2.4-1.6-5.8-1.6-10.1v-28.9h12.1v21c0,6.4,0.2,10.3,0.7,11.8c0.4,1.4,1.3,2.6,2.4,3.4
					c1.2,0.8,2.7,1.3,4.5,1.3c2.1,0,3.9-0.6,5.5-1.7c1.6-1.1,2.8-2.5,3.4-4.2s0.9-5.8,0.9-12.3v-19.3h12.1v45.6H520.9z"/>
				<path class="st2" d="M545.8,612.9v-63h12.1v22.7c3.7-4.2,8.1-6.4,13.2-6.4c5.6,0,10.2,2,13.8,6c3.6,4,5.5,9.8,5.5,17.3
					c0,7.8-1.9,13.8-5.6,18c-3.7,4.2-8.2,6.3-13.5,6.3c-2.6,0-5.2-0.7-7.7-2s-4.7-3.2-6.6-5.8v6.7H545.8z M557.8,589.1
					c0,4.7,0.7,8.2,2.2,10.5c2.1,3.2,4.9,4.8,8.3,4.8c2.7,0,4.9-1.1,6.8-3.4c1.9-2.3,2.8-5.9,2.8-10.8c0-5.2-0.9-9-2.8-11.3
					c-1.9-2.3-4.3-3.5-7.3-3.5c-2.9,0-5.3,1.1-7.2,3.4C558.8,581.1,557.8,584.5,557.8,589.1z"/>
				<path class="st2" d="M597.6,599.8l12.1-1.8c0.5,2.3,1.6,4.1,3.1,5.3c1.6,1.2,3.8,1.8,6.6,1.8c3.1,0,5.5-0.6,7-1.7
					c1.1-0.8,1.6-1.9,1.6-3.2c0-0.9-0.3-1.7-0.9-2.3c-0.6-0.6-1.9-1.1-4-1.6c-9.7-2.1-15.9-4.1-18.5-5.9c-3.6-2.5-5.4-5.9-5.4-10.3
					c0-4,1.6-7.3,4.7-10c3.1-2.7,8-4,14.5-4c6.2,0,10.9,1,13.9,3.1c3,2,5.1,5,6.3,9l-11.4,2.1c-0.5-1.8-1.4-3.1-2.8-4.1
					c-1.4-0.9-3.3-1.4-5.8-1.4c-3.2,0-5.5,0.4-6.8,1.3c-0.9,0.6-1.4,1.4-1.4,2.4c0,0.9,0.4,1.6,1.2,2.2c1.1,0.8,4.8,1.9,11.3,3.4
					c6.4,1.5,10.9,3.3,13.5,5.4c2.5,2.1,3.8,5.1,3.8,9c0,4.2-1.7,7.8-5.2,10.8c-3.5,3-8.7,4.5-15.5,4.5c-6.2,0-11.1-1.3-14.8-3.8
					C601.1,607.6,598.7,604.2,597.6,599.8z"/>
				<path class="st2" d="M673.5,567.2v9.6h-8.3v18.4c0,3.7,0.1,5.9,0.2,6.5c0.2,0.6,0.5,1.1,1.1,1.5c0.6,0.4,1.2,0.6,2,0.6
					c1.1,0,2.7-0.4,4.9-1.2l1,9.4c-2.8,1.2-6,1.8-9.5,1.8c-2.2,0-4.1-0.4-5.9-1.1c-1.7-0.7-3-1.7-3.8-2.8s-1.4-2.7-1.7-4.7
					c-0.3-1.4-0.4-4.2-0.4-8.5v-19.9h-5.5v-9.6h5.5v-9.1l12.1-7v16.1H673.5z"/>
				<path class="st2" d="M683.6,561v-11.2h12.1V561H683.6z M683.6,612.9v-45.6h12.1v45.6H683.6z"/>
				<path class="st2" d="M730.8,567.2v9.6h-8.3v18.4c0,3.7,0.1,5.9,0.2,6.5c0.2,0.6,0.5,1.1,1.1,1.5c0.6,0.4,1.2,0.6,2,0.6
					c1.1,0,2.7-0.4,4.9-1.2l1,9.4c-2.8,1.2-6,1.8-9.5,1.8c-2.2,0-4.1-0.4-5.9-1.1c-1.7-0.7-3-1.7-3.8-2.8s-1.4-2.7-1.7-4.7
					c-0.3-1.4-0.4-4.2-0.4-8.5v-19.9h-5.5v-9.6h5.5v-9.1l12.1-7v16.1H730.8z"/>
				<path class="st2" d="M770.9,612.9V606c-1.7,2.4-3.8,4.4-6.6,5.8s-5.6,2.1-8.6,2.1c-3.1,0-5.8-0.7-8.3-2
					c-2.4-1.3-4.2-3.2-5.3-5.7c-1.1-2.4-1.6-5.8-1.6-10.1v-28.9h12.1v21c0,6.4,0.2,10.3,0.7,11.8c0.4,1.4,1.3,2.6,2.4,3.4
					c1.2,0.8,2.7,1.3,4.5,1.3c2.1,0,3.9-0.6,5.5-1.7c1.6-1.1,2.8-2.5,3.4-4.2s0.9-5.8,0.9-12.3v-19.3h12.1v45.6H770.9z"/>
				<path class="st2" d="M817.3,567.2v9.6h-8.3v18.4c0,3.7,0.1,5.9,0.2,6.5c0.2,0.6,0.5,1.1,1.1,1.5c0.6,0.4,1.2,0.6,2,0.6
					c1.1,0,2.7-0.4,4.9-1.2l1,9.4c-2.8,1.2-6,1.8-9.5,1.8c-2.2,0-4.1-0.4-5.9-1.1s-3-1.7-3.8-2.8s-1.4-2.7-1.7-4.7
					c-0.3-1.4-0.4-4.2-0.4-8.5v-19.9h-5.5v-9.6h5.5v-9.1l12.1-7v16.1H817.3z"/>
				<path class="st2" d="M827.5,561v-11.2h12.1V561H827.5z M827.5,612.9v-45.6h12.1v45.6H827.5z"/>
				<path class="st2" d="M850.9,589.4c0-4,1-7.9,3-11.6c2-3.8,4.8-6.6,8.4-8.6c3.6-2,7.7-3,12.1-3c6.9,0,12.6,2.2,17,6.7
					c4.4,4.5,6.6,10.1,6.6,17c0,6.9-2.2,12.6-6.7,17.2c-4.5,4.5-10.1,6.8-16.8,6.8c-4.2,0-8.2-0.9-12-2.8c-3.8-1.9-6.7-4.7-8.7-8.3
					S850.9,594.6,850.9,589.4z M863.3,590c0,4.5,1.1,8,3.2,10.4s4.8,3.6,7.9,3.6c3.2,0,5.8-1.2,7.9-3.6c2.1-2.4,3.2-5.9,3.2-10.5
					c0-4.5-1.1-7.9-3.2-10.3c-2.1-2.4-4.8-3.6-7.9-3.6c-3.2,0-5.8,1.2-7.9,3.6S863.3,585.5,863.3,590z"/>
				<path class="st2" d="M950.7,612.9h-12.1v-23.3c0-4.9-0.3-8.1-0.8-9.6c-0.5-1.4-1.4-2.6-2.5-3.4c-1.2-0.8-2.6-1.2-4.2-1.2
					c-2.1,0-4,0.6-5.6,1.7c-1.7,1.1-2.8,2.7-3.4,4.6c-0.6,1.9-0.9,5.4-0.9,10.5v20.7h-12.1v-45.6h11.2v6.7c4-5.2,9-7.7,15-7.7
					c2.7,0,5.1,0.5,7.3,1.4c2.2,1,3.9,2.2,5,3.7c1.1,1.5,1.9,3.2,2.4,5.1c0.4,1.9,0.7,4.6,0.7,8.1V612.9z"/>
			</g>
		</g>
		<path class="st3" d="M202.4,604.6h114.7c11.4,0,20.1,2.3,26.1,7s9,11.1,9,19.1c0.2,6.8-2.4,13.3-7.1,18.2c-4.8,5-12,7.5-21.6,7.5
			H161.8c-11,0-19.6-3-25.7-9.1c-5.9-5.5-9.3-13.3-9.2-21.4c0-5.3,2-12.3,5.9-21s8.3-15.6,13-20.5c19.5-20.2,37.1-37.5,52.7-52
			s26.8-24,33.6-28.5c10.8-7.5,20.9-16.1,30-25.6c7.4-7.8,13.6-16.7,18.2-26.4c4-8.3,6.2-17.3,6.3-26.5c0.2-8.9-2.2-17.6-6.7-25.2
			c-4.4-7.3-10.7-13.2-18.2-17.2c-7.8-4.1-16.4-6.3-25.2-6.2c-19.2,0-34.3,8.4-45.3,25.3c-1.5,2.2-3.9,8.2-7.4,18
			s-7.3,17.4-11.6,22.6s-10.7,7.9-19,7.9c-7.3,0-13.4-2.4-18.2-7.3s-7.3-11.4-7.3-19.8c0-10.1,2.3-20.7,6.8-31.6
			c4.7-11.2,11.6-21.4,20.3-29.9c9-8.9,20.4-16.1,34.3-21.6s30.1-8.2,48.7-8.2c22.4,0,41.5,3.5,57.3,10.5
			c10.2,4.6,19.4,11.2,27,19.3c7.8,8.2,14,17.9,18.1,28.5c4.3,10.6,6.5,22,6.5,33.5c0,18.2-4.5,34.7-13.5,49.5
			c-9,14.9-18.2,26.5-27.6,34.9c-9.4,8.4-25.1,21.6-47.1,39.7c-22,18-37.2,32-45.4,42C209.3,594.8,205.7,599.6,202.4,604.6z"/>
		<rect class="st4" width="1400" height="988.6"/>
	</g>
</g>
</svg>
