<?xml version="1.0" encoding="utf-8"?>
<!-- Generator: Adobe Illustrator 24.3.0, SVG Export Plug-In . SVG Version: 6.00 Build 0)  -->
<svg version="1.1" id="Layer_1" xmlns="http://www.w3.org/2000/svg" xmlns:xlink="http://www.w3.org/1999/xlink" x="0px" y="0px"
	 viewBox="0 0 1400 988.6" style="enable-background:new 0 0 1400 988.6;" xml:space="preserve">
<style type="text/css">
	.st0{fill:none;}
	.st1{fill:#79BA43;}
	.st2{enable-background:new    ;}
	.st3{fill:#FFFFFF;}
	.st4{fill:#000E2B;}
</style>
<g id="Layer_2_1_">
	<g id="Layer_1-2">
		<rect class="st0" width="1400" height="988.6"/>
		<path class="st1" d="M497.6,146.6C296.8,189.7,39.8,277,152.5,599.1c91,260.1,413.6,290.3,669.3,241.4s316.4-223.3,278.9-422.8
			C1062.2,213.4,844.5,72,497.6,146.6z"/>
		<path class="st1" d="M882.5,655.6c16-98.2,118.5-126.7,225.3-109.3s189.6,54.7,173.6,153s-46.9,203.4-257.6,142.9
			C920.1,812.3,866.5,753.8,882.5,655.6z"/>
		<path class="st1" d="M177.6,227.7c-1.9-33.7,22.7-50.2,51.2-51.8s52.1,5,54,38.7s0.4,70.6-57.4,65.2
			C197,277.1,179.6,261.4,177.6,227.7z"/>
		<g class="st2">
			<path class="st3" d="M441.1,515.2v-63h46.7v10.7h-34v14h31.6v10.6h-31.6v17.1h35.2v10.6H441.1z M457.3,448.6l5.9-12.8h13.5
				l-11.8,12.8H457.3z"/>
			<path class="st3" d="M514.1,515.2l-18.4-45.6h12.7l8.6,23.3l2.5,7.8c0.7-2,1.1-3.3,1.2-3.9c0.4-1.3,0.8-2.6,1.3-3.9l8.7-23.3
				h12.4l-18.1,45.6H514.1z"/>
			<path class="st3" d="M561.2,483.5l-11-2c1.2-4.4,3.4-7.7,6.4-9.8c3-2.1,7.5-3.2,13.4-3.2c5.4,0,9.4,0.6,12,1.9
				c2.6,1.3,4.5,2.9,5.6,4.9c1.1,2,1.6,5.6,1.6,10.8l-0.1,14.1c0,4,0.2,7,0.6,8.9c0.4,1.9,1.1,3.9,2.2,6.1h-11.9
				c-0.3-0.8-0.7-2-1.2-3.6c-0.2-0.7-0.3-1.2-0.4-1.4c-2.1,2-4.3,3.5-6.6,4.5s-4.9,1.5-7.5,1.5c-4.7,0-8.4-1.3-11.1-3.8
				c-2.7-2.5-4.1-5.8-4.1-9.7c0-2.6,0.6-4.9,1.8-6.9c1.2-2,3-3.6,5.2-4.6s5.4-2,9.6-2.8c5.6-1.1,9.6-2,11.7-3v-1.2
				c0-2.3-0.6-4-1.7-5s-3.3-1.5-6.5-1.5c-2.1,0-3.8,0.4-5,1.3C563,479.9,562,481.4,561.2,483.5z M577.4,493.3
				c-1.5,0.5-4,1.1-7.3,1.8c-3.4,0.7-5.5,1.4-6.6,2.1c-1.6,1.1-2.4,2.5-2.4,4.3c0,1.7,0.6,3.2,1.9,4.4c1.3,1.2,2.9,1.8,4.8,1.8
				c2.2,0,4.3-0.7,6.2-2.1c1.5-1.1,2.4-2.4,2.9-4c0.3-1,0.5-3,0.5-5.9V493.3z"/>
			<path class="st3" d="M602.9,515.2v-63H615v63H602.9z"/>
			<path class="st3" d="M659.2,515.2v-6.8c-1.7,2.4-3.8,4.4-6.6,5.8s-5.6,2.1-8.6,2.1c-3.1,0-5.8-0.7-8.3-2
				c-2.4-1.3-4.2-3.2-5.3-5.7c-1.1-2.4-1.6-5.8-1.6-10.1v-28.9h12.1v21c0,6.4,0.2,10.3,0.7,11.8c0.4,1.4,1.3,2.6,2.4,3.4
				c1.2,0.8,2.7,1.3,4.5,1.3c2.1,0,3.9-0.6,5.5-1.7c1.6-1.1,2.8-2.5,3.4-4.2s0.9-5.8,0.9-12.3v-19.3h12.1v45.6H659.2z"/>
			<path class="st3" d="M693.7,483.5l-11-2c1.2-4.4,3.4-7.7,6.4-9.8c3-2.1,7.5-3.2,13.4-3.2c5.4,0,9.4,0.6,12,1.9
				c2.6,1.3,4.5,2.9,5.6,4.9c1.1,2,1.6,5.6,1.6,10.8l-0.1,14.1c0,4,0.2,7,0.6,8.9c0.4,1.9,1.1,3.9,2.2,6.1h-11.9
				c-0.3-0.8-0.7-2-1.2-3.6c-0.2-0.7-0.3-1.2-0.4-1.4c-2.1,2-4.3,3.5-6.6,4.5c-2.3,1-4.9,1.5-7.5,1.5c-4.7,0-8.4-1.3-11.1-3.8
				c-2.7-2.5-4.1-5.8-4.1-9.7c0-2.6,0.6-4.9,1.8-6.9c1.2-2,3-3.6,5.2-4.6c2.2-1.1,5.4-2,9.6-2.8c5.6-1.1,9.6-2,11.7-3v-1.2
				c0-2.3-0.6-4-1.7-5c-1.1-1-3.3-1.5-6.5-1.5c-2.1,0-3.8,0.4-5,1.3C695.4,479.9,694.4,481.4,693.7,483.5z M709.8,493.3
				c-1.5,0.5-4,1.1-7.3,1.8c-3.4,0.7-5.5,1.4-6.6,2.1c-1.6,1.1-2.4,2.5-2.4,4.3c0,1.7,0.6,3.2,1.9,4.4c1.3,1.2,2.9,1.8,4.8,1.8
				c2.2,0,4.3-0.7,6.2-2.1c1.5-1.1,2.4-2.4,2.9-4c0.3-1,0.5-3,0.5-5.9V493.3z"/>
			<path class="st3" d="M756.3,469.5v9.6H748v18.4c0,3.7,0.1,5.9,0.2,6.5c0.2,0.6,0.5,1.1,1.1,1.5c0.6,0.4,1.2,0.6,2,0.6
				c1.1,0,2.7-0.4,4.9-1.2l1,9.4c-2.8,1.2-6,1.8-9.5,1.8c-2.2,0-4.1-0.4-5.9-1.1s-3-1.7-3.8-2.8s-1.4-2.7-1.7-4.7
				c-0.3-1.4-0.4-4.2-0.4-8.5v-19.9h-5.5v-9.6h5.5v-9.1l12.1-7v16.1H756.3z"/>
			<path class="st3" d="M766.4,463.4v-11.2h12.1v11.2H766.4z M766.4,515.2v-45.6h12.1v45.6H766.4z"/>
			<path class="st3" d="M789.8,491.7c0-4,1-7.9,3-11.6c2-3.8,4.8-6.6,8.4-8.6c3.6-2,7.7-3,12.1-3c6.9,0,12.6,2.2,17,6.7
				c4.4,4.5,6.6,10.1,6.6,17c0,6.9-2.2,12.6-6.7,17.2c-4.5,4.5-10.1,6.8-16.8,6.8c-4.2,0-8.2-0.9-12-2.8c-3.8-1.9-6.7-4.7-8.7-8.3
				S789.8,497,789.8,491.7z M802.2,492.4c0,4.5,1.1,8,3.2,10.4s4.8,3.6,7.9,3.6c3.2,0,5.8-1.2,7.9-3.6c2.1-2.4,3.2-5.9,3.2-10.5
				c0-4.5-1.1-7.9-3.2-10.3c-2.1-2.4-4.8-3.6-7.9-3.6c-3.2,0-5.8,1.2-7.9,3.6S802.2,487.8,802.2,492.4z"/>
			<path class="st3" d="M889.6,515.2h-12.1v-23.3c0-4.9-0.3-8.1-0.8-9.6c-0.5-1.4-1.4-2.6-2.5-3.4c-1.2-0.8-2.6-1.2-4.2-1.2
				c-2.1,0-4,0.6-5.6,1.7c-1.7,1.1-2.8,2.7-3.4,4.6c-0.6,1.9-0.9,5.4-0.9,10.5v20.7H848v-45.6h11.2v6.7c4-5.2,9-7.7,15-7.7
				c2.7,0,5.1,0.5,7.3,1.4c2.2,1,3.9,2.2,5,3.7c1.1,1.5,1.9,3.2,2.4,5.1c0.4,1.9,0.7,4.6,0.7,8.1V515.2z"/>
		</g>
		<path class="st4" d="M293.8,509.4c-9.7,11.4-20.5,20-32.4,25.8c-11.9,5.8-25.2,8.7-39.7,8.7c-13.3,0.1-26.4-2.6-38.6-8
			c-11.8-5.2-22.3-12.8-31-22.4c-8.8-9.8-15.6-21.2-20.1-33.6c-9.6-27-9.3-56.5,0.9-83.3c10.1-26.7,31-48,57.6-58.6
			c13.5-5.6,28.5-8.3,44.9-8.3c18.9,0,35.7,3.4,50.5,10.3c14.7,6.8,27.5,17.1,37.4,30c10.1,13.1,17.9,29.6,23.3,49.5
			c5.4,19.9,8.1,42.5,8.1,67.7c0,28.1-2.9,52.9-8.6,74.4s-14,39.5-24.9,54.1c-10.9,14.6-24,25.4-39.2,32.5s-32.5,10.6-51.9,10.7
			c-19,0-35.6-3.6-49.7-10.9c-14.1-7.3-24.8-16.3-32.1-27c-7.3-10.8-11-21.1-11-31.1c0-6.2,2.3-11.6,6.8-16.5s10.3-7.2,17.4-7.2
			c6.2-0.1,12.3,1.8,17.4,5.4c5.1,3.6,9,9,11.6,16.2c3,8.5,8.6,15.9,16,21.2c7.4,5.3,16.2,8.1,25.3,8c8.3,0,16.5-2.2,23.7-6.4
			c7.7-4.4,14.2-10.6,19.1-18C285.4,576.8,291.7,549.1,293.8,509.4z M288.7,442.2c0.1-9.4-1.3-18.7-4.1-27.6
			c-2.5-7.9-6.3-15.3-11.4-21.9c-4.8-6-10.8-11-17.6-14.5c-6.9-3.5-14.5-5.4-22.3-5.3c-13.9,0-25.7,6-35.4,17.9
			s-14.5,27.7-14.5,47.4c0,19.5,4.8,35,14.5,46.6c9.7,11.6,21.9,17.4,36.7,17.4c9.1,0,18.1-2.5,26-7.1c8.5-5,15.5-12.2,20.2-20.8
			C286.1,465.2,288.7,454.5,288.7,442.2L288.7,442.2z"/>
	</g>
</g>
</svg>
