<?xml version="1.0" encoding="utf-8"?>
<!-- Generator: Adobe Illustrator 24.3.0, SVG Export Plug-In . SVG Version: 6.00 Build 0)  -->
<svg version="1.1" id="Layer_1" xmlns="http://www.w3.org/2000/svg" xmlns:xlink="http://www.w3.org/1999/xlink" x="0px" y="0px"
	 viewBox="0 0 1400 988.6" style="enable-background:new 0 0 1400 988.6;" xml:space="preserve">
<style type="text/css">
	.st0{fill:#DC2B3F;}
	.st1{enable-background:new    ;}
	.st2{fill:#FFFFFF;}
	.st3{fill:#000E2B;}
	.st4{fill:none;}
</style>
<g id="Layer_2_1_">
	<g id="Layer_1-2">
		<path class="st0" d="M1269.2,612.6C1212.1,793.4,975.1,897.3,682,833.5c-352.5-76.7-564.5-262.3-556.8-461.2
			S440.4,101.1,756,144.5S1334.4,405.9,1269.2,612.6z"/>
		<g>
			<g class="st1">
				<path class="st2" d="M374.6,433.2v-63h46.7v10.7h-34v14h31.6v10.6h-31.6v17.1h35.2v10.6H374.6z M390.7,366.6l5.9-12.8h13.5
					l-11.8,12.8H390.7z"/>
				<path class="st2" d="M455.9,387.5v9.6h-8.3v18.4c0,3.7,0.1,5.9,0.2,6.5c0.2,0.6,0.5,1.1,1.1,1.5c0.6,0.4,1.2,0.6,2,0.6
					c1.1,0,2.7-0.4,4.9-1.2l1,9.4c-2.8,1.2-6,1.8-9.5,1.8c-2.2,0-4.1-0.4-5.9-1.1c-1.7-0.7-3-1.7-3.8-2.8s-1.4-2.7-1.7-4.7
					c-0.3-1.4-0.4-4.2-0.4-8.5v-19.9H430v-9.6h5.5v-9.1l12.1-7v16.1H455.9z"/>
				<path class="st2" d="M496.1,433.2v-6.8c-1.7,2.4-3.8,4.4-6.6,5.8s-5.6,2.1-8.6,2.1c-3.1,0-5.8-0.7-8.3-2
					c-2.4-1.3-4.2-3.2-5.3-5.7c-1.1-2.4-1.6-5.8-1.6-10.1v-28.9h12.1v21c0,6.4,0.2,10.3,0.7,11.8c0.4,1.4,1.3,2.6,2.4,3.4
					c1.2,0.8,2.7,1.3,4.5,1.3c2.1,0,3.9-0.6,5.5-1.7c1.6-1.1,2.8-2.5,3.4-4.2s0.9-5.8,0.9-12.3v-19.3h12.1v45.6H496.1z"/>
				<path class="st2" d="M563.4,433.2h-11.2v-6.7c-1.9,2.6-4.1,4.5-6.6,5.8s-5.1,1.9-7.7,1.9c-5.2,0-9.7-2.1-13.5-6.3
					c-3.7-4.2-5.6-10.1-5.6-17.7c0-7.7,1.8-13.6,5.5-17.6c3.6-4,8.2-6,13.8-6c5.1,0,9.5,2.1,13.2,6.4v-22.7h12.1V433.2z
					 M531.2,409.4c0,4.9,0.7,8.4,2,10.6c1.9,3.2,4.7,4.7,8.2,4.7c2.8,0,5.1-1.2,7.1-3.5c1.9-2.4,2.9-5.9,2.9-10.6
					c0-5.2-0.9-9-2.8-11.3c-1.9-2.3-4.3-3.5-7.3-3.5c-2.9,0-5.3,1.1-7.2,3.4S531.2,404.9,531.2,409.4z"/>
				<path class="st2" d="M603.5,418.7l12,2c-1.5,4.4-4,7.8-7.3,10.1c-3.3,2.3-7.5,3.5-12.5,3.5c-7.9,0-13.8-2.6-17.6-7.8
					c-3-4.2-4.5-9.4-4.5-15.7c0-7.6,2-13.5,5.9-17.8c4-4.3,9-6.4,15-6.4c6.8,0,12.1,2.2,16.1,6.7c3.9,4.5,5.8,11.4,5.6,20.6h-30.3
					c0.1,3.6,1.1,6.4,2.9,8.4c1.9,2,4.2,3,7,3c1.9,0,3.5-0.5,4.8-1.5S602.8,420.9,603.5,418.7z M604.2,406.5c-0.1-3.5-1-6.2-2.7-8
					c-1.7-1.8-3.8-2.7-6.3-2.7c-2.6,0-4.8,1-6.5,2.9c-1.7,1.9-2.6,4.5-2.5,7.8H604.2z"/>
				<path class="st2" d="M695.8,433.2h-11.2v-6.7c-1.9,2.6-4.1,4.5-6.6,5.8s-5.1,1.9-7.7,1.9c-5.2,0-9.7-2.1-13.5-6.3
					c-3.7-4.2-5.6-10.1-5.6-17.7c0-7.7,1.8-13.6,5.5-17.6c3.6-4,8.2-6,13.8-6c5.1,0,9.5,2.1,13.2,6.4v-22.7h12.1V433.2z
					 M663.6,409.4c0,4.9,0.7,8.4,2,10.6c1.9,3.2,4.7,4.7,8.2,4.7c2.8,0,5.1-1.2,7.1-3.5c1.9-2.4,2.9-5.9,2.9-10.6
					c0-5.2-0.9-9-2.8-11.3c-1.9-2.3-4.3-3.5-7.3-3.5c-2.9,0-5.3,1.1-7.2,3.4S663.6,404.9,663.6,409.4z"/>
				<path class="st2" d="M739.5,433.2v-6.8c-1.7,2.4-3.8,4.4-6.6,5.8s-5.6,2.1-8.6,2.1c-3.1,0-5.8-0.7-8.3-2
					c-2.4-1.3-4.2-3.2-5.3-5.7c-1.1-2.4-1.6-5.8-1.6-10.1v-28.9h12.1v21c0,6.4,0.2,10.3,0.7,11.8c0.4,1.4,1.3,2.6,2.4,3.4
					c1.2,0.8,2.7,1.3,4.5,1.3c2.1,0,3.9-0.6,5.5-1.7c1.6-1.1,2.8-2.5,3.4-4.2s0.9-5.8,0.9-12.3v-19.3h12.1v45.6H739.5z"/>
				<path class="st2" d="M790.8,387.5h11.3v6.7c1.5-2.3,3.4-4.2,5.9-5.6c2.5-1.4,5.3-2.1,8.3-2.1c5.3,0,9.8,2.1,13.5,6.2
					c3.7,4.2,5.5,9.9,5.5,17.4c0,7.6-1.9,13.5-5.6,17.8c-3.7,4.2-8.2,6.3-13.5,6.3c-2.5,0-4.8-0.5-6.9-1.5s-4.2-2.7-6.5-5.2v23
					h-12.1V387.5z M802.8,409.6c0,5.1,1,8.9,3.1,11.4s4.5,3.7,7.4,3.7c2.8,0,5.1-1.1,7-3.4c1.9-2.2,2.8-5.9,2.8-11.1
					c0-4.8-1-8.3-2.9-10.7s-4.3-3.5-7.1-3.5c-3,0-5.4,1.1-7.3,3.4S802.8,405.1,802.8,409.6z"/>
			</g>
			<g class="st1">
				<path class="st2" d="M858.5,433.2h-12.1v-45.6h11.2v6.5c1.9-3.1,3.6-5.1,5.2-6.1c1.5-1,3.3-1.5,5.2-1.5c2.8,0,5.4,0.8,7.9,2.3
					l-3.7,10.5c-2-1.3-3.9-2-5.7-2c-1.7,0-3.1,0.5-4.3,1.4c-1.2,0.9-2.1,2.6-2.8,5c-0.7,2.4-1,7.5-1,15.3V433.2z"/>
			</g>
			<g class="st1">
				<path class="st2" d="M878.8,409.7c0-4,1-7.9,3-11.6c2-3.8,4.8-6.6,8.4-8.6c3.6-2,7.7-3,12.1-3c6.9,0,12.6,2.2,17,6.7
					c4.4,4.5,6.6,10.1,6.6,17c0,6.9-2.2,12.6-6.7,17.2c-4.5,4.5-10.1,6.8-16.8,6.8c-4.2,0-8.2-0.9-12-2.8c-3.8-1.9-6.7-4.7-8.7-8.3
					S878.8,415,878.8,409.7z M891.1,410.4c0,4.5,1.1,8,3.2,10.4s4.8,3.6,7.9,3.6c3.2,0,5.8-1.2,7.9-3.6c2.1-2.4,3.2-5.9,3.2-10.5
					c0-4.5-1.1-7.9-3.2-10.3c-2.1-2.4-4.8-3.6-7.9-3.6c-3.2,0-5.8,1.2-7.9,3.6S891.1,405.8,891.1,410.4z"/>
				<path class="st2" d="M936.5,433.2v-63h12.1v22.7c3.7-4.2,8.1-6.4,13.2-6.4c5.6,0,10.2,2,13.8,6c3.6,4,5.5,9.8,5.5,17.3
					c0,7.8-1.9,13.8-5.6,18c-3.7,4.2-8.2,6.3-13.5,6.3c-2.6,0-5.2-0.7-7.7-2s-4.7-3.2-6.6-5.8v6.7H936.5z M948.5,409.4
					c0,4.7,0.7,8.2,2.2,10.5c2.1,3.2,4.9,4.8,8.3,4.8c2.7,0,4.9-1.1,6.8-3.4c1.9-2.3,2.8-5.9,2.8-10.8c0-5.2-0.9-9-2.8-11.3
					c-1.9-2.3-4.3-3.5-7.3-3.5c-2.9,0-5.3,1.1-7.2,3.4C949.5,401.4,948.5,404.8,948.5,409.4z"/>
				<path class="st2" d="M992.6,433.2v-63h12.1v63H992.6z"/>
				<path class="st2" d="M1045.2,418.7l12,2c-1.5,4.4-4,7.8-7.3,10.1c-3.3,2.3-7.5,3.5-12.5,3.5c-7.9,0-13.8-2.6-17.6-7.8
					c-3-4.2-4.5-9.4-4.5-15.7c0-7.6,2-13.5,5.9-17.8c4-4.3,9-6.4,15-6.4c6.8,0,12.1,2.2,16.1,6.7c3.9,4.5,5.8,11.4,5.6,20.6h-30.3
					c0.1,3.6,1.1,6.4,2.9,8.4c1.9,2,4.2,3,7,3c1.9,0,3.5-0.5,4.8-1.5S1044.5,420.9,1045.2,418.7z M1042.7,382h-7.6l-11.9-12.8h13.5
					L1042.7,382z M1045.9,406.5c-0.1-3.5-1-6.2-2.7-8c-1.7-1.8-3.8-2.7-6.3-2.7c-2.6,0-4.8,1-6.5,2.9c-1.7,1.9-2.6,4.5-2.5,7.8
					H1045.9z"/>
				<path class="st2" d="M1068.6,387.5h11.1v6.2c4-4.8,8.7-7.3,14.2-7.3c2.9,0,5.5,0.6,7.6,1.8s3.9,3,5.3,5.5c2-2.4,4.2-4.3,6.5-5.5
					s4.8-1.8,7.4-1.8c3.4,0,6.2,0.7,8.5,2c2.3,1.4,4.1,3.4,5.2,6c0.8,1.9,1.2,5.1,1.2,9.5v29.2h-12.1v-26.1c0-4.5-0.4-7.4-1.2-8.8
					c-1.1-1.7-2.8-2.6-5.2-2.6c-1.7,0-3.3,0.5-4.8,1.5c-1.5,1-2.6,2.5-3.2,4.5c-0.7,2-1,5.1-1,9.4v21.9h-12.1v-25
					c0-4.4-0.2-7.3-0.6-8.6s-1.1-2.2-2-2.9c-0.9-0.6-2.1-0.9-3.7-0.9c-1.9,0-3.5,0.5-5,1.5c-1.5,1-2.6,2.4-3.2,4.3s-1,5-1,9.4v22.2
					h-12.1V387.5z"/>
				<path class="st2" d="M1175.9,418.7l12,2c-1.5,4.4-4,7.8-7.3,10.1c-3.3,2.3-7.5,3.5-12.5,3.5c-7.9,0-13.8-2.6-17.6-7.8
					c-3-4.2-4.5-9.4-4.5-15.7c0-7.6,2-13.5,5.9-17.8c4-4.3,9-6.4,15-6.4c6.8,0,12.1,2.2,16.1,6.7c3.9,4.5,5.8,11.4,5.6,20.6h-30.3
					c0.1,3.6,1.1,6.4,2.9,8.4c1.9,2,4.2,3,7,3c1.9,0,3.5-0.5,4.8-1.5S1175.3,420.9,1175.9,418.7z M1176.6,406.5
					c-0.1-3.5-1-6.2-2.7-8c-1.7-1.8-3.8-2.7-6.3-2.7c-2.6,0-4.8,1-6.5,2.9c-1.7,1.9-2.6,4.5-2.5,7.8H1176.6z"/>
			</g>
			<g class="st1">
				<path class="st2" d="M400.9,512.7l12,2c-1.5,4.4-4,7.8-7.3,10.1c-3.3,2.3-7.5,3.5-12.5,3.5c-7.9,0-13.8-2.6-17.6-7.8
					c-3-4.2-4.5-9.4-4.5-15.7c0-7.6,2-13.5,5.9-17.8c4-4.3,9-6.4,15-6.4c6.8,0,12.1,2.2,16.1,6.7c3.9,4.5,5.8,11.4,5.6,20.6h-30.3
					c0.1,3.6,1.1,6.4,2.9,8.4c1.9,2,4.2,3,7,3c1.9,0,3.5-0.5,4.8-1.5S400.3,514.9,400.9,512.7z M401.6,500.5c-0.1-3.5-1-6.2-2.7-8
					c-1.7-1.8-3.8-2.7-6.3-2.7c-2.6,0-4.8,1-6.5,2.9c-1.7,1.9-2.6,4.5-2.5,7.8H401.6z"/>
				<path class="st2" d="M446.1,481.5v9.6h-8.3v18.4c0,3.7,0.1,5.9,0.2,6.5c0.2,0.6,0.5,1.1,1.1,1.5c0.6,0.4,1.2,0.6,2,0.6
					c1.1,0,2.7-0.4,4.9-1.2l1,9.4c-2.8,1.2-6,1.8-9.5,1.8c-2.2,0-4.1-0.4-5.9-1.1c-1.7-0.7-3-1.7-3.8-2.8s-1.4-2.7-1.7-4.7
					c-0.3-1.4-0.4-4.2-0.4-8.5v-19.9h-5.5v-9.6h5.5v-9.1l12.1-7v16.1H446.1z"/>
				<path class="st2" d="M524.3,527.2h-11.2v-6.7c-1.9,2.6-4.1,4.5-6.6,5.8s-5.1,1.9-7.7,1.9c-5.2,0-9.7-2.1-13.5-6.3
					c-3.7-4.2-5.6-10.1-5.6-17.7c0-7.7,1.8-13.6,5.5-17.6c3.6-4,8.2-6,13.8-6c5.1,0,9.5,2.1,13.2,6.4v-22.7h12.1V527.2z
					 M492.1,503.4c0,4.9,0.7,8.4,2,10.6c1.9,3.2,4.7,4.7,8.2,4.7c2.8,0,5.1-1.2,7.1-3.5c1.9-2.4,2.9-5.9,2.9-10.6
					c0-5.2-0.9-9-2.8-11.3c-1.9-2.3-4.3-3.5-7.3-3.5c-2.9,0-5.3,1.1-7.2,3.4C493.1,495.4,492.1,498.8,492.1,503.4z"/>
				<path class="st2" d="M564.4,512.7l12,2c-1.5,4.4-4,7.8-7.3,10.1c-3.3,2.3-7.5,3.5-12.5,3.5c-7.9,0-13.8-2.6-17.6-7.8
					c-3-4.2-4.5-9.4-4.5-15.7c0-7.6,2-13.5,5.9-17.8c4-4.3,9-6.4,15-6.4c6.8,0,12.1,2.2,16.1,6.7c3.9,4.5,5.8,11.4,5.6,20.6h-30.3
					c0.1,3.6,1.1,6.4,2.9,8.4c1.9,2,4.2,3,7,3c1.9,0,3.5-0.5,4.8-1.5S563.8,514.9,564.4,512.7z M565.1,500.5c-0.1-3.5-1-6.2-2.7-8
					c-1.7-1.8-3.8-2.7-6.3-2.7c-2.6,0-4.8,1-6.5,2.9c-1.7,1.9-2.6,4.5-2.5,7.8H565.1z M549.7,476l5.9-12.8h13.5L557.3,476H549.7z"/>
				<path class="st2" d="M583.4,481.5h6.7v-3.4c0-3.8,0.4-6.7,1.2-8.6s2.3-3.4,4.5-4.6c2.2-1.2,5-1.8,8.3-1.8
					c3.4,0,6.8,0.5,10.1,1.5l-1.6,8.4c-1.9-0.5-3.8-0.7-5.5-0.7c-1.7,0-3,0.4-3.8,1.2c-0.8,0.8-1.1,2.4-1.1,4.7v3.2h9v9.5h-9v36.1
					h-12.1V491h-6.7V481.5z"/>
				<path class="st2" d="M619.8,475.4v-11.2h12.1v11.2H619.8z M619.8,527.2v-45.6h12.1v45.6H619.8z"/>
				<path class="st2" d="M687.5,527.2h-12.1v-23.3c0-4.9-0.3-8.1-0.8-9.6c-0.5-1.4-1.4-2.6-2.5-3.4c-1.2-0.8-2.6-1.2-4.2-1.2
					c-2.1,0-4,0.6-5.6,1.7c-1.7,1.1-2.8,2.7-3.4,4.6c-0.6,1.9-0.9,5.4-0.9,10.5v20.7h-12.1v-45.6h11.2v6.7c4-5.2,9-7.7,15-7.7
					c2.7,0,5.1,0.5,7.3,1.4c2.2,1,3.9,2.2,5,3.7c1.1,1.5,1.9,3.2,2.4,5.1c0.4,1.9,0.7,4.6,0.7,8.1V527.2z"/>
				<path class="st2" d="M701.5,475.4v-11.2h12.1v11.2H701.5z M701.5,527.2v-45.6h12.1v45.6H701.5z"/>
				<path class="st2" d="M748.6,481.5v9.6h-8.3v18.4c0,3.7,0.1,5.9,0.2,6.5c0.2,0.6,0.5,1.1,1.1,1.5c0.6,0.4,1.2,0.6,2,0.6
					c1.1,0,2.7-0.4,4.9-1.2l1,9.4c-2.8,1.2-6,1.8-9.5,1.8c-2.2,0-4.1-0.4-5.9-1.1s-3-1.7-3.8-2.8s-1.4-2.7-1.7-4.7
					c-0.3-1.4-0.4-4.2-0.4-8.5v-19.9h-5.5v-9.6h5.5v-9.1l12.1-7v16.1H748.6z"/>
				<path class="st2" d="M758.7,475.4v-11.2h12.1v11.2H758.7z M758.7,527.2v-45.6h12.1v45.6H758.7z"/>
				<path class="st2" d="M782.2,503.7c0-4,1-7.9,3-11.6c2-3.8,4.8-6.6,8.4-8.6c3.6-2,7.7-3,12.1-3c6.9,0,12.6,2.2,17,6.7
					c4.4,4.5,6.6,10.1,6.6,17c0,6.9-2.2,12.6-6.7,17.2c-4.5,4.5-10.1,6.8-16.8,6.8c-4.2,0-8.2-0.9-12-2.8c-3.8-1.9-6.7-4.7-8.7-8.3
					S782.2,509,782.2,503.7z M794.5,504.4c0,4.5,1.1,8,3.2,10.4s4.8,3.6,7.9,3.6c3.2,0,5.8-1.2,7.9-3.6c2.1-2.4,3.2-5.9,3.2-10.5
					c0-4.5-1.1-7.9-3.2-10.3c-2.1-2.4-4.8-3.6-7.9-3.6c-3.2,0-5.8,1.2-7.9,3.6C795.6,496.4,794.5,499.8,794.5,504.4z"/>
				<path class="st2" d="M882,527.2h-12.1v-23.3c0-4.9-0.3-8.1-0.8-9.6c-0.5-1.4-1.4-2.6-2.5-3.4c-1.2-0.8-2.6-1.2-4.2-1.2
					c-2.1,0-4,0.6-5.6,1.7c-1.7,1.1-2.8,2.7-3.4,4.6c-0.6,1.9-0.9,5.4-0.9,10.5v20.7h-12.1v-45.6h11.2v6.7c4-5.2,9-7.7,15-7.7
					c2.7,0,5.1,0.5,7.3,1.4c2.2,1,3.9,2.2,5,3.7c1.1,1.5,1.9,3.2,2.4,5.1s0.7,4.6,0.7,8.1V527.2z"/>
				<path class="st2" d="M964,527.2h-11.2v-6.7c-1.9,2.6-4.1,4.5-6.6,5.8s-5.1,1.9-7.7,1.9c-5.2,0-9.7-2.1-13.5-6.3
					c-3.7-4.2-5.6-10.1-5.6-17.7c0-7.7,1.8-13.6,5.5-17.6c3.6-4,8.2-6,13.8-6c5.1,0,9.5,2.1,13.2,6.4v-22.7H964V527.2z M931.8,503.4
					c0,4.9,0.7,8.4,2,10.6c1.9,3.2,4.7,4.7,8.2,4.7c2.8,0,5.1-1.2,7.1-3.5c1.9-2.4,2.9-5.9,2.9-10.6c0-5.2-0.9-9-2.8-11.3
					c-1.9-2.3-4.3-3.5-7.3-3.5c-2.9,0-5.3,1.1-7.2,3.4C932.8,495.4,931.8,498.8,931.8,503.4z"/>
				<path class="st2" d="M1004.1,512.7l12,2c-1.5,4.4-4,7.8-7.3,10.1c-3.3,2.3-7.5,3.5-12.5,3.5c-7.9,0-13.8-2.6-17.6-7.8
					c-3-4.2-4.5-9.4-4.5-15.7c0-7.6,2-13.5,5.9-17.8c4-4.3,9-6.4,15-6.4c6.8,0,12.1,2.2,16.1,6.7c3.9,4.5,5.8,11.4,5.6,20.6h-30.3
					c0.1,3.6,1.1,6.4,2.9,8.4c1.9,2,4.2,3,7,3c1.9,0,3.5-0.5,4.8-1.5S1003.5,514.9,1004.1,512.7z M1004.8,500.5
					c-0.1-3.5-1-6.2-2.7-8c-1.7-1.8-3.8-2.7-6.3-2.7c-2.6,0-4.8,1-6.5,2.9c-1.7,1.9-2.6,4.5-2.5,7.8H1004.8z"/>
				<path class="st2" d="M1024.2,514.2l12.1-1.8c0.5,2.3,1.6,4.1,3.1,5.3c1.6,1.2,3.8,1.8,6.6,1.8c3.1,0,5.5-0.6,7-1.7
					c1.1-0.8,1.6-1.9,1.6-3.2c0-0.9-0.3-1.7-0.9-2.3c-0.6-0.6-1.9-1.1-4-1.6c-9.7-2.1-15.9-4.1-18.5-5.9c-3.6-2.5-5.4-5.9-5.4-10.3
					c0-4,1.6-7.3,4.7-10c3.1-2.7,8-4,14.5-4c6.2,0,10.9,1,13.9,3.1c3,2,5.1,5,6.3,9l-11.4,2.1c-0.5-1.8-1.4-3.1-2.8-4.1
					s-3.3-1.4-5.8-1.4c-3.2,0-5.5,0.4-6.8,1.3c-0.9,0.6-1.4,1.4-1.4,2.4c0,0.9,0.4,1.6,1.2,2.2c1.1,0.8,4.8,1.9,11.3,3.4
					s10.9,3.3,13.5,5.4c2.5,2.1,3.8,5.1,3.8,9c0,4.2-1.7,7.8-5.2,10.8s-8.7,4.5-15.5,4.5c-6.2,0-11.1-1.3-14.8-3.8
					C1027.6,521.9,1025.3,518.5,1024.2,514.2z"/>
			</g>
			<g class="st1">
				<path class="st2" d="M414.3,589l-11.9,2.1c-0.4-2.4-1.3-4.2-2.7-5.4s-3.3-1.8-5.5-1.8c-3,0-5.4,1-7.2,3.1
					c-1.8,2.1-2.7,5.6-2.7,10.4c0,5.4,0.9,9.2,2.7,11.5c1.8,2.2,4.3,3.4,7.3,3.4c2.3,0,4.2-0.7,5.6-2c1.5-1.3,2.5-3.5,3.1-6.7
					l11.9,2c-1.2,5.4-3.6,9.6-7.1,12.3c-3.5,2.8-8.2,4.2-14.1,4.2c-6.7,0-12-2.1-16-6.3c-4-4.2-6-10-6-17.5c0-7.5,2-13.4,6-17.6
					c4-4.2,9.4-6.3,16.2-6.3c5.6,0,10,1.2,13.3,3.6C410.5,580.5,412.9,584.1,414.3,589z"/>
				<path class="st2" d="M436.8,621.2h-12.1v-45.6h11.2v6.5c1.9-3.1,3.6-5.1,5.2-6.1c1.5-1,3.3-1.5,5.2-1.5c2.8,0,5.4,0.8,7.9,2.3
					l-3.7,10.5c-2-1.3-3.9-2-5.7-2c-1.7,0-3.1,0.5-4.3,1.4c-1.2,0.9-2.1,2.6-2.8,5c-0.7,2.4-1,7.5-1,15.3V621.2z"/>
				<path class="st2" d="M461.2,569.4v-11.2h12.1v11.2H461.2z M461.2,621.2v-45.6h12.1v45.6H461.2z"/>
				<path class="st2" d="M508.3,575.5v9.6h-8.3v18.4c0,3.7,0.1,5.9,0.2,6.5c0.2,0.6,0.5,1.1,1.1,1.5c0.6,0.4,1.2,0.6,2,0.6
					c1.1,0,2.7-0.4,4.9-1.2l1,9.4c-2.8,1.2-6,1.8-9.5,1.8c-2.2,0-4.1-0.4-5.9-1.1c-1.7-0.7-3-1.7-3.8-2.8s-1.4-2.7-1.7-4.7
					c-0.3-1.4-0.4-4.2-0.4-8.5v-19.9h-5.5v-9.6h5.5v-9.1l12.1-7v16.1H508.3z"/>
				<path class="st2" d="M544.9,606.7l12,2c-1.5,4.4-4,7.8-7.3,10.1c-3.3,2.3-7.5,3.5-12.5,3.5c-7.9,0-13.8-2.6-17.6-7.8
					c-3-4.2-4.5-9.4-4.5-15.7c0-7.6,2-13.5,5.9-17.8c4-4.3,9-6.4,15-6.4c6.8,0,12.1,2.2,16.1,6.7c3.9,4.5,5.8,11.4,5.6,20.6h-30.3
					c0.1,3.6,1.1,6.4,2.9,8.4c1.9,2,4.2,3,7,3c1.9,0,3.5-0.5,4.8-1.5S544.2,608.9,544.9,606.7z M542.4,570h-7.6l-11.9-12.8h13.5
					L542.4,570z M545.6,594.5c-0.1-3.5-1-6.2-2.7-8c-1.7-1.8-3.8-2.7-6.3-2.7c-2.6,0-4.8,1-6.5,2.9c-1.7,1.9-2.6,4.5-2.5,7.8H545.6z
					"/>
			</g>
			<g class="st1">
				<path class="st2" d="M584.7,621.2h-12.1v-45.6h11.2v6.5c1.9-3.1,3.6-5.1,5.2-6.1c1.5-1,3.3-1.5,5.2-1.5c2.8,0,5.4,0.8,7.9,2.3
					l-3.7,10.5c-2-1.3-3.9-2-5.7-2c-1.7,0-3.1,0.5-4.3,1.4c-1.2,0.9-2.1,2.6-2.8,5c-0.7,2.4-1,7.5-1,15.3V621.2z"/>
			</g>
			<g class="st1">
				<path class="st2" d="M634.1,606.7l12,2c-1.5,4.4-4,7.8-7.3,10.1c-3.3,2.3-7.5,3.5-12.5,3.5c-7.9,0-13.8-2.6-17.6-7.8
					c-3-4.2-4.5-9.4-4.5-15.7c0-7.6,2-13.5,5.9-17.8c4-4.3,9-6.4,15-6.4c6.8,0,12.1,2.2,16.1,6.7c3.9,4.5,5.8,11.4,5.6,20.6h-30.3
					c0.1,3.6,1.1,6.4,2.9,8.4c1.9,2,4.2,3,7,3c1.9,0,3.5-0.5,4.8-1.5S633.5,608.9,634.1,606.7z M634.8,594.5c-0.1-3.5-1-6.2-2.7-8
					c-1.7-1.8-3.8-2.7-6.3-2.7c-2.6,0-4.8,1-6.5,2.9c-1.7,1.9-2.6,4.5-2.5,7.8H634.8z"/>
				<path class="st2" d="M654.1,608.2l12.1-1.8c0.5,2.3,1.6,4.1,3.1,5.3c1.6,1.2,3.8,1.8,6.6,1.8c3.1,0,5.5-0.6,7-1.7
					c1.1-0.8,1.6-1.9,1.6-3.2c0-0.9-0.3-1.7-0.9-2.3c-0.6-0.6-1.9-1.1-4-1.6c-9.7-2.1-15.9-4.1-18.5-5.9c-3.6-2.5-5.4-5.9-5.4-10.3
					c0-4,1.6-7.3,4.7-10c3.1-2.7,8-4,14.5-4c6.2,0,10.9,1,13.9,3.1c3,2,5.1,5,6.3,9l-11.4,2.1c-0.5-1.8-1.4-3.1-2.8-4.1
					c-1.4-0.9-3.3-1.4-5.8-1.4c-3.2,0-5.5,0.4-6.8,1.3c-0.9,0.6-1.4,1.4-1.4,2.4c0,0.9,0.4,1.6,1.2,2.2c1.1,0.8,4.8,1.9,11.3,3.4
					c6.4,1.5,10.9,3.3,13.5,5.4c2.5,2.1,3.8,5.1,3.8,9c0,4.2-1.7,7.8-5.2,10.8c-3.5,3-8.7,4.5-15.5,4.5c-6.2,0-11.1-1.3-14.8-3.8
					C657.6,615.9,655.3,612.5,654.1,608.2z"/>
				<path class="st2" d="M777.2,621.2h-11.2v-6.7c-1.9,2.6-4.1,4.5-6.6,5.8s-5.1,1.9-7.7,1.9c-5.2,0-9.7-2.1-13.5-6.3
					c-3.7-4.2-5.6-10.1-5.6-17.7c0-7.7,1.8-13.6,5.5-17.6c3.6-4,8.2-6,13.8-6c5.1,0,9.5,2.1,13.2,6.4v-22.7h12.1V621.2z
					 M744.9,597.4c0,4.9,0.7,8.4,2,10.6c1.9,3.2,4.7,4.7,8.2,4.7c2.8,0,5.1-1.2,7.1-3.5c1.9-2.4,2.9-5.9,2.9-10.6
					c0-5.2-0.9-9-2.8-11.3c-1.9-2.3-4.3-3.5-7.3-3.5c-2.9,0-5.3,1.1-7.2,3.4S744.9,592.8,744.9,597.4z"/>
				<path class="st2" d="M817.2,606.7l12,2c-1.5,4.4-4,7.8-7.3,10.1c-3.3,2.3-7.5,3.5-12.5,3.5c-7.9,0-13.8-2.6-17.6-7.8
					c-3-4.2-4.5-9.4-4.5-15.7c0-7.6,2-13.5,5.9-17.8c4-4.3,9-6.4,15-6.4c6.8,0,12.1,2.2,16.1,6.7c3.9,4.5,5.8,11.4,5.6,20.6h-30.3
					c0.1,3.6,1.1,6.4,2.9,8.4c1.9,2,4.2,3,7,3c1.9,0,3.5-0.5,4.8-1.5S816.6,608.9,817.2,606.7z M817.9,594.5c-0.1-3.5-1-6.2-2.7-8
					c-1.7-1.8-3.8-2.7-6.3-2.7c-2.6,0-4.8,1-6.5,2.9c-1.7,1.9-2.6,4.5-2.5,7.8H817.9z"/>
				<path class="st2" d="M863.5,608.2l12.1-1.8c0.5,2.3,1.6,4.1,3.1,5.3c1.6,1.2,3.8,1.8,6.6,1.8c3.1,0,5.5-0.6,7-1.7
					c1.1-0.8,1.6-1.9,1.6-3.2c0-0.9-0.3-1.7-0.9-2.3c-0.6-0.6-1.9-1.1-4-1.6c-9.7-2.1-15.9-4.1-18.5-5.9c-3.6-2.5-5.4-5.9-5.4-10.3
					c0-4,1.6-7.3,4.7-10c3.1-2.7,8-4,14.5-4c6.2,0,10.9,1,13.9,3.1c3,2,5.1,5,6.3,9l-11.4,2.1c-0.5-1.8-1.4-3.1-2.8-4.1
					c-1.4-0.9-3.3-1.4-5.8-1.4c-3.2,0-5.5,0.4-6.8,1.3c-0.9,0.6-1.4,1.4-1.4,2.4c0,0.9,0.4,1.6,1.2,2.2c1.1,0.8,4.8,1.9,11.3,3.4
					c6.4,1.5,10.9,3.3,13.5,5.4c2.5,2.1,3.8,5.1,3.8,9c0,4.2-1.7,7.8-5.2,10.8c-3.5,3-8.7,4.5-15.5,4.5c-6.2,0-11.1-1.3-14.8-3.8
					C867,615.9,864.6,612.5,863.5,608.2z"/>
				<path class="st2" d="M944.9,606.7l12,2c-1.5,4.4-4,7.8-7.3,10.1c-3.3,2.3-7.5,3.5-12.5,3.5c-7.9,0-13.8-2.6-17.6-7.8
					c-3-4.2-4.5-9.4-4.5-15.7c0-7.6,2-13.5,5.9-17.8c4-4.3,9-6.4,15-6.4c6.8,0,12.1,2.2,16.1,6.7c3.9,4.5,5.8,11.4,5.6,20.6h-30.3
					c0.1,3.6,1.1,6.4,2.9,8.4c1.9,2,4.2,3,7,3c1.9,0,3.5-0.5,4.8-1.5S944.2,608.9,944.9,606.7z M945.5,594.5c-0.1-3.5-1-6.2-2.7-8
					c-1.7-1.8-3.8-2.7-6.3-2.7c-2.6,0-4.8,1-6.5,2.9c-1.7,1.9-2.6,4.5-2.5,7.8H945.5z M930.1,570l5.9-12.8h13.5L937.8,570H930.1z"/>
				<path class="st2" d="M969.1,621.2v-63h12.1v63H969.1z"/>
				<path class="st2" d="M1021.8,606.7l12,2c-1.5,4.4-4,7.8-7.3,10.1c-3.3,2.3-7.5,3.5-12.5,3.5c-7.9,0-13.8-2.6-17.6-7.8
					c-3-4.2-4.5-9.4-4.5-15.7c0-7.6,2-13.5,5.9-17.8c4-4.3,9-6.4,15-6.4c6.8,0,12.1,2.2,16.1,6.7c3.9,4.5,5.8,11.4,5.6,20.6h-30.3
					c0.1,3.6,1.1,6.4,2.9,8.4c1.9,2,4.2,3,7,3c1.9,0,3.5-0.5,4.8-1.5S1021.1,608.9,1021.8,606.7z M1022.5,594.5
					c-0.1-3.5-1-6.2-2.7-8c-1.7-1.8-3.8-2.7-6.3-2.7c-2.6,0-4.8,1-6.5,2.9c-1.7,1.9-2.6,4.5-2.5,7.8H1022.5z"/>
				<path class="st2" d="M1085.8,589l-11.9,2.1c-0.4-2.4-1.3-4.2-2.7-5.4s-3.3-1.8-5.5-1.8c-3,0-5.4,1-7.2,3.1
					c-1.8,2.1-2.7,5.6-2.7,10.4c0,5.4,0.9,9.2,2.7,11.5c1.8,2.2,4.3,3.4,7.3,3.4c2.3,0,4.2-0.7,5.6-2c1.5-1.3,2.5-3.5,3.1-6.7
					l11.9,2c-1.2,5.4-3.6,9.6-7.1,12.3c-3.5,2.8-8.2,4.2-14.1,4.2c-6.7,0-12-2.1-16-6.3c-4-4.2-6-10-6-17.5c0-7.5,2-13.4,6-17.6
					c4-4.2,9.4-6.3,16.2-6.3c5.6,0,10,1.2,13.3,3.6C1082,580.5,1084.4,584.1,1085.8,589z"/>
				<path class="st2" d="M1117.7,575.5v9.6h-8.3v18.4c0,3.7,0.1,5.9,0.2,6.5c0.2,0.6,0.5,1.1,1.1,1.5c0.6,0.4,1.2,0.6,2,0.6
					c1.1,0,2.7-0.4,4.9-1.2l1,9.4c-2.8,1.2-6,1.8-9.5,1.8c-2.2,0-4.1-0.4-5.9-1.1c-1.7-0.7-3-1.7-3.8-2.8s-1.4-2.7-1.7-4.7
					c-0.3-1.4-0.4-4.2-0.4-8.5v-19.9h-5.5v-9.6h5.5v-9.1l12.1-7v16.1H1117.7z"/>
				<path class="st2" d="M1127.8,569.4v-11.2h12.1v11.2H1127.8z M1127.8,621.2v-45.6h12.1v45.6H1127.8z"/>
				<path class="st2" d="M1151.2,597.7c0-4,1-7.9,3-11.6c2-3.8,4.8-6.6,8.4-8.6s7.7-3,12.1-3c6.9,0,12.6,2.2,17,6.7
					c4.4,4.5,6.6,10.1,6.6,17c0,6.9-2.2,12.6-6.7,17.2c-4.5,4.5-10.1,6.8-16.8,6.8c-4.2,0-8.2-0.9-12-2.8s-6.7-4.7-8.7-8.3
					S1151.2,603,1151.2,597.7z M1163.6,598.4c0,4.5,1.1,8,3.2,10.4s4.8,3.6,7.9,3.6s5.8-1.2,7.9-3.6s3.2-5.9,3.2-10.5
					c0-4.5-1.1-7.9-3.2-10.3s-4.8-3.6-7.9-3.6s-5.8,1.2-7.9,3.6S1163.6,593.8,1163.6,598.4z"/>
				<path class="st2" d="M1251,621.2H1239v-23.3c0-4.9-0.3-8.1-0.8-9.6c-0.5-1.4-1.4-2.6-2.5-3.4c-1.2-0.8-2.6-1.2-4.2-1.2
					c-2.1,0-4,0.6-5.6,1.7c-1.7,1.1-2.8,2.7-3.4,4.6c-0.6,1.9-0.9,5.4-0.9,10.5v20.7h-12.1v-45.6h11.2v6.7c4-5.2,9-7.7,15-7.7
					c2.7,0,5.1,0.5,7.3,1.4c2.2,1,3.9,2.2,5,3.7c1.1,1.5,1.9,3.2,2.4,5.1c0.4,1.9,0.7,4.6,0.7,8.1V621.2z"/>
			</g>
		</g>
		<path class="st3" d="M223.3,459.6c13.3,0,24.7-3.9,34.3-11.7s14.4-19,14.4-33.6c0.2-10.7-4-21-11.4-28.6c-7.7-8-17.9-12-30.9-12
			c-8.8,0-16.1,1.2-21.8,3.6c-5.2,2.1-9.9,5.4-13.5,9.8c-3.8,4.8-7,10-9.5,15.5c-2.9,6.3-5.7,12.3-8.1,17.9
			c-1.7,3.2-4.4,5.7-7.8,7.1c-4.1,1.8-8.5,2.7-13,2.6c-5.8,0-11-2.4-15.9-7s-7.3-10.9-7.3-18.7c0-7.5,2.3-15.4,6.8-23.7
			s11.2-16.2,19.9-23.8s19.6-13.5,32.6-18s27.5-6.8,43.5-6.8c14,0,26.8,1.9,38.3,5.7c11,3.5,21.2,9.2,30,16.5
			c8.2,6.8,14.8,15.4,19.3,25.1c4.4,9.6,6.6,20.1,6.5,30.7c0,14.5-3.1,26.8-9.5,37.1s-15.3,20.4-27,30.2c11.2,6.1,20.8,13,28.5,20.8
			c7.5,7.4,13.4,16.2,17.5,25.9c3.9,9.7,5.9,20.1,5.8,30.6c0,26.9-11.3,52.6-31.1,70.9c-10.6,9.8-22.9,17.5-36.4,22.5
			c-14.1,5.4-29.6,8.1-46.7,8.1c-17.3,0-32.8-3.2-46.5-9.3s-25-14-33.9-23.2c-8.3-8.4-15.1-18.2-20.1-28.8
			c-4.5-10-6.8-18.2-6.8-24.6c0-8.4,2.7-15.1,8.1-20.2c5.4-5.1,12.1-7.7,20.2-7.7c4.2,0,8.2,1.3,11.7,3.5c3.7,2.4,6.2,5.2,7.4,8.6
			c7.5,20.1,15.6,35,24.1,44.7s20.7,14.6,36.2,14.6c19,0,36.6-10,46.5-26.2c5.4-8.7,8.1-18.7,8.1-30c0-16.8-4.6-30.1-13.9-39.7
			s-22-14.4-38.5-14.4c-2.9,0-7.4,0.3-13.4,0.9s-9.9,0.9-11.7,0.9c-8,0-14.1-2-18.4-5.9s-6.5-9.5-6.5-16.5
			c-0.2-6.5,2.7-12.7,7.8-16.7c5.2-4.2,12.9-6.4,23.1-6.4h8.9L223.3,459.6z"/>
		<rect class="st4" width="1400" height="988.6"/>
	</g>
</g>
</svg>
