<?xml version="1.0" encoding="utf-8"?>
<!-- Generator: Adobe Illustrator 24.3.0, SVG Export Plug-In . SVG Version: 6.00 Build 0)  -->
<svg version="1.1" id="Layer_1" xmlns="http://www.w3.org/2000/svg" xmlns:xlink="http://www.w3.org/1999/xlink" x="0px" y="0px"
	 viewBox="0 0 1400 988.6" style="enable-background:new 0 0 1400 988.6;" xml:space="preserve">
<style type="text/css">
	.st0{fill:none;}
	.st1{fill:#DBBF25;}
	.st2{enable-background:new    ;}
	.st3{fill:#FFFFFF;}
	.st4{fill:#000E2B;}
</style>
<g id="Layer_2_1_">
	<g id="Layer_1-2">
		<rect class="st0" width="1400" height="988.6"/>
		<path class="st1" d="M1266.8,356.2c60.8,195.1-69.4,472.6-522.2,503.4c-279.3,19-599.4-114-617.1-245.7
			c-27.8-206.7,180.8-379,501.1-451.1S1200.5,143.7,1266.8,356.2z"/>
		<g>
			<g class="st2">
				<path class="st3" d="M482,409.3l12.3,3.9c-1.9,6.9-5,12-9.4,15.3c-4.4,3.3-10,5-16.7,5c-8.4,0-15.2-2.9-20.6-8.6
					c-5.4-5.7-8.1-13.5-8.1-23.4c0-10.5,2.7-18.6,8.1-24.4s12.5-8.7,21.4-8.7c7.7,0,14,2.3,18.8,6.8c2.9,2.7,5,6.6,6.4,11.6l-12.6,3
					c-0.7-3.3-2.3-5.8-4.7-7.7s-5.2-2.8-8.6-2.8c-4.7,0-8.5,1.7-11.4,5c-2.9,3.4-4.4,8.8-4.4,16.3c0,8,1.4,13.6,4.3,17
					c2.9,3.4,6.6,5.1,11.2,5.1c3.4,0,6.3-1.1,8.7-3.2C479.2,417.3,481,413.9,482,409.3z"/>
				<path class="st3" d="M504.1,409c0-4,1-7.9,3-11.6c2-3.8,4.8-6.6,8.4-8.6c3.6-2,7.7-3,12.1-3c6.9,0,12.6,2.2,17,6.7
					c4.4,4.5,6.6,10.1,6.6,17c0,6.9-2.2,12.6-6.7,17.2c-4.5,4.5-10.1,6.8-16.8,6.8c-4.2,0-8.2-0.9-12-2.8c-3.8-1.9-6.7-4.7-8.7-8.3
					S504.1,414.2,504.1,409z M516.5,409.6c0,4.5,1.1,8,3.2,10.4s4.8,3.6,7.9,3.6c3.2,0,5.8-1.2,7.9-3.6c2.1-2.4,3.2-5.9,3.2-10.5
					c0-4.5-1.1-7.9-3.2-10.3c-2.1-2.4-4.8-3.6-7.9-3.6c-3.2,0-5.8,1.2-7.9,3.6S516.5,405.1,516.5,409.6z"/>
				<path class="st3" d="M561.5,386.8h11.1v6.2c4-4.8,8.7-7.3,14.2-7.3c2.9,0,5.5,0.6,7.6,1.8s3.9,3,5.3,5.5c2-2.4,4.2-4.3,6.5-5.5
					s4.8-1.8,7.4-1.8c3.4,0,6.2,0.7,8.5,2c2.3,1.4,4.1,3.4,5.2,6c0.8,1.9,1.2,5.1,1.2,9.5v29.2h-12.1v-26.1c0-4.5-0.4-7.4-1.2-8.8
					c-1.1-1.7-2.8-2.6-5.2-2.6c-1.7,0-3.3,0.5-4.8,1.5c-1.5,1-2.6,2.5-3.2,4.5c-0.7,2-1,5.1-1,9.4v21.9h-12.1v-25
					c0-4.4-0.2-7.3-0.6-8.6s-1.1-2.2-2-2.9c-0.9-0.6-2.1-0.9-3.7-0.9c-1.9,0-3.5,0.5-5,1.5c-1.5,1-2.6,2.4-3.2,4.3s-1,5-1,9.4v22.2
					h-12.1V386.8z"/>
				<path class="st3" d="M642.1,386.8h11.3v6.7c1.5-2.3,3.4-4.2,5.9-5.6c2.5-1.4,5.3-2.1,8.3-2.1c5.3,0,9.8,2.1,13.5,6.2
					c3.7,4.2,5.5,9.9,5.5,17.4c0,7.6-1.9,13.5-5.6,17.8c-3.7,4.2-8.2,6.3-13.5,6.3c-2.5,0-4.8-0.5-6.9-1.5c-2-1-4.2-2.7-6.5-5.2v23
					h-12.1V386.8z M654.1,408.9c0,5.1,1,8.9,3.1,11.4c2,2.4,4.5,3.7,7.4,3.7c2.8,0,5.1-1.1,7-3.4c1.9-2.2,2.8-5.9,2.8-11.1
					c0-4.8-1-8.3-2.9-10.7c-1.9-2.3-4.3-3.5-7.1-3.5c-3,0-5.4,1.1-7.3,3.4C655,401,654.1,404.4,654.1,408.9z"/>
				<path class="st3" d="M707,400.7l-11-2c1.2-4.4,3.4-7.7,6.4-9.8c3-2.1,7.5-3.2,13.4-3.2c5.4,0,9.4,0.6,12,1.9
					c2.6,1.3,4.5,2.9,5.6,4.9c1.1,2,1.6,5.6,1.6,10.8l-0.1,14.1c0,4,0.2,7,0.6,8.9c0.4,1.9,1.1,3.9,2.2,6.1h-11.9
					c-0.3-0.8-0.7-2-1.2-3.6c-0.2-0.7-0.3-1.2-0.4-1.4c-2.1,2-4.3,3.5-6.6,4.5s-4.9,1.5-7.5,1.5c-4.7,0-8.4-1.3-11.1-3.8
					c-2.7-2.5-4.1-5.8-4.1-9.7c0-2.6,0.6-4.9,1.8-6.9c1.2-2,3-3.6,5.2-4.6s5.4-2,9.6-2.8c5.6-1.1,9.6-2,11.7-3v-1.2
					c0-2.3-0.6-4-1.7-5s-3.3-1.5-6.5-1.5c-2.1,0-3.8,0.4-5,1.3C708.7,397.1,707.7,398.6,707,400.7z M723.2,410.5
					c-1.5,0.5-4,1.1-7.3,1.8c-3.4,0.7-5.5,1.4-6.6,2.1c-1.6,1.1-2.4,2.5-2.4,4.3c0,1.7,0.6,3.2,1.9,4.4c1.3,1.2,2.9,1.8,4.8,1.8
					c2.2,0,4.3-0.7,6.2-2.1c1.5-1.1,2.4-2.4,2.9-4c0.3-1,0.5-3,0.5-5.9V410.5z"/>
				<path class="st3" d="M760.2,432.5h-12.1v-45.6h11.2v6.5c1.9-3.1,3.6-5.1,5.2-6.1c1.5-1,3.3-1.5,5.2-1.5c2.8,0,5.4,0.8,7.9,2.3
					l-3.7,10.5c-2-1.3-3.9-2-5.7-2c-1.7,0-3.1,0.5-4.3,1.4c-1.2,0.9-2.1,2.6-2.8,5c-0.7,2.4-1,7.5-1,15.3V432.5z"/>
				<path class="st3" d="M793.7,400.7l-11-2c1.2-4.4,3.4-7.7,6.4-9.8c3-2.1,7.5-3.2,13.4-3.2c5.4,0,9.4,0.6,12,1.9
					c2.6,1.3,4.5,2.9,5.6,4.9c1.1,2,1.6,5.6,1.6,10.8l-0.1,14.1c0,4,0.2,7,0.6,8.9c0.4,1.9,1.1,3.9,2.2,6.1h-11.9
					c-0.3-0.8-0.7-2-1.2-3.6c-0.2-0.7-0.3-1.2-0.4-1.4c-2.1,2-4.3,3.5-6.6,4.5c-2.3,1-4.9,1.5-7.5,1.5c-4.7,0-8.4-1.3-11.1-3.8
					c-2.7-2.5-4.1-5.8-4.1-9.7c0-2.6,0.6-4.9,1.8-6.9c1.2-2,3-3.6,5.2-4.6c2.2-1.1,5.4-2,9.6-2.8c5.6-1.1,9.6-2,11.7-3v-1.2
					c0-2.3-0.6-4-1.7-5c-1.1-1-3.3-1.5-6.5-1.5c-2.1,0-3.8,0.4-5,1.3C795.4,397.1,794.4,398.6,793.7,400.7z M809.9,410.5
					c-1.5,0.5-4,1.1-7.3,1.8c-3.4,0.7-5.5,1.4-6.6,2.1c-1.6,1.1-2.4,2.5-2.4,4.3c0,1.7,0.6,3.2,1.9,4.4c1.3,1.2,2.9,1.8,4.8,1.8
					c2.2,0,4.3-0.7,6.2-2.1c1.5-1.1,2.4-2.4,2.9-4c0.3-1,0.5-3,0.5-5.9V410.5z"/>
				<path class="st3" d="M835.4,380.6v-11.2h12.1v11.2H835.4z M835.4,432.5v-45.6h12.1v45.6H835.4z"/>
				<path class="st3" d="M857.3,419.4l12.1-1.8c0.5,2.3,1.6,4.1,3.1,5.3c1.6,1.2,3.8,1.8,6.6,1.8c3.1,0,5.5-0.6,7-1.7
					c1.1-0.8,1.6-1.9,1.6-3.2c0-0.9-0.3-1.7-0.9-2.3c-0.6-0.6-1.9-1.1-4-1.6c-9.7-2.1-15.9-4.1-18.5-5.9c-3.6-2.5-5.4-5.9-5.4-10.3
					c0-4,1.6-7.3,4.7-10c3.1-2.7,8-4,14.5-4c6.2,0,10.9,1,13.9,3.1c3,2,5.1,5,6.3,9L887,400c-0.5-1.8-1.4-3.1-2.8-4.1
					s-3.3-1.4-5.8-1.4c-3.2,0-5.5,0.4-6.8,1.3c-0.9,0.6-1.4,1.4-1.4,2.4c0,0.9,0.4,1.6,1.2,2.2c1.1,0.8,4.8,1.9,11.3,3.4
					s10.9,3.3,13.5,5.4c2.5,2.1,3.8,5.1,3.8,9c0,4.2-1.7,7.8-5.2,10.8s-8.7,4.5-15.5,4.5c-6.2,0-11.1-1.3-14.8-3.8
					C860.8,427.2,858.5,423.8,857.3,419.4z"/>
				<path class="st3" d="M909.5,409c0-4,1-7.9,3-11.6c2-3.8,4.8-6.6,8.4-8.6s7.7-3,12.1-3c6.9,0,12.6,2.2,17,6.7
					c4.4,4.5,6.6,10.1,6.6,17c0,6.9-2.2,12.6-6.7,17.2c-4.5,4.5-10.1,6.8-16.8,6.8c-4.2,0-8.2-0.9-12-2.8s-6.7-4.7-8.7-8.3
					S909.5,414.2,909.5,409z M921.9,409.6c0,4.5,1.1,8,3.2,10.4s4.8,3.6,7.9,3.6s5.8-1.2,7.9-3.6s3.2-5.9,3.2-10.5
					c0-4.5-1.1-7.9-3.2-10.3s-4.8-3.6-7.9-3.6s-5.8,1.2-7.9,3.6S921.9,405.1,921.9,409.6z"/>
				<path class="st3" d="M1009.3,432.5h-12.1v-23.3c0-4.9-0.3-8.1-0.8-9.6c-0.5-1.4-1.4-2.6-2.5-3.4c-1.2-0.8-2.6-1.2-4.2-1.2
					c-2.1,0-4,0.6-5.6,1.7c-1.7,1.1-2.8,2.7-3.4,4.6c-0.6,1.9-0.9,5.4-0.9,10.5v20.7h-12.1v-45.6h11.2v6.7c4-5.2,9-7.7,15-7.7
					c2.7,0,5.1,0.5,7.3,1.4c2.2,1,3.9,2.2,5,3.7c1.1,1.5,1.9,3.2,2.4,5.1c0.4,1.9,0.7,4.6,0.7,8.1V432.5z"/>
			</g>
			<g class="st2">
				<path class="st3" d="M483.5,526.5h-11.2v-6.7c-1.9,2.6-4.1,4.5-6.6,5.8s-5.1,1.9-7.7,1.9c-5.2,0-9.7-2.1-13.5-6.3
					c-3.7-4.2-5.6-10.1-5.6-17.7c0-7.7,1.8-13.6,5.5-17.6c3.6-4,8.2-6,13.8-6c5.1,0,9.5,2.1,13.2,6.4v-22.7h12.1V526.5z
					 M451.3,502.7c0,4.9,0.7,8.4,2,10.6c1.9,3.2,4.7,4.7,8.2,4.7c2.8,0,5.1-1.2,7.1-3.5c1.9-2.4,2.9-5.9,2.9-10.6
					c0-5.2-0.9-9-2.8-11.3c-1.9-2.3-4.3-3.5-7.3-3.5c-2.9,0-5.3,1.1-7.2,3.4S451.3,498.1,451.3,502.7z"/>
				<path class="st3" d="M523.6,511.9l12,2c-1.5,4.4-4,7.8-7.3,10.1c-3.3,2.3-7.5,3.5-12.5,3.5c-7.9,0-13.8-2.6-17.6-7.8
					c-3-4.2-4.5-9.4-4.5-15.7c0-7.6,2-13.5,5.9-17.8c4-4.3,9-6.4,15-6.4c6.8,0,12.1,2.2,16.1,6.7c3.9,4.5,5.8,11.4,5.6,20.6H506
					c0.1,3.6,1.1,6.4,2.9,8.4c1.9,2,4.2,3,7,3c1.9,0,3.5-0.5,4.8-1.5S522.9,514.2,523.6,511.9z M524.3,499.7c-0.1-3.5-1-6.2-2.7-8
					c-1.7-1.8-3.8-2.7-6.3-2.7c-2.6,0-4.8,1-6.5,2.9c-1.7,1.9-2.6,4.5-2.5,7.8H524.3z"/>
				<path class="st3" d="M543.6,513.4l12.1-1.8c0.5,2.3,1.6,4.1,3.1,5.3c1.6,1.2,3.8,1.8,6.6,1.8c3.1,0,5.5-0.6,7-1.7
					c1.1-0.8,1.6-1.9,1.6-3.2c0-0.9-0.3-1.7-0.9-2.3c-0.6-0.6-1.9-1.1-4-1.6c-9.7-2.1-15.9-4.1-18.5-5.9c-3.6-2.5-5.4-5.9-5.4-10.3
					c0-4,1.6-7.3,4.7-10c3.1-2.7,8-4,14.5-4c6.2,0,10.9,1,13.9,3.1c3,2,5.1,5,6.3,9l-11.4,2.1c-0.5-1.8-1.4-3.1-2.8-4.1
					c-1.4-0.9-3.3-1.4-5.8-1.4c-3.2,0-5.5,0.4-6.8,1.3c-0.9,0.6-1.4,1.4-1.4,2.4c0,0.9,0.4,1.6,1.2,2.2c1.1,0.8,4.8,1.9,11.3,3.4
					c6.4,1.5,10.9,3.3,13.5,5.4c2.5,2.1,3.8,5.1,3.8,9c0,4.2-1.7,7.8-5.2,10.8c-3.5,3-8.7,4.5-15.5,4.5c-6.2,0-11.1-1.3-14.8-3.8
					C547.1,521.2,544.7,517.8,543.6,513.4z"/>
				<path class="st3" d="M622,503c0-4,1-7.9,3-11.6c2-3.8,4.8-6.6,8.4-8.6c3.6-2,7.7-3,12.1-3c6.9,0,12.6,2.2,17,6.7
					c4.4,4.5,6.6,10.1,6.6,17c0,6.9-2.2,12.6-6.7,17.2c-4.5,4.5-10.1,6.8-16.8,6.8c-4.2,0-8.2-0.9-12-2.8c-3.8-1.9-6.7-4.7-8.7-8.3
					S622,508.2,622,503z M634.3,503.6c0,4.5,1.1,8,3.2,10.4s4.8,3.6,7.9,3.6c3.2,0,5.8-1.2,7.9-3.6c2.1-2.4,3.2-5.9,3.2-10.5
					c0-4.5-1.1-7.9-3.2-10.3c-2.1-2.4-4.8-3.6-7.9-3.6c-3.2,0-5.8,1.2-7.9,3.6S634.3,499.1,634.3,503.6z"/>
				<path class="st3" d="M679.9,480.8h11.3v6.7c1.5-2.3,3.4-4.2,5.9-5.6c2.5-1.4,5.3-2.1,8.3-2.1c5.3,0,9.8,2.1,13.5,6.2
					c3.7,4.2,5.5,9.9,5.5,17.4c0,7.6-1.9,13.5-5.6,17.8c-3.7,4.2-8.2,6.3-13.5,6.3c-2.5,0-4.8-0.5-6.9-1.5c-2-1-4.2-2.7-6.5-5.2v23
					h-12.1V480.8z M691.9,502.9c0,5.1,1,8.9,3.1,11.4c2,2.4,4.5,3.7,7.4,3.7c2.8,0,5.1-1.1,7-3.4c1.9-2.2,2.8-5.9,2.8-11.1
					c0-4.8-1-8.3-2.9-10.7s-4.3-3.5-7.1-3.5c-3,0-5.4,1.1-7.3,3.4C692.8,495,691.9,498.4,691.9,502.9z"/>
				<path class="st3" d="M756.7,480.8v9.6h-8.3v18.4c0,3.7,0.1,5.9,0.2,6.5c0.2,0.6,0.5,1.1,1.1,1.5c0.6,0.4,1.2,0.6,2,0.6
					c1.1,0,2.7-0.4,4.9-1.2l1,9.4c-2.8,1.2-6,1.8-9.5,1.8c-2.2,0-4.1-0.4-5.9-1.1c-1.7-0.7-3-1.7-3.8-2.8s-1.4-2.7-1.7-4.7
					c-0.3-1.4-0.4-4.2-0.4-8.5v-19.9h-5.5v-9.6h5.5v-9.1l12.1-7v16.1H756.7z"/>
				<path class="st3" d="M766.8,474.6v-11.2h12.1v11.2H766.8z M766.8,526.5v-45.6h12.1v45.6H766.8z"/>
				<path class="st3" d="M790.3,503c0-4,1-7.9,3-11.6c2-3.8,4.8-6.6,8.4-8.6s7.7-3,12.1-3c6.9,0,12.6,2.2,17,6.7
					c4.4,4.5,6.6,10.1,6.6,17c0,6.9-2.2,12.6-6.7,17.2c-4.5,4.5-10.1,6.8-16.8,6.8c-4.2,0-8.2-0.9-12-2.8s-6.7-4.7-8.7-8.3
					S790.3,508.2,790.3,503z M802.6,503.6c0,4.5,1.1,8,3.2,10.4s4.8,3.6,7.9,3.6s5.8-1.2,7.9-3.6s3.2-5.9,3.2-10.5
					c0-4.5-1.1-7.9-3.2-10.3s-4.8-3.6-7.9-3.6s-5.8,1.2-7.9,3.6S802.6,499.1,802.6,503.6z"/>
				<path class="st3" d="M890.1,526.5H878v-23.3c0-4.9-0.3-8.1-0.8-9.6c-0.5-1.4-1.4-2.6-2.5-3.4c-1.2-0.8-2.6-1.2-4.2-1.2
					c-2.1,0-4,0.6-5.6,1.7c-1.7,1.1-2.8,2.7-3.4,4.6s-0.9,5.4-0.9,10.5v20.7h-12.1v-45.6h11.2v6.7c4-5.2,9-7.7,15-7.7
					c2.7,0,5.1,0.5,7.3,1.4c2.2,1,3.9,2.2,5,3.7c1.1,1.5,1.9,3.2,2.4,5.1s0.7,4.6,0.7,8.1V526.5z"/>
				<path class="st3" d="M899.8,513.4l12.1-1.8c0.5,2.3,1.6,4.1,3.1,5.3c1.6,1.2,3.8,1.8,6.6,1.8c3.1,0,5.5-0.6,7-1.7
					c1.1-0.8,1.6-1.9,1.6-3.2c0-0.9-0.3-1.7-0.9-2.3c-0.6-0.6-1.9-1.1-4-1.6c-9.7-2.1-15.9-4.1-18.5-5.9c-3.6-2.5-5.4-5.9-5.4-10.3
					c0-4,1.6-7.3,4.7-10c3.1-2.7,8-4,14.5-4c6.2,0,10.9,1,13.9,3.1c3,2,5.1,5,6.3,9l-11.4,2.1c-0.5-1.8-1.4-3.1-2.8-4.1
					c-1.4-0.9-3.3-1.4-5.8-1.4c-3.2,0-5.5,0.4-6.8,1.3c-0.9,0.6-1.4,1.4-1.4,2.4c0,0.9,0.4,1.6,1.2,2.2c1.1,0.8,4.8,1.9,11.3,3.4
					c6.4,1.5,10.9,3.3,13.5,5.4c2.5,2.1,3.8,5.1,3.8,9c0,4.2-1.7,7.8-5.2,10.8c-3.5,3-8.7,4.5-15.5,4.5c-6.2,0-11.1-1.3-14.8-3.8
					C903.3,521.2,900.9,517.8,899.8,513.4z"/>
			</g>
			<g class="st2">
				<path class="st3" d="M468.1,605.9l12,2c-1.5,4.4-4,7.8-7.3,10.1c-3.3,2.3-7.5,3.5-12.5,3.5c-7.9,0-13.8-2.6-17.6-7.8
					c-3-4.2-4.5-9.4-4.5-15.7c0-7.6,2-13.5,5.9-17.8c4-4.3,9-6.4,15-6.4c6.8,0,12.1,2.2,16.1,6.7c3.9,4.5,5.8,11.4,5.6,20.6h-30.3
					c0.1,3.6,1.1,6.4,2.9,8.4c1.9,2,4.2,3,7,3c1.9,0,3.5-0.5,4.8-1.5S467.4,608.2,468.1,605.9z M468.7,593.7c-0.1-3.5-1-6.2-2.7-8
					c-1.7-1.8-3.8-2.7-6.3-2.7c-2.6,0-4.8,1-6.5,2.9c-1.7,1.9-2.6,4.5-2.5,7.8H468.7z"/>
				<path class="st3" d="M513.3,574.8v9.6H505v18.4c0,3.7,0.1,5.9,0.2,6.5c0.2,0.6,0.5,1.1,1.1,1.5c0.6,0.4,1.2,0.6,2,0.6
					c1.1,0,2.7-0.4,4.9-1.2l1,9.4c-2.8,1.2-6,1.8-9.5,1.8c-2.2,0-4.1-0.4-5.9-1.1c-1.7-0.7-3-1.7-3.8-2.8s-1.4-2.7-1.7-4.7
					c-0.3-1.4-0.4-4.2-0.4-8.5v-19.9h-5.5v-9.6h5.5v-9.1l12.1-7v16.1H513.3z"/>
				<path class="st3" d="M589.4,588.3l-11.9,2.1c-0.4-2.4-1.3-4.2-2.7-5.4s-3.3-1.8-5.5-1.8c-3,0-5.4,1-7.2,3.1
					c-1.8,2.1-2.7,5.6-2.7,10.4c0,5.4,0.9,9.2,2.7,11.5c1.8,2.2,4.3,3.4,7.3,3.4c2.3,0,4.2-0.7,5.6-2c1.5-1.3,2.5-3.5,3.1-6.7
					l11.9,2c-1.2,5.4-3.6,9.6-7.1,12.3c-3.5,2.8-8.2,4.2-14.1,4.2c-6.7,0-12-2.1-16-6.3c-4-4.2-6-10-6-17.5c0-7.5,2-13.4,6-17.6
					c4-4.2,9.4-6.3,16.2-6.3c5.6,0,10,1.2,13.3,3.6C585.6,579.8,588,583.4,589.4,588.3z"/>
				<path class="st3" d="M612.3,557.5v23.2c3.9-4.6,8.6-6.8,14-6.8c2.8,0,5.3,0.5,7.5,1.5s3.9,2.3,5,4c1.1,1.6,1.9,3.4,2.3,5.3
					c0.4,1.9,0.6,5,0.6,9.1v26.8h-12.1v-24.1c0-4.8-0.2-7.8-0.7-9.1c-0.5-1.3-1.3-2.3-2.4-3.1c-1.2-0.8-2.6-1.1-4.4-1.1
					c-2,0-3.8,0.5-5.4,1.5c-1.6,1-2.7,2.4-3.5,4.4c-0.7,2-1.1,4.9-1.1,8.7v22.9h-12.1v-63H612.3z"/>
				<path class="st3" d="M653,597c0-4,1-7.9,3-11.6c2-3.8,4.8-6.6,8.4-8.6c3.6-2,7.7-3,12.1-3c6.9,0,12.6,2.2,17,6.7
					c4.4,4.5,6.6,10.1,6.6,17c0,6.9-2.2,12.6-6.7,17.2c-4.5,4.5-10.1,6.8-16.8,6.8c-4.2,0-8.2-0.9-12-2.8c-3.8-1.9-6.7-4.7-8.7-8.3
					S653,602.2,653,597z M665.4,597.6c0,4.5,1.1,8,3.2,10.4s4.8,3.6,7.9,3.6c3.2,0,5.8-1.2,7.9-3.6c2.1-2.4,3.2-5.9,3.2-10.5
					c0-4.5-1.1-7.9-3.2-10.3c-2.1-2.4-4.8-3.6-7.9-3.6c-3.2,0-5.8,1.2-7.9,3.6S665.4,593.1,665.4,597.6z"/>
				<path class="st3" d="M711.3,568.6v-11.2h12.1v11.2H711.3z M711.3,620.5v-45.6h12.1v45.6H711.3z"/>
				<path class="st3" d="M731.7,620.5l16.5-23.5l-15.8-22.1h14.7l8.1,12.5l8.5-12.5h14.2l-15.5,21.6l16.9,24h-14.8l-9.3-14.1
					l-9.4,14.1H731.7z"/>
			</g>
		</g>
		<path class="st4" d="M160.4,332h146.3c14.1,0,24.2,2.2,30.5,6.6s9.4,11.6,9.4,21.8c0,6.2-3.7,14.3-11.1,24.4s-15.8,21.3-25.3,33.5
			S291,445.7,281,463.9s-19.2,40.4-27.6,66.6c-3.5,11.6-6,21.2-7.5,28.8c-1.5,7.6-3.1,17.5-4.8,29.7c-1.8,12.2-3.3,21.5-4.6,27.9
			c-3.1,14.9-7.4,25.3-13.1,31.1s-13.1,8.7-22.5,8.7c-8.9,0-16.1-3.1-21.5-9.3s-8.1-15.4-8.1-27.6c0-9.4,2-22.1,5.9-38.2
			s10.4-35.4,19.3-57.9c20.2-50.3,47.6-97.4,81.3-139.8H160.4c-12.3,0-21.5-2.2-27.6-6.7s-9.1-11.5-9.1-21c0-10.1,3.2-16.6,9.7-19.6
			C139.9,333.6,148.9,332,160.4,332z"/>
	</g>
</g>
</svg>
