<?xml version="1.0" encoding="utf-8"?>
<!-- Generator: Adobe Illustrator 24.3.0, SVG Export Plug-In . SVG Version: 6.00 Build 0)  -->
<svg version="1.1" id="Layer_1" xmlns="http://www.w3.org/2000/svg" xmlns:xlink="http://www.w3.org/1999/xlink" x="0px" y="0px"
	 viewBox="0 0 1400 988.6" style="enable-background:new 0 0 1400 988.6;" xml:space="preserve">
<style type="text/css">
	.st0{fill:none;}
	.st1{fill:#79BA43;}
	.st2{enable-background:new    ;}
	.st3{fill:#FFFFFF;}
	.st4{fill:#000E2B;}
</style>
<g id="Layer_2_1_">
	<g id="Layer_1-2">
		<rect class="st0" width="1400" height="988.6"/>
		<path class="st1" d="M942,234.9c307.5,125.3,379.2,276.4,316.3,443.3C1201.3,828.9,782,941.7,466,780.5s-416-420-277.4-550.1
			C328.8,98.9,608.3,98.9,942,234.9z"/>
		<g class="st2">
			<path class="st3" d="M440.8,510.9v-63h12.7v63H440.8z"/>
			<path class="st3" d="M466.4,465.2h11.1v6.2c4-4.8,8.7-7.3,14.2-7.3c2.9,0,5.5,0.6,7.6,1.8s3.9,3,5.3,5.5c2-2.4,4.2-4.3,6.5-5.5
				s4.8-1.8,7.4-1.8c3.4,0,6.2,0.7,8.5,2c2.3,1.4,4.1,3.4,5.2,6c0.8,1.9,1.2,5.1,1.2,9.5v29.2h-12.1v-26.1c0-4.5-0.4-7.4-1.2-8.8
				c-1.1-1.7-2.8-2.6-5.2-2.6c-1.7,0-3.3,0.5-4.8,1.5c-1.5,1-2.6,2.5-3.2,4.5c-0.7,2-1,5.1-1,9.4v21.9h-12.1v-25
				c0-4.4-0.2-7.3-0.6-8.6s-1.1-2.2-2-2.9c-0.9-0.6-2.1-0.9-3.7-0.9c-1.9,0-3.5,0.5-5,1.5c-1.5,1-2.6,2.4-3.2,4.3s-1,5-1,9.4v22.2
				h-12.1V465.2z"/>
			<path class="st3" d="M546.9,465.2h11.3v6.7c1.5-2.3,3.4-4.2,5.9-5.6c2.5-1.4,5.3-2.1,8.3-2.1c5.3,0,9.8,2.1,13.5,6.2
				c3.7,4.2,5.5,9.9,5.5,17.4c0,7.6-1.9,13.5-5.6,17.8c-3.7,4.2-8.2,6.3-13.5,6.3c-2.5,0-4.8-0.5-6.9-1.5s-4.2-2.7-6.5-5.2v23h-12.1
				V465.2z M558.9,487.3c0,5.1,1,8.9,3.1,11.4s4.5,3.7,7.4,3.7c2.8,0,5.1-1.1,7-3.4c1.9-2.2,2.8-5.9,2.8-11.1c0-4.8-1-8.3-2.9-10.7
				s-4.3-3.5-7.1-3.5c-3,0-5.4,1.1-7.3,3.4S558.9,482.8,558.9,487.3z"/>
			<path class="st3" d="M602.8,510.9v-63h12.1v63H602.8z"/>
			<path class="st3" d="M638,479.1l-11-2c1.2-4.4,3.4-7.7,6.4-9.8c3-2.1,7.5-3.2,13.4-3.2c5.4,0,9.4,0.6,12,1.9
				c2.6,1.3,4.5,2.9,5.6,4.9c1.1,2,1.6,5.6,1.6,10.8l-0.1,14.1c0,4,0.2,7,0.6,8.9c0.4,1.9,1.1,3.9,2.2,6.1h-11.9
				c-0.3-0.8-0.7-2-1.2-3.6c-0.2-0.7-0.3-1.2-0.4-1.4c-2.1,2-4.3,3.5-6.6,4.5c-2.3,1-4.9,1.5-7.5,1.5c-4.7,0-8.4-1.3-11.1-3.8
				c-2.7-2.5-4.1-5.8-4.1-9.7c0-2.6,0.6-4.9,1.8-6.9c1.2-2,3-3.6,5.2-4.6c2.2-1.1,5.4-2,9.6-2.8c5.6-1.1,9.6-2,11.7-3v-1.2
				c0-2.3-0.6-4-1.7-5c-1.1-1-3.3-1.5-6.5-1.5c-2.1,0-3.8,0.4-5,1.3C639.7,475.5,638.8,477,638,479.1z M654.2,488.9
				c-1.5,0.5-4,1.1-7.3,1.8c-3.4,0.7-5.5,1.4-6.6,2.1c-1.6,1.1-2.4,2.5-2.4,4.3c0,1.7,0.6,3.2,1.9,4.4c1.3,1.2,2.9,1.8,4.8,1.8
				c2.2,0,4.3-0.7,6.2-2.1c1.5-1.1,2.4-2.4,2.9-4c0.3-1,0.5-3,0.5-5.9V488.9z"/>
			<path class="st3" d="M721.2,510.9h-12.1v-23.3c0-4.9-0.3-8.1-0.8-9.6c-0.5-1.4-1.4-2.6-2.5-3.4c-1.2-0.8-2.6-1.2-4.2-1.2
				c-2.1,0-4,0.6-5.6,1.7c-1.7,1.1-2.8,2.7-3.4,4.6c-0.6,1.9-0.9,5.4-0.9,10.5v20.7h-12.1v-45.6h11.2v6.7c4-5.2,9-7.7,15-7.7
				c2.7,0,5.1,0.5,7.3,1.4c2.2,1,3.9,2.2,5,3.7c1.1,1.5,1.9,3.2,2.4,5.1c0.4,1.9,0.7,4.6,0.7,8.1V510.9z"/>
			<path class="st3" d="M756.1,465.2v9.6h-8.3v18.4c0,3.7,0.1,5.9,0.2,6.5c0.2,0.6,0.5,1.1,1.1,1.5c0.6,0.4,1.2,0.6,2,0.6
				c1.1,0,2.7-0.4,4.9-1.2l1,9.4c-2.8,1.2-6,1.8-9.5,1.8c-2.2,0-4.1-0.4-5.9-1.1s-3-1.7-3.8-2.8s-1.4-2.7-1.7-4.7
				c-0.3-1.4-0.4-4.2-0.4-8.5v-19.9h-5.5v-9.6h5.5v-9.1l12.1-7v16.1H756.1z"/>
			<path class="st3" d="M775.3,479.1l-11-2c1.2-4.4,3.4-7.7,6.4-9.8c3-2.1,7.5-3.2,13.4-3.2c5.4,0,9.4,0.6,12,1.9
				c2.6,1.3,4.5,2.9,5.6,4.9c1.1,2,1.6,5.6,1.6,10.8l-0.1,14.1c0,4,0.2,7,0.6,8.9c0.4,1.9,1.1,3.9,2.2,6.1H794
				c-0.3-0.8-0.7-2-1.2-3.6c-0.2-0.7-0.3-1.2-0.4-1.4c-2.1,2-4.3,3.5-6.6,4.5s-4.9,1.5-7.5,1.5c-4.7,0-8.4-1.3-11.1-3.8
				c-2.7-2.5-4.1-5.8-4.1-9.7c0-2.6,0.6-4.9,1.8-6.9s3-3.6,5.2-4.6s5.4-2,9.6-2.8c5.6-1.1,9.6-2,11.7-3v-1.2c0-2.3-0.6-4-1.7-5
				s-3.3-1.5-6.5-1.5c-2.1,0-3.8,0.4-5,1.3C777,475.5,776,477,775.3,479.1z M791.5,488.9c-1.5,0.5-4,1.1-7.3,1.8
				c-3.4,0.7-5.5,1.4-6.6,2.1c-1.6,1.1-2.4,2.5-2.4,4.3c0,1.7,0.6,3.2,1.9,4.4c1.3,1.2,2.9,1.8,4.8,1.8c2.2,0,4.3-0.7,6.2-2.1
				c1.5-1.1,2.4-2.4,2.9-4c0.3-1,0.5-3,0.5-5.9V488.9z"/>
			<path class="st3" d="M837.9,465.2v9.6h-8.3v18.4c0,3.7,0.1,5.9,0.2,6.5c0.2,0.6,0.5,1.1,1.1,1.5c0.6,0.4,1.2,0.6,2,0.6
				c1.1,0,2.7-0.4,4.9-1.2l1,9.4c-2.8,1.2-6,1.8-9.5,1.8c-2.2,0-4.1-0.4-5.9-1.1c-1.7-0.7-3-1.7-3.8-2.8s-1.4-2.7-1.7-4.7
				c-0.3-1.4-0.4-4.2-0.4-8.5v-19.9H812v-9.6h5.5v-9.1l12.1-7v16.1H837.9z"/>
			<path class="st3" d="M848,459v-11.2h12.1V459H848z M848,510.9v-45.6h12.1v45.6H848z"/>
			<path class="st3" d="M871.5,487.4c0-4,1-7.9,3-11.6c2-3.8,4.8-6.6,8.4-8.6s7.7-3,12.1-3c6.9,0,12.6,2.2,17,6.7
				c4.4,4.5,6.6,10.1,6.6,17c0,6.9-2.2,12.6-6.7,17.2c-4.5,4.5-10.1,6.8-16.8,6.8c-4.2,0-8.2-0.9-12-2.8s-6.7-4.7-8.7-8.3
				S871.5,492.6,871.5,487.4z M883.8,488c0,4.5,1.1,8,3.2,10.4s4.8,3.6,7.9,3.6s5.8-1.2,7.9-3.6s3.2-5.9,3.2-10.5
				c0-4.5-1.1-7.9-3.2-10.3s-4.8-3.6-7.9-3.6s-5.8,1.2-7.9,3.6S883.8,483.5,883.8,488z"/>
			<path class="st3" d="M971.3,510.9h-12.1v-23.3c0-4.9-0.3-8.1-0.8-9.6c-0.5-1.4-1.4-2.6-2.5-3.4c-1.2-0.8-2.6-1.2-4.2-1.2
				c-2.1,0-4,0.6-5.6,1.7c-1.7,1.1-2.8,2.7-3.4,4.6s-0.9,5.4-0.9,10.5v20.7h-12.1v-45.6h11.2v6.7c4-5.2,9-7.7,15-7.7
				c2.7,0,5.1,0.5,7.3,1.4c2.2,1,3.9,2.2,5,3.7c1.1,1.5,1.9,3.2,2.4,5.1s0.7,4.6,0.7,8.1V510.9z"/>
		</g>
		<path class="st4" d="M136.3,413.6c0-14.7,4.2-29,12-41.4c8-13,19.7-23.3,35.2-31.1s33.5-11.6,54.2-11.6c17.4,0,32.7,2.3,45.9,6.8
			s24.2,10.8,33,18.8c8.4,7.5,15.1,16.7,19.6,27c4.3,10.1,6.4,21,6.4,32c0,14.4-3.7,27.2-11.1,38.5s-18.4,20.5-33.1,27.7
			c12.4,4.8,22.8,11.2,31,19c8.1,7.6,14.4,16.9,18.6,27.2c4.3,10.9,6.5,22.6,6.3,34.4c0,18.5-4.5,35.2-13.4,50.2s-22,26.7-39.3,35.3
			c-17.3,8.5-37.6,12.7-61.1,12.7c-24.3,0-45.1-4.2-62.4-12.7s-30.3-20.1-39.1-35c-8.8-14.9-13.2-31.5-13.2-50
			c0-39.4,18.6-66.4,55.8-81.1C151.3,466.1,136.3,443.9,136.3,413.6z M293.8,559c0-11.4-2.3-21.4-7-29.9
			c-4.5-8.3-11.4-15.1-19.8-19.6c-8.8-4.6-18.7-6.9-28.6-6.8c-14.9,0-27.5,5-37.6,14.9c-10.1,9.9-15.2,23.9-15.2,41.7
			c0,11.4,2.4,21.5,7.1,30.2c4.5,8.4,11.2,15.4,19.4,20.2c8.4,4.8,17.9,7.3,27.5,7.1c9.7,0.2,19.3-2.4,27.7-7.3
			c8.2-4.8,14.9-11.9,19.3-20.4C291.5,580.5,293.8,570.4,293.8,559z M238.9,371.4c-13.8,0-24.9,4.3-33.3,12.9
			c-8.4,8.6-12.6,19.6-12.6,33.1c0,12.5,4.3,22.8,13,31.1s19.8,12.4,33.4,12.4c6.4,0.1,12.8-1,18.8-3.3c5.4-2,10.3-5.1,14.5-9.1
			c4-3.9,7.2-8.6,9.3-13.8c2.3-5.6,3.4-11.6,3.3-17.7c0.1-8.1-1.9-16.2-5.8-23.3c-3.8-6.9-9.5-12.5-16.4-16.3
			C256,373.3,247.9,371.4,238.9,371.4L238.9,371.4z"/>
	</g>
</g>
</svg>
