<?xml version="1.0" encoding="UTF-8"?> <!-- Generator: Adobe Illustrator 24.2.1, SVG Export Plug-In . SVG Version: 6.00 Build 0) --> <svg xmlns="http://www.w3.org/2000/svg" xmlns:xlink="http://www.w3.org/1999/xlink" version="1.1" x="0px" y="0px" viewBox="0 0 1466 768" style="enable-background:new 0 0 1466 768;" xml:space="preserve"> <style type="text/css"> .st0{display:none;} .st1{display:inline;fill:#DBBF25;} .st2{display:inline;} .st3{fill:#FFFFFF;} .st4{font-family:'HelveticaNeue-Bold';} .st5{font-size:88px;} .st6{letter-spacing:2;} .st7{fill:#000E2B;} .st8{display:inline;fill:#79BA43;} .st9{display:inline;fill:#DC2B3F;} .st10{fill:#DC2B3F;} .st11{display:inline;fill:#FFFFFF;} .st12{display:inline;fill:#000E2B;} </style> <g id="_x31_" class="st0"> <path class="st1" d="M451.6,90c197.3-77.5,469.2-88.2,625.3,44c188.3,159.5,105.2,468.6-139.7,568.7 c-218.9,89.5-493.9,74.8-668.4-106.6C125.9,447.8,155.9,206.2,451.6,90z"></path> <text transform="matrix(1 0 0 1 512.1721 418.4787)" class="st2"><tspan x="0" y="0" class="st3 st4 st5 st6">Identification</tspan><tspan x="0" y="94" class="st3 st4 st5 st6">du problème</tspan></text> <g class="st2"> <path class="st7" d="M380.4,496V296c-37.2,28.6-62.3,42.8-75.1,42.8c-6.2,0-11.6-2.5-16.4-7.4c-4.8-4.9-7.1-10.6-7.1-17 c0-7.5,2.3-13,7-16.5c4.7-3.5,13-8.1,24.8-13.6c17.7-8.3,31.9-17.1,42.5-26.4c10.6-9.2,20-19.6,28.2-31 c8.2-11.4,13.5-18.5,16-21.1c2.5-2.6,7.2-4,14.1-4c7.8,0,14,3,18.7,9c4.7,6,7,14.3,7,24.8v251.6c0,29.4-10,44.2-30.1,44.2 c-8.9,0-16.1-3-21.5-9C383.1,516.6,380.4,507.7,380.4,496z"></path> </g> </g> <g id="_x32_" class="st0"> <path class="st8" d="M586.9,156.8c182.3-92.9,384-92.7,543.3-11.1c146.6,75.2,118.2,217.9-62.3,347.9 C801,685.7,456.5,729.2,381.1,605.7C304,479.6,460.7,221.1,586.9,156.8z"></path> <path class="st8" d="M1031.5,600.3c-47.6-64.2-13.9-130.5,47.3-166.2c61.2-35.7,209.4,22.3,257,86.5c47.6,64.2-32.8,111.5-94,147.2 C1180.6,703.5,1079.1,664.5,1031.5,600.3z"></path> <path class="st8" d="M1276.7,392.6c54.1-3.1,62.9,26,64.3,51.6c1.5,25.6-29.9,29.1-83.9,32.2c-54.1,3.1-67.1-13.1-68.6-38.7 C1187.1,412.1,1222.6,395.7,1276.7,392.6z"></path> <text transform="matrix(1 0 0 1 496.9626 323.7522)" class="st2"><tspan x="0" y="0" class="st3 st4 st5 st6">Formation d'un</tspan><tspan x="0" y="94" class="st3 st4 st5 st6">comité de</tspan><tspan x="0" y="188" class="st3 st4 st5 st6">substitution</tspan></text> <g class="st2"> <path class="st7" d="M291.3,479H406c11.4,0,20.1,2.3,26.1,7c6,4.7,9,11.1,9,19.1c0,7.2-2.4,13.3-7.1,18.2c-4.8,5-12,7.5-21.6,7.5 H250.6c-11,0-19.6-3-25.7-9.1c-6.2-6.1-9.2-13.2-9.2-21.4c0-5.3,2-12.3,5.9-21c4-8.7,8.3-15.6,13-20.5 c19.5-20.2,37.1-37.5,52.7-52c15.7-14.4,26.9-23.9,33.6-28.5c12-8.5,22-17,30-25.6c8-8.6,14.1-17.4,18.2-26.4 c4.2-9,6.3-17.8,6.3-26.5c0-9.4-2.2-17.8-6.7-25.2c-4.5-7.4-10.5-13.1-18.2-17.2c-7.7-4.1-16.1-6.2-25.2-6.2 c-19.2,0-34.3,8.4-45.3,25.3c-1.5,2.2-3.9,8.2-7.4,18c-3.4,9.8-7.3,17.4-11.6,22.6c-4.3,5.3-10.7,7.9-19,7.9 c-7.3,0-13.4-2.4-18.2-7.3c-4.8-4.8-7.3-11.4-7.3-19.8c0-10.1,2.3-20.7,6.8-31.6c4.5-11,11.3-20.9,20.3-29.9 c9-8.9,20.4-16.1,34.3-21.6c13.8-5.5,30.1-8.2,48.7-8.2c22.4,0,41.5,3.5,57.3,10.5c10.3,4.7,19.3,11.1,27,19.3 c7.8,8.2,13.8,17.7,18.1,28.5c4.3,10.8,6.5,21.9,6.5,33.5c0,18.2-4.5,34.7-13.5,49.5c-9,14.9-18.2,26.5-27.6,34.9 c-9.4,8.4-25.1,21.6-47.1,39.7c-22,18-37.2,32-45.4,42C298.5,468.7,294.9,473.4,291.3,479z"></path> </g> </g> <g id="_x33_" class="st0"> <path class="st9" d="M1417.3,505.6c-69.8,178.3-359.6,280.7-718,217.8C268.2,647.8,9,464.8,18.4,268.7 C27.8,72.7,403.8,1.3,789.8,44.1C1175.8,86.8,1497.1,301.8,1417.3,505.6z"></path> <text transform="matrix(1 0 0 1 491.3354 324.855)" class="st2"><tspan x="0" y="0" class="st3 st4 st5 st6">Étude du problème</tspan><tspan x="0" y="94" class="st3 st4 st5 st6">et définition des</tspan><tspan x="0" y="188" class="st3 st4 st5 st6">critères de sélection</tspan></text> <g class="st2"> <path class="st7" d="M316.3,332c13.5,0,25.1-4,34.8-11.9c9.7-7.9,14.6-19.3,14.6-34.1c0-11.3-3.9-21-11.6-29.1 c-7.8-8.1-18.2-12.2-31.4-12.2c-8.9,0-16.3,1.2-22.1,3.7c-5.8,2.5-10.4,5.8-13.7,9.9c-3.4,4.1-6.6,9.4-9.6,15.8 c-3,6.4-5.8,12.5-8.2,18.2c-1.5,3.1-4.1,5.5-7.9,7.2c-3.8,1.8-8.2,2.6-13.2,2.6c-5.9,0-11.2-2.4-16.1-7.1 c-4.9-4.8-7.4-11.1-7.4-19c0-7.6,2.3-15.6,6.9-24.1c4.6-8.4,11.4-16.4,20.2-24.1c8.9-7.6,19.9-13.7,33.1-18.3 c13.2-4.6,27.9-6.9,44.2-6.9c14.2,0,27.2,1.9,38.9,5.8c11.7,3.9,21.9,9.5,30.5,16.8c8.6,7.3,15.2,15.8,19.6,25.5 c4.4,9.7,6.6,20.1,6.6,31.2c0,14.7-3.2,27.2-9.6,37.7c-6.4,10.5-15.5,20.7-27.4,30.7c11.4,6.2,21.1,13.2,28.9,21.1 c7.8,7.9,13.7,16.7,17.7,26.3c4,9.6,5.9,20,5.9,31.1c0,13.3-2.7,26.2-8,38.7c-5.3,12.5-13.2,23.5-23.6,33.3 c-10.4,9.7-22.7,17.4-37,22.9c-14.3,5.5-30.1,8.2-47.4,8.2c-17.6,0-33.3-3.2-47.2-9.4c-13.9-6.3-25.4-14.2-34.4-23.6 c-9-9.4-15.8-19.2-20.4-29.3c-4.6-10.1-6.9-18.5-6.9-25c0-8.5,2.7-15.3,8.2-20.5c5.5-5.2,12.3-7.8,20.5-7.8 c4.1,0,8.1,1.2,11.9,3.6c3.8,2.4,6.3,5.3,7.5,8.7c7.6,20.4,15.8,35.5,24.5,45.4c8.7,9.9,21,14.8,36.8,14.8 c9.1,0,17.8-2.2,26.3-6.7c8.4-4.5,15.4-11.1,20.9-19.9c5.5-8.8,8.2-19,8.2-30.5c0-17.1-4.7-30.6-14.1-40.3 c-9.4-9.7-22.4-14.6-39.1-14.6c-2.9,0-7.5,0.3-13.6,0.9c-6.2,0.6-10.1,0.9-11.9,0.9c-8.1,0-14.3-2-18.7-6c-4.4-4-6.6-9.6-6.6-16.8 c0-7,2.6-12.7,7.9-17c5.3-4.3,13.1-6.5,23.5-6.5H316.3z"></path> </g> </g> <g id="_x34_"> <path class="st10" d="M137,334.9C152.9,177.2,358.8,36.5,738.6,27.8c318.7-7.3,504.8-8.9,510,213.8 c5.1,222.7-327.7,504.3-658.2,511.9C312.6,759.8,114.7,556.1,137,334.9z"></path> <path class="st10" d="M1373.6,551.4c-33.8,49.3-143.1,119.2-218.6,88.8c-75.4-30.4-106.2-92.8-67.3-166.1 c38.9-73.3,127.9-117.3,208.9-102.6C1410.7,392.1,1433.8,463.6,1373.6,551.4z"></path> <text transform="matrix(1 0 0 1 491.6655 320.7926)" class="st0"><tspan x="0" y="0" class="st11 st4 st5 st6">Proposition</tspan><tspan x="0" y="94" class="st11 st4 st5 st6">d'options</tspan><tspan x="0" y="188" class="st11 st4 st5 st6">de rechange</tspan></text> <g class="st0"> <path class="st12" d="M341.7,494.5v-40.9H231.4c-13.9,0-24.4-3.1-31.3-9.4c-7-6.3-10.4-14.9-10.4-25.7c0-2.8,0.5-5.6,1.5-8.5 c1-2.9,2.6-5.9,4.6-9c2-3.1,4.2-6.2,6.4-9.1c2.2-2.9,4.9-6.5,8.1-10.8l116.5-155.8c7.6-10.3,13.9-17.7,18.8-22.3 c4.9-4.6,10.8-6.9,17.7-6.9c22.3,0,33.4,12.7,33.4,38.2v170.1h9.4c11.3,0,20.3,1.5,27.1,4.6c6.8,3.1,10.2,9.8,10.2,20.2 c0,8.5-2.8,14.7-8.3,18.6c-5.6,3.9-13.9,5.8-25,5.8h-13.4v40.9c0,11.3-2.5,19.7-7.5,25.2c-5,5.5-11.6,8.2-20,8.2 c-8.2,0-14.8-2.8-19.9-8.5C344.2,513.8,341.7,505.5,341.7,494.5z M247.2,404.4h94.5V276.7L247.2,404.4z"></path> </g> </g> <g id="_x35_" class="st0"> <path class="st1" d="M1220.2,470.5c-76.3,122.3-144,95.1-258.8,154.3c-171.5,88.5-152.1,170.2-459.8,59.7 C161.5,562.4,54,340.2,150.1,172.9C246.3,5.6,541.8-24.6,825,62C1095.4,144.6,1323.8,304.4,1220.2,470.5z"></path> <path class="st1" d="M1127.3,587.2c58.5-69.1,113.6-44.2,192.6-33.2c82.8,11.5,154.8,45.6,96.3,114.8 c-58.5,69.1-183.4,80.7-246.2,39.7C1107.1,667.4,1068.8,656.3,1127.3,587.2z"></path> <path class="st1" d="M963.2,695.4c-1.4-25,10.9-61.5,46.5-63.6c35.6-2,42.1,12.5,43.6,37.5c1.4,25,4.2,66.1-31.4,68.1 C986.2,739.5,964.6,720.4,963.2,695.4z"></path> <text transform="matrix(1 0 0 1 495.7032 413.7537)"><tspan x="0" y="0" class="st11 st4 st5 st6">Essais à</tspan><tspan x="0" y="94" class="st11 st4 st5 st6">petite échelle</tspan></text> <g> <path class="st12" d="M409.9,253.5H305.5L293,324.7c20.8-11.1,40-16.7,57.6-16.7c14.1,0,27.2,2.6,39.4,7.9 c12.2,5.3,23,12.6,32.2,21.9c9.2,9.3,16.5,20.3,21.8,33.1c5.3,12.7,7.9,26.4,7.9,41.1c0,21.2-4.8,40.6-14.3,58 c-9.5,17.4-23.3,31.3-41.2,41.5c-17.9,10.3-38.6,15.4-62.1,15.4c-26.2,0-47.5-4.8-63.8-14.5c-16.3-9.7-27.9-20.8-34.7-33.3 c-6.8-12.5-10.2-23.5-10.2-32.8c0-5.7,2.4-11.1,7.1-16.3c4.8-5.1,10.7-7.7,17.9-7.7c12.3,0,21.5,7.1,27.5,21.3 c5.9,13,13.8,23.2,23.7,30.4c10,7.3,21.1,10.9,33.4,10.9c11.3,0,21.2-2.9,29.7-8.8c8.5-5.9,15.1-13.9,19.7-24.2 c4.6-10.3,6.9-21.9,6.9-34.9c0-14.1-2.5-26.1-7.5-36c-5-10-11.6-17.4-20-22.3c-8.3-4.9-17.7-7.4-27.9-7.4c-12.6,0-21.6,1.5-27,4.6 c-5.4,3.1-13.2,8.5-23.4,16.2c-10.2,7.7-18.6,11.5-25.2,11.5c-7.2,0-13.6-2.6-19.1-7.8c-5.6-5.2-8.3-11.1-8.3-17.7 c0-0.7,0.8-5.7,2.4-14.9l18.5-105.2c2-12.6,5.9-21.8,11.4-27.5c5.6-5.7,14.6-8.6,27.2-8.6h116c22.9,0,34.3,8.7,34.3,26.1 c0,7.6-2.8,13.8-8.3,18.5C428.9,251.2,420.7,253.5,409.9,253.5z"></path> </g> </g> <g id="_x36_" class="st0"> <path class="st1" d="M1435.7,432.9C1446.3,669,1190.5,788,767,756.6C383.7,728.1,33.7,576,20.1,338.1 C6.5,100.3,338.9,67.6,710.3,22.6C1090.9-23.5,1427,241.1,1435.7,432.9z"></path> <text transform="matrix(1 0 0 1 492.8822 322.1749)"><tspan x="0" y="0" class="st11 st4 st5 st6">Évaluation des</tspan><tspan x="0" y="94" class="st11 st4 st5 st6">conséquences des</tspan><tspan x="0" y="188" class="st11 st4 st5 st6">options retenues</tspan></text> <g> <path class="st12" d="M270.4,349.5c10-11.9,20.8-20.7,32.5-26.4c11.7-5.7,24.8-8.6,39.3-8.6c13.9,0,26.8,2.6,38.6,7.8 c11.8,5.2,22.1,12.6,31,22.2c8.9,9.6,15.7,20.9,20.5,33.9c4.8,13,7.3,26.7,7.3,40.9c0,20.7-4.7,39.4-14.2,56.2 c-9.4,16.8-22.6,30-39.6,39.4c-16.9,9.4-36.1,14.2-57.5,14.2c-24.6,0-45.9-6-63.7-18c-17.9-12-31.5-29.8-41-53.3 c-9.4-23.5-14.2-52.3-14.2-86.2c0-27.7,2.9-52.4,8.6-74.3c5.7-21.8,13.9-39.9,24.6-54.3c10.7-14.4,23.7-25.2,38.9-32.5 c15.2-7.3,32.6-11,52.1-11c18.7,0,35.3,3.7,49.5,11c14.3,7.3,25,16.4,32.3,27.2c7.2,10.8,10.9,21.2,10.9,31.2 c0,6-2.3,11.5-6.8,16.4c-4.5,4.9-10.3,7.4-17.4,7.4c-6.2,0-11.9-1.9-17.1-5.8c-5.3-3.9-9.2-9.3-11.6-16.1 c-3.4-8.8-8.7-15.9-16-21.2c-7.3-5.3-15.8-8-25.5-8c-7.8,0-15.5,2.2-23.2,6.7c-7.7,4.5-14.2,10.5-19.4,18.1 C278.6,282,272.3,309.7,270.4,349.5z M329.7,486c14.8,0,27-6,36.7-18.1c9.7-12.1,14.5-27.9,14.5-47.6c0-13.3-2.3-24.8-6.8-34.4 c-4.5-9.6-10.8-16.9-18.7-22c-7.9-5.1-16.6-7.6-26.1-7.6c-9.1,0-17.8,2.4-26,7.3c-8.3,4.8-14.9,11.8-20,21 c-5.1,9.2-7.6,19.9-7.6,32.2c0,19.8,5.1,36.3,15.4,49.4C301.3,479.4,314.2,486,329.7,486z"></path> </g> </g> <g id="_x37_" class="st0"> <path class="st1" d="M1224.3,236.9c64.3,198.6-73.4,481-552.1,512.3c-295.3,19.3-633.7-116-652.4-250.1 C-9.6,288.7,210.9,113.4,549.6,40C888.3-33.4,1154.2,20.6,1224.3,236.9z"></path> <text transform="matrix(1 0 0 1 494.6226 322.1442)"><tspan x="0" y="0" class="st11 st4 st5 st6">Comparaison</tspan><tspan x="0" y="94" class="st11 st4 st5 st6">des options</tspan><tspan x="0" y="188" class="st11 st4 st5 st6">et choix</tspan></text> <g> <path class="st12" d="M266.2,204.7h146.3c14.1,0,24.2,2.2,30.5,6.6c6.3,4.4,9.4,11.6,9.4,21.8c0,6.2-3.7,14.3-11.1,24.4 c-7.4,10.1-15.8,21.3-25.3,33.5c-9.4,12.2-19.2,27.4-29.2,45.6c-10,18.2-19.2,40.4-27.6,66.6c-3.5,11.6-6,21.2-7.5,28.8 c-1.5,7.6-3.1,17.5-4.8,29.7c-1.8,12.2-3.3,21.5-4.6,27.9c-3.1,14.9-7.4,25.3-13.1,31.1c-5.6,5.8-13.1,8.7-22.5,8.7 c-8.9,0-16.1-3.1-21.5-9.3c-5.4-6.2-8.1-15.4-8.1-27.6c0-9.4,2-22.1,5.9-38.2c4-16.1,10.4-35.4,19.3-57.9 c8.9-22.5,20.1-45.6,33.5-69.2c13.4-23.7,29.3-47.2,47.8-70.6H266.2c-12.3,0-21.5-2.2-27.6-6.7c-6.1-4.5-9.1-11.5-9.1-21 c0-10.1,3.2-16.6,9.7-19.6C245.7,206.2,254.7,204.7,266.2,204.7z"></path> </g> </g> <g id="_x38_" class="st0"> <path class="st8" d="M859.9,110c289.6,129.5,357.1,285.7,297.8,458.2C1104.1,724,709.2,840.6,411.7,674 C114.2,507.3,19.9,239.8,150.5,105.3C282.5-30.6,545.7-30.6,859.9,110z"></path> <text transform="matrix(1 0 0 1 485.8989 392.8527)" class="st3 st4 st5 st6">Implantation</text> <g> <path class="st12" d="M229.9,284.1c0-14.6,4-28.5,12-41.4c8-13,19.7-23.3,35.2-31.1c15.5-7.8,33.5-11.6,54.2-11.6 c17.4,0,32.7,2.3,45.9,6.8c13.2,4.5,24.2,10.8,33,18.8c8.8,8,15.3,17,19.6,27c4.2,10,6.4,20.7,6.4,32c0,14.4-3.7,27.2-11.1,38.5 c-7.4,11.3-18.4,20.5-33.1,27.7c12.4,4.8,22.8,11.2,31,19c8.2,7.8,14.4,16.9,18.6,27.2c4.2,10.3,6.3,21.8,6.3,34.4 c0,18.5-4.5,35.2-13.4,50.2c-8.9,15-22,26.8-39.3,35.3c-17.3,8.5-37.6,12.7-61.1,12.7c-24.3,0-45.1-4.2-62.4-12.7 c-17.3-8.5-30.3-20.2-39.1-35c-8.8-14.9-13.2-31.5-13.2-50c0-39.4,18.6-66.4,55.8-81.1C244.9,336.6,229.9,314.4,229.9,284.1z M387.4,429.5c0-11.4-2.3-21.4-7-29.9c-4.7-8.5-11.3-15-19.8-19.6c-8.5-4.5-18-6.8-28.6-6.8c-14.9,0-27.5,5-37.6,14.9 c-10.1,10-15.2,23.9-15.2,41.7c0,11.4,2.4,21.5,7.1,30.2c4.8,8.7,11.2,15.5,19.4,20.2c8.2,4.8,17.4,7.1,27.5,7.1 c10.3,0,19.5-2.4,27.7-7.3c8.2-4.8,14.6-11.6,19.3-20.4C385.1,451,387.4,440.9,387.4,429.5z M332.5,241.9 c-13.8,0-24.9,4.3-33.3,12.9c-8.4,8.6-12.6,19.6-12.6,33.1c0,12.5,4.3,22.8,13,31.1c8.6,8.3,19.8,12.4,33.4,12.4 c6.9,0,13.1-1.1,18.8-3.3c5.6-2.2,10.5-5.2,14.5-9.1c4-3.9,7.1-8.5,9.3-13.8c2.2-5.3,3.3-11.2,3.3-17.7c0-8.6-1.9-16.4-5.8-23.3 c-3.9-6.9-9.3-12.3-16.4-16.3C349.6,243.8,341.5,241.9,332.5,241.9z"></path> </g> </g> <g id="_x39_" class="st0"> <path class="st8" d="M435.4,28.5C234.6,72.7-22.4,162.2,90.3,492.3c91,266.6,413.6,297.6,669.3,247.4 c255.7-50.2,316.4-228.9,278.9-433.4C1000,97,782.3-48,435.4,28.5z"></path> <path class="st8" d="M972.4,543.7c-6.5-114.6,101.8-172.3,226.4-179.4s227.2,14.3,233.7,129c6.5,114.6-2,240.7-254.4,225.2 C1053.9,710.8,978.9,658.3,972.4,543.7z"></path> <text transform="matrix(1 0 0 1 500.0496 397.9835)" class="st3 st4 st5 st6">Évaluation</text> <g> <path class="st12" d="M389.9,382.2c-9.7,11.4-20.5,20-32.4,25.8c-11.9,5.8-25.2,8.7-39.7,8.7c-13.8,0-26.6-2.7-38.6-8 c-11.9-5.3-22.3-12.8-31-22.4c-8.7-9.6-15.4-20.8-20.1-33.6c-4.7-12.8-7-26.3-7-40.3c0-15.1,2.6-29.4,7.9-43 c5.3-13.5,12.8-25.3,22.6-35.3c9.8-10,21.5-17.7,35-23.3c13.5-5.6,28.5-8.3,44.9-8.3c18.9,0,35.7,3.4,50.5,10.3 c14.8,6.9,27.2,16.9,37.4,30c10.1,13.1,17.9,29.6,23.3,49.5c5.4,19.9,8.1,42.5,8.1,67.7c0,28.1-2.9,52.9-8.6,74.4 c-5.7,21.5-14,39.5-24.9,54.1c-10.9,14.6-24,25.4-39.2,32.5c-15.2,7.1-32.5,10.7-51.9,10.7c-19,0-35.6-3.6-49.7-10.9 c-14.1-7.3-24.8-16.3-32.1-27c-7.3-10.8-11-21.1-11-31.1c0-6.2,2.3-11.6,6.8-16.5c4.5-4.8,10.3-7.2,17.4-7.2 c6.4,0,12.2,1.8,17.4,5.4c5.1,3.6,9,9,11.6,16.2c3.2,8.8,8.6,15.9,16,21.2c7.5,5.3,15.9,8,25.3,8c8.3,0,16.3-2.1,23.7-6.4 c7.5-4.2,13.8-10.3,19.1-18C381.5,449.6,387.8,421.9,389.9,382.2z M384.8,315c0-10-1.4-19.2-4.1-27.6c-2.7-8.4-6.5-15.7-11.4-21.9 c-4.9-6.2-10.8-11-17.6-14.5c-6.8-3.5-14.2-5.3-22.3-5.3c-13.9,0-25.7,6-35.4,17.9c-9.7,11.9-14.5,27.7-14.5,47.4 c0,19.5,4.8,35,14.5,46.6c9.7,11.6,21.9,17.4,36.7,17.4c9.1,0,17.8-2.4,26-7.1c8.3-4.8,15-11.7,20.2-20.8 C382.2,338,384.8,327.3,384.8,315z"></path> </g> <path class="st8" d="M80.8,109.1c-1.9-33.7,22.7-50.2,51.2-51.8s52.1,5,54,38.7c1.9,33.7,0.4,70.6-57.4,65.2 C100.1,158.5,82.7,142.8,80.8,109.1z"></path> </g> <g id="guides"> </g> </svg> 