<?xml version="1.0" encoding="UTF-8"?> <!-- Generator: Adobe Illustrator 24.2.1, SVG Export Plug-In . SVG Version: 6.00 Build 0) --> <svg xmlns="http://www.w3.org/2000/svg" xmlns:xlink="http://www.w3.org/1999/xlink" version="1.1" x="0px" y="0px" viewBox="0 0 1466 768" style="enable-background:new 0 0 1466 768;" xml:space="preserve"> <style type="text/css"> .st0{fill:#DBBF25;} .st1{fill:#FFFFFF;} .st2{font-family:'HelveticaNeue-Bold';} .st3{font-size:88px;} .st4{letter-spacing:2;} .st5{fill:#000E2B;} .st6{display:none;} .st7{display:inline;fill:#79BA43;} .st8{display:inline;} .st9{display:inline;fill:#DC2B3F;} </style> <g id="_x31_"> <path class="st0" d="M451.6,90c197.3-77.5,469.2-88.2,625.3,44c188.3,159.5,105.2,468.6-139.7,568.7 c-218.9,89.5-493.9,74.8-668.4-106.6C125.9,447.8,155.9,206.2,451.6,90z"></path> <text transform="matrix(1 0 0 1 512.1721 418.4787)"><tspan x="0" y="0" class="st1 st2 st3 st4">Identification</tspan><tspan x="0" y="94" class="st1 st2 st3 st4">du problème</tspan></text> <g> <path class="st5" d="M380.4,496V296c-37.2,28.6-62.3,42.8-75.1,42.8c-6.2,0-11.6-2.5-16.4-7.4c-4.8-4.9-7.1-10.6-7.1-17 c0-7.5,2.3-13,7-16.5c4.7-3.5,13-8.1,24.8-13.6c17.7-8.3,31.9-17.1,42.5-26.4c10.6-9.2,20-19.6,28.2-31 c8.2-11.4,13.5-18.5,16-21.1c2.5-2.6,7.2-4,14.1-4c7.8,0,14,3,18.7,9c4.7,6,7,14.3,7,24.8v251.6c0,29.4-10,44.2-30.1,44.2 c-8.9,0-16.1-3-21.5-9C383.1,516.6,380.4,507.7,380.4,496z"></path> </g> </g> <g id="_x32_" class="st6"> <path class="st7" d="M586.9,156.8c182.3-92.9,384-92.7,543.3-11.1c146.6,75.2,118.2,217.9-62.3,347.9 C801,685.7,456.5,729.2,381.1,605.7C304,479.6,460.7,221.1,586.9,156.8z"></path> <path class="st7" d="M1031.5,600.3c-47.6-64.2-13.9-130.5,47.3-166.2c61.2-35.7,209.4,22.3,257,86.5c47.6,64.2-32.8,111.5-94,147.2 C1180.6,703.5,1079.1,664.5,1031.5,600.3z"></path> <path class="st7" d="M1276.7,392.6c54.1-3.1,62.9,26,64.3,51.6c1.5,25.6-29.9,29.1-83.9,32.2c-54.1,3.1-67.1-13.1-68.6-38.7 C1187.1,412.1,1222.6,395.7,1276.7,392.6z"></path> <text transform="matrix(1 0 0 1 496.9626 323.7522)" class="st8"><tspan x="0" y="0" class="st1 st2 st3 st4">Formation d'un</tspan><tspan x="0" y="94" class="st1 st2 st3 st4">comité de</tspan><tspan x="0" y="188" class="st1 st2 st3 st4">substitution</tspan></text> <g class="st8"> <path class="st5" d="M291.3,479H406c11.4,0,20.1,2.3,26.1,7c6,4.7,9,11.1,9,19.1c0,7.2-2.4,13.3-7.1,18.2c-4.8,5-12,7.5-21.6,7.5 H250.6c-11,0-19.6-3-25.7-9.1c-6.2-6.1-9.2-13.2-9.2-21.4c0-5.3,2-12.3,5.9-21c4-8.7,8.3-15.6,13-20.5 c19.5-20.2,37.1-37.5,52.7-52c15.7-14.4,26.9-23.9,33.6-28.5c12-8.5,22-17,30-25.6c8-8.6,14.1-17.4,18.2-26.4 c4.2-9,6.3-17.8,6.3-26.5c0-9.4-2.2-17.8-6.7-25.2c-4.5-7.4-10.5-13.1-18.2-17.2c-7.7-4.1-16.1-6.2-25.2-6.2 c-19.2,0-34.3,8.4-45.3,25.3c-1.5,2.2-3.9,8.2-7.4,18c-3.4,9.8-7.3,17.4-11.6,22.6c-4.3,5.3-10.7,7.9-19,7.9 c-7.3,0-13.4-2.4-18.2-7.3c-4.8-4.8-7.3-11.4-7.3-19.8c0-10.1,2.3-20.7,6.8-31.6c4.5-11,11.3-20.9,20.3-29.9 c9-8.9,20.4-16.1,34.3-21.6c13.8-5.5,30.1-8.2,48.7-8.2c22.4,0,41.5,3.5,57.3,10.5c10.3,4.7,19.3,11.1,27,19.3 c7.8,8.2,13.8,17.7,18.1,28.5c4.3,10.8,6.5,21.9,6.5,33.5c0,18.2-4.5,34.7-13.5,49.5c-9,14.9-18.2,26.5-27.6,34.9 c-9.4,8.4-25.1,21.6-47.1,39.7c-22,18-37.2,32-45.4,42C298.5,468.7,294.9,473.4,291.3,479z"></path> </g> </g> <g id="_x33_" class="st6"> <path class="st9" d="M1417.3,505.6c-69.8,178.3-359.6,280.7-718,217.8C268.2,647.8,9,464.8,18.4,268.7 C27.8,72.7,403.8,1.3,789.8,44.1C1175.8,86.8,1497.1,301.8,1417.3,505.6z"></path> <text transform="matrix(1 0 0 1 491.3354 324.855)" class="st8"><tspan x="0" y="0" class="st1 st2 st3 st4">Étude du problème</tspan><tspan x="0" y="94" class="st1 st2 st3 st4">et définition des</tspan><tspan x="0" y="188" class="st1 st2 st3 st4">critères de sélection</tspan></text> <g class="st8"> <path class="st5" d="M316.3,332c13.5,0,25.1-4,34.8-11.9c9.7-7.9,14.6-19.3,14.6-34.1c0-11.3-3.9-21-11.6-29.1 c-7.8-8.1-18.2-12.2-31.4-12.2c-8.9,0-16.3,1.2-22.1,3.7c-5.8,2.5-10.4,5.8-13.7,9.9c-3.4,4.1-6.6,9.4-9.6,15.8 c-3,6.4-5.8,12.5-8.2,18.2c-1.5,3.1-4.1,5.5-7.9,7.2c-3.8,1.8-8.2,2.6-13.2,2.6c-5.9,0-11.2-2.4-16.1-7.1 c-4.9-4.8-7.4-11.1-7.4-19c0-7.6,2.3-15.6,6.9-24.1c4.6-8.4,11.4-16.4,20.2-24.1c8.9-7.6,19.9-13.7,33.1-18.3 c13.2-4.6,27.9-6.9,44.2-6.9c14.2,0,27.2,1.9,38.9,5.8c11.7,3.9,21.9,9.5,30.5,16.8c8.6,7.3,15.2,15.8,19.6,25.5 c4.4,9.7,6.6,20.1,6.6,31.2c0,14.7-3.2,27.2-9.6,37.7c-6.4,10.5-15.5,20.7-27.4,30.7c11.4,6.2,21.1,13.2,28.9,21.1 c7.8,7.9,13.7,16.7,17.7,26.3c4,9.6,5.9,20,5.9,31.1c0,13.3-2.7,26.2-8,38.7c-5.3,12.5-13.2,23.5-23.6,33.3 c-10.4,9.7-22.7,17.4-37,22.9c-14.3,5.5-30.1,8.2-47.4,8.2c-17.6,0-33.3-3.2-47.2-9.4c-13.9-6.3-25.4-14.2-34.4-23.6 c-9-9.4-15.8-19.2-20.4-29.3c-4.6-10.1-6.9-18.5-6.9-25c0-8.5,2.7-15.3,8.2-20.5c5.5-5.2,12.3-7.8,20.5-7.8 c4.1,0,8.1,1.2,11.9,3.6c3.8,2.4,6.3,5.3,7.5,8.7c7.6,20.4,15.8,35.5,24.5,45.4c8.7,9.9,21,14.8,36.8,14.8 c9.1,0,17.8-2.2,26.3-6.7c8.4-4.5,15.4-11.1,20.9-19.9c5.5-8.8,8.2-19,8.2-30.5c0-17.1-4.7-30.6-14.1-40.3 c-9.4-9.7-22.4-14.6-39.1-14.6c-2.9,0-7.5,0.3-13.6,0.9c-6.2,0.6-10.1,0.9-11.9,0.9c-8.1,0-14.3-2-18.7-6c-4.4-4-6.6-9.6-6.6-16.8 c0-7,2.6-12.7,7.9-17c5.3-4.3,13.1-6.5,23.5-6.5H316.3z"></path> </g> </g> <g id="guides"> </g> </svg> 