<?xml version="1.0" encoding="UTF-8"?> <!-- Generator: Adobe Illustrator 24.2.1, SVG Export Plug-In . SVG Version: 6.00 Build 0) --> <svg xmlns="http://www.w3.org/2000/svg" xmlns:xlink="http://www.w3.org/1999/xlink" version="1.1" id="Calque_1" x="0px" y="0px" viewBox="0 0 1366 442" style="enable-background:new 0 0 1366 442;" xml:space="preserve"> <style type="text/css"> .st0{fill:#2C445E;} </style> <g> <g> <g> <path class="st0" d="M276.8,237.6c-12.4-8.8-27.3-16.2-44.9-22.3c-17.6-6.1-37.3-11.7-59-16.8c-17.4-4.4-29.8-7.7-37.3-10 c-7.5-2.3-15-5.4-22.3-9.5c-7.4-4-13.1-8.8-17.4-14.5c-4.2-5.6-6.3-12.3-6.3-20c0-12.4,6.2-23.1,18.5-31.9 c12.3-8.8,28.6-13.3,48.7-13.3c21.7,0,37.5,4.1,47.3,12.2c9.8,8.1,18.2,19.5,25.2,34c5.4,10.2,10.5,17.5,15.1,21.9 c4.6,4.5,11.4,6.7,20.4,6.7c9.8,0,18-3.7,24.6-11.2c6.6-7.4,9.8-15.8,9.8-25.1c0-10.2-2.6-20.6-7.9-31.3 c-5.3-10.7-13.6-20.9-25-30.6c-11.4-9.7-25.7-17.5-42.9-23.4c-17.3-5.9-37.7-8.8-61.4-8.8c-29.6,0-55.4,4.4-77.2,13.3 c-21.9,8.9-38.6,21.5-50.2,38c-11.6,16.5-17.3,35.3-17.3,56.5c0,22.3,5.5,40.9,16.4,55.8c10.9,15,25.7,26.8,44.4,35.5 c18.7,8.7,41.8,16.2,69.5,22.7c20.7,4.7,37.2,9.2,49.5,13.4c12.4,4.2,22.4,10.3,30.2,18.3c7.8,8,11.7,18.3,11.7,31.1 c0,16.1-7.2,29.6-21.7,40.3C203,379.6,184.2,385,161.1,385c-16.8,0-30.4-2.7-40.7-8c-10.3-5.3-18.4-12.1-24-20.4 c-5.7-8.2-11-18.5-15.9-30.7c-4-10.3-8.9-18.1-14.6-23.4c-5.7-5.3-12.7-7.9-20.9-7.9c-10.2,0-18.5,3.4-25.1,10.1 c-6.6,6.7-9.9,14.8-9.9,24.3c0,16.3,5.5,33.1,16.4,50.3c10.9,17.3,25.2,31,42.7,41.4c24.7,14.4,56,21.5,94.1,21.5 c31.7,0,59.1-5.3,82.2-15.8c23.1-10.5,40.7-25,52.7-43.6c12-18.6,18-39.5,18-62.8c0-19.4-3.5-35.9-10.4-49.3 C298.8,257.5,289.2,246.4,276.8,237.6z M584.3,147.1c-12.6-13-27.8-22.9-45.5-30c-17.7-7-37.4-10.5-59.1-10.5 c-21.4,0-40.9,3.5-58.6,10.4c-17.7,6.9-32.7,16.8-45.2,29.6c-12.4,12.8-22,28.2-28.6,46.2c-6.7,18-10,37.9-10,59.6 c0,21.5,3.3,41.2,9.8,59c6.6,17.8,16.2,33.2,28.9,46.2c12.7,13.1,27.7,23.1,45.1,30.1c17.4,7,36.9,10.5,58.6,10.5 c21.9,0,41.6-3.5,59.1-10.4c17.5-6.9,32.6-16.9,45.2-29.8c12.6-13,22.2-28.5,28.9-46.5c6.7-18,10-37.8,10-59.1 c0-21.5-3.3-41.2-9.8-59.1C606.5,175.5,596.9,160.1,584.3,147.1z M531.6,320.4c-12.9,16.4-30.2,24.6-51.9,24.6 c-14.4,0-26.9-3.7-37.5-11.2c-10.6-7.4-18.7-18.2-24.4-32.2c-5.7-14-8.5-30.4-8.5-49.1c0-18.9,2.9-35.5,8.7-49.7 c5.8-14.2,14-24.9,24.7-32.2c10.7-7.3,23-10.9,37.1-10.9c21.7,0,39,8.1,51.9,24.4c12.9,16.3,19.3,39.1,19.3,68.3 C551,281.4,544.5,304.1,531.6,320.4z M690.3,44c-10.9,0-19.5,3.7-25.9,11c-6.4,7.4-9.6,18.2-9.6,32.6v311.1 c0,14,3.3,24.8,9.9,32.3c6.6,7.5,15.1,11.3,25.6,11.3c10.7,0,19.4-3.6,26.2-10.9c6.7-7.3,10.1-18.2,10.1-32.7V87.6 c0-14.5-3.3-25.5-10-32.7C709.9,47.6,701.1,44,690.3,44z M993.6,106.7c-10.7,0-19.4,3.6-26,10.8c-6.7,7.2-10,17.9-10,32.1v87.2 c0,34.3-2,56.6-6,66.7c-4.9,11.6-12.7,20.9-23.4,28.1c-10.7,7.2-22.1,10.8-34.2,10.8c-12.4,0-22.3-3.2-29.6-9.6 c-7.3-6.4-12.3-15.2-15.1-26.5c-2.8-11.3-4.2-25.3-4.2-41.9V149.5c0-14.2-3.3-24.9-10-32.1c-6.7-7.2-15.4-10.8-26.3-10.8 c-10.7,0-19.3,3.5-25.7,10.6c-6.5,7.1-9.7,17.8-9.7,32.2v142.2c0,28.6,4.5,50.5,13.4,65.7c7.5,12.6,18.2,22.5,31.9,29.7 c13.7,7.2,29.3,10.8,46.6,10.8c14.4,0,27.1-1.8,38.4-5.4c11.2-3.6,21.5-9.1,31-16.4c9.5-7.4,18.5-16.5,27.1-27.3v9.2 c0,12.8,3.2,22.7,9.6,29.8c6.4,7.1,14.5,10.7,24.3,10.7c9.8,0,17.8-3.4,24-10.3c6.2-6.8,9.3-17.1,9.3-30.7V149.5 c0-14.4-3.2-25.1-9.7-32.2C1012.9,110.2,1004.3,106.7,993.6,106.7z M1341.2,173.3c-9.9-21.5-23.8-37.8-41.8-49.1 c-18-11.3-38.9-16.9-62.7-16.9c-20.7,0-38,3.7-52,11.2c-14,7.5-27.8,18.2-41.2,32.2V41c0-13.1-3-23.2-8.9-30.3 C1128.5,3.5,1120,0,1109,0c-10.5,0-18.7,3.7-24.5,11.2c-5.9,7.5-8.8,18.4-8.8,33v313.2c0,13.5,3,23.7,9.1,30.6 c6,6.9,14.1,10.4,24.3,10.4c10,0,18.2-3.5,24.7-10.4c6.5-6.9,9.7-17.1,9.7-30.6v-7.1c7.9,9.1,14.2,15.9,19,20.5 c4.8,4.5,10.6,9,17.5,13.3c6.8,4.3,15.1,7.8,24.8,10.4c9.7,2.6,20.1,3.9,31.1,3.9c18,0,34.6-3.6,49.5-10.9 c15-7.3,27.7-17.6,38.2-30.9c10.5-13.3,18.5-29,24.1-47.2c5.5-18.1,8.3-38,8.3-59.8C1356,220.2,1351.1,194.7,1341.2,173.3z M1264.4,319.4c-13.1,15.7-28.6,23.5-46.7,23.5c-21.2,0-38.3-7.7-51.4-23c-13.1-15.3-19.6-37.3-19.6-65.8 c0-19.4,3.1-36.2,9.2-50.3c6.1-14.1,14.5-24.9,25.2-32.3c10.7-7.4,22.9-11.2,36.5-11.2c13.3,0,25,3.7,35,11.2 c10,7.5,17.7,18,23.1,31.7c5.4,13.7,8.2,30,8.2,48.9C1284,281.2,1277.5,303.7,1264.4,319.4z"></path> </g> </g> </g> </svg> 